<svg id="Capa_1" data-name="Capa 1" xmlns="http://www.w3.org/2000/svg" viewBox="0 0 158.31 159.02"><defs><style>.cls-1{fill:#fdfdfd;}.cls-2{fill:#fd735d;}.cls-3{fill:#1c3037;}.cls-4{fill:#3a5b65;}.cls-5{fill:#e1e1e1;}.cls-6{fill:#fb735d;}.cls-7{fill:#ebebeb;}.cls-8{fill:#43626b;}.cls-9{fill:#1d3138;}.cls-10{fill:#c88c84;}.cls-11{fill:#22363d;}.cls-12{fill:#f3b797;}.cls-13{fill:#fcfbfb;}.cls-14{fill:#cdcfd0;}.cls-15{fill:#c35447;}.cls-16{fill:#f9bc9b;}</style></defs><title>card-2</title><path class="cls-1" d="M30.07,32.56c-2.32,1.17-3.38-1.5-5.25-1.72s-2.56.42-3,2.41c-.67,2.75-1.32,5.54-2.2,8.24-.54,1.69-.42,3,1.17,3.93C22.28,47,24.44,47,26.34,47.58c7.08,2.26,7.07,2.21,10.51-4.56.86-1.69,1.42-3.08.29-5a10.06,10.06,0,0,1-.89-7.88c.64-2.25-.45-3.29-2.68-3.33C30.57,27.59,30.6,30.25,30.07,32.56ZM163.65,15.65c-2.2-.83-3.26,0-3.5,2.28-.36,3.44-.44,7.19-2.75,9.84-1.88,2.16-1.78,4-.94,6.22.34.9.58,1.84.88,2.76,1.78,5.36,1.79,5.35,7.25,5.17a10,10,0,0,0,1.45,0c3.09-.59,6.36-.22,9.29-1.73,1.29-.87,2.48-1.7,2.23-3.63-.45-3.69-.86-7.4-1-11.11-.1-2.47-1.08-3.56-3.52-3.33-1.94.41-3.63,2.1-5.84,1.14a10.29,10.29,0,0,0-.54-4.19C166,17.6,166.18,15.44,163.65,15.65ZM32.26,174.33c2.36,0,4.39,0,6.42,0,.92,0,1.67-.08,2-1.2.69-2.51,1.57-5,2.19-7.48.41-1.61-.23-2.52-2.13-2.44-2.6.12-5.22.14-7.82,0-2.15-.12-2.49,1-2.15,2.68.21,1,.91,2,.89,3C31.61,170.72,33.77,172.13,32.26,174.33ZM38.2,53.56c.35-.26.76-.41.93-.7a75.59,75.59,0,0,0,4.76-8.56C44.82,42.08,42.1,42,41,41.08s-2.07.07-2.63,1.23c-1,2.16-2.18,4.28-3.19,6.45-.41.89-1.58,1.9-.53,2.84A17.51,17.51,0,0,0,38.2,53.56ZM74.77,32.71a11,11,0,0,0,3.47-3.1c.9-1.06,3.54-2,2.38-3.2-1.46-1.48-2.38,1.24-3.5,2.1-1.31,1-2.32,2.48-3.9.45a.92.92,0,0,0-1.28-.28c-.26.19-.53.75-.43.93A8,8,0,0,0,74.77,32.71ZM22.42,139.87a5.28,5.28,0,0,0,1.39-.09c2.36-.82,4.3-3.14,7.25-1.89.5.21.72-.47.75-1A7.9,7.9,0,0,0,30,131.12c-1,2.18.72,3.8.26,5.84C26.46,134.21,24.76,137.81,22.42,139.87Zm7.89,3.54c-1.66.68-1.57,2.19-2.31,3.11-1.5-.75-1.48-3.07-3.5-3.48-.05,1.8,1.43,2.81,1.59,4.23-.93.57-2.1-.27-2.73.83C27.06,150.68,29.58,149.06,30.31,143.41Zm60.52,30.44,0,.3h18.46v-.3ZM37.67,123.52c-.86-.12-1.66-.17-2.05-1.07s-1.15-2.71-2.2-1.87.39,2.16,1.14,3.09a3.86,3.86,0,0,0,1.25,1.17C36.79,125.31,37.08,124.42,37.67,123.52Zm-3.38,25.16c-1.95,2-1.1,4-.94,5.84C34.55,152.8,35.22,151,34.29,148.68ZM45,141.29c-.44-.61-.09-2-1.38-1.81-.77.1-2.11.16-2.12,1.06,0,1.27,1.37,1.43,2.37,1.65C44.45,142.32,45.08,142.19,45,141.29Zm-4.9,1.28a7.77,7.77,0,0,0-.21,6C41.43,145.79,41.43,145.79,40.11,142.57Zm1.07-11.66c-.93.49-.58,1.34-.55,2a3,3,0,0,0,1.21,2.46c.13.09.58-.07.7-.24.66-1-.66-1.18-.77-1.91S42.14,131.51,41.18,130.91Zm-9.06,25.54c-1.88-.55-2.7.67-3.51,1.83a.79.79,0,0,0,.24.7c1.44.34,1.93-1,2.78-1.68A3.75,3.75,0,0,0,32.12,156.45ZM85.32,32.13a6.91,6.91,0,0,0-.14-6.59A26.92,26.92,0,0,1,85.32,32.13ZM29.12,153.07c-1.39.54-2.66,1.21-2.92,3.26C27.84,155.5,28.8,154.59,29.12,153.07Zm2.43-6.49c-1.53,1.65-.6,3.32-.72,4.88A5.24,5.24,0,0,0,31.55,146.58Zm-1.85-8c-2.22.48-3.54.9-4.7,2.38C27,141.16,28.19,140.47,29.7,138.61Zm11.86,12.74c-1.76,1.56-1.65,2.94-1.39,4.69A6.58,6.58,0,0,0,41.56,151.35Zm-6-23.16c-.06,1.1-.77,2.27.88,3.77C36.34,130.28,37,129.12,35.59,128.19ZM84.77,33.74c0-.06-.07-.15-.12-.17s-.12,0-.18.09l.21.27Z" transform="translate(-19.29 -15.34)"/><path class="cls-2" d="M58.49,51.42l.24,1c-.69.38-.7,1.1-.72,1.72s-1.84.44-.92,1.46a1.39,1.39,0,0,0,2.19-.27A23.65,23.65,0,0,1,72.67,67c.84,1.6,1.55,1.48,2.16-.19.76-2.08,1.56-4.15,2.35-6.22.34-.87.43-2,1.82-1.83L81.47,60c.65,1.46-.91,3.56,1.32,4.56l-2.13,7.81c-.75,2.73-1.94,5.1-5.09,5.66A6.53,6.53,0,0,1,68,74.26L66.14,68c-.41,2.1-1,4.19.69,5.86-1,2.13.25,4.18.29,6.28.13,6.35,2.31,12.46,2.39,18.83l-22.43,1.59c0-9.39,0-18.76-2.22-28-.75.19-.68.62-.75,1-1.19,5.54-.45,11.1.09,16.6a39.67,39.67,0,0,0,2.2,10.67c-.5,1.14,1.22,3-1.1,3.54l-4.89,1.27c-1.59-1.55-1.3-3.77-2-5.64C34.11,88.6,36,76.8,36.24,65.12c.08-3.48,2-6.25,4.79-8.31.94-.69,1.91-1.34,2.89-2,2-1.33,4.81-1.83,5.4-4.79a10.45,10.45,0,0,1,4.1.66c1.13,1.16-.77,3.35,1.44,4.39.17-1.43-1-2.79.34-3.88.92.05,1.8.84,2.75.13A5,5,0,0,0,58.49,51.42ZM54.58,82.17l.58.58.58.6.59.57a1.11,1.11,0,0,0,1.16.6l.58.58.56.43.19-.29-.72-.17-.59-.58a1.14,1.14,0,0,0-1.17-.58l-.58-.59-.59-.57-.58-.59-.6-.57a.61.61,0,0,0-.09-.2s-.09,0-.14,0l.25.23Zm2.9,5.94c2,1.51,4,3,7,1.44Z" transform="translate(-19.29 -15.34)"/><path class="cls-3" d="M129.82,149c-1.35.56-2,.06-2.56-1.28-.79-2-1.78-4-2.87-6.36a16.71,16.71,0,0,0-2.09,5.55,7.73,7.73,0,0,0-1.83,3.37c-1.16,2.73-3.39,5.19-3.27,8.2.11,2.61-.6,4-3,4.76a41.26,41.26,0,0,0-8-3c-.55-.51-1.51-1.1-.69-1.84,1.75-1.55,1.28-3.7,1.8-5.57,1.16-.47,1.35-1.53,1.55-2.57,2.71-3.26,2.65-7.48,3.84-11.26,1-3.13,1-3.14-2.32-3.14-8.12,0-16.24,0-24.36,0-5.63,0-8-3.85-5.47-9,.37-.77.65-1.6,1-2.4L87,119.59l41.69-.09c.65,0,1.39-.14,1.82.6.24,3.23,2.37,6,2.27,9.32l-2.39,0c-.47-.09-1.28-.19-1.31.19-.15,2.4-2.2,4.24-1.91,6.73,3.46,1.52,4.65,1.24,7.25-1.68,1.85,2.89,2.21,6.33,3.43,9.45.47,1.21-.65,1.42-1.24,2Z" transform="translate(-19.29 -15.34)"/><path class="cls-4" d="M95.11,58.88c0-5.61,0-11.22,0-16.83,0-1-.28-2.06,1.08-2.68,7.78-3.56,11.2-10.6,14-18,1-2.56,2.48-3.49,5.06-2.93.74,1.62,2.42,2.73,2.32,4.83-.14,2.7,0,5.39-.68,8.06-1.1,4.14-.94,4.26,3.29,4.12l9.07.43c1.22,1.35,2.75,2.63,2.18,4.73a49,49,0,0,0-2,8.84c-.4,4.75-2.38,9.37-3.68,14-1.45-1-1.66-3-3.39-3.73-.27-4.77-2.78-7.53-7.37-8.35,1.09,3.77-.86,8.78,4.25,11q.92,2.85,1.81,5.7c-5.85,0-11.43-1.53-17-3.17,0-3-3.37-7-5.4-6.22C97.43,59.26,96.32,58.89,95.11,58.88Z" transform="translate(-19.29 -15.34)"/><path class="cls-5" d="M130.5,120.1c-.43-.74-1.17-.6-1.82-.6L87,119.59l-5.5,0c-1.17,0-2.42-.54-3.46.46l-7.89.08c-3.17-1.24-6.46-.37-9.69-.49l-8.64,0-3.11,0c-1.72,0-3.44-.06-5.15,0-1.4,0-2.57.14-2.55-2,0-1.9.64-2.62,2.45-2.41a12.57,12.57,0,0,0,5.88-.16c2.72,0,5.46.39,8.18-.11a56.4,56.4,0,0,0,12.39,0l8.32,0c1.37.71,2.83.35,4.26.36,9.9.51,19.8,0,29.7.07.24,0,.49-.27.73-.42l.09-.22c2.55.79,2.47-1.71,3.5-2.81,1.73-.24.94-2,1.72-2.82,2-.92,3.39-2.3,3.42-4.67h0l.56-.57,0,0,.57-.56,0,0c1.9-.11,3.84.44,5.71-.3l10.62-.17.55.5c-.76,2.69-3.27,4.34-4.13,7a5.13,5.13,0,0,1-2.49,1.25c-2.06.12-3.06,1.29-2.78,3.41H116.51v.52h17.6l6.74-.34a35.85,35.85,0,0,0,10,0h1.65a15.85,15.85,0,0,0,7.28-.14l.18,0c1,1,2.35.6,3.54.61,4.14,0,4.14,0,4.23,4.1h0c-3.18,0-6.36,0-9.54,0-1.64,0-2.22.6-2.17,2.2.09,3,0,6,0,9a4.87,4.87,0,0,1,0,.54c-.73.57-.76,1.13,0,1.71,0,4.26,0,8.52,0,12.78,0,.84.26,1.76-.55,2.43-1.24-.57.21-2.7-1.68-2.9-.28-1,.39-2.15-.68-2.93l-.75-.33a1.63,1.63,0,0,0,.74-1.43c1.31-2.36.49-4.9.56-7.34a58.61,58.61,0,0,0-1.11-13.07H145a27.38,27.38,0,0,0-12.15-.06Z" transform="translate(-19.29 -15.34)"/><path class="cls-6" d="M121.14,68.12c-.61-1.9-1.21-3.8-1.82-5.7l3.12-2.66c1.73.69,1.94,2.78,3.39,3.73a8.45,8.45,0,0,0,2.26,3.21c2.11,3.87,2.14,3.92,5.67,1.52,2.47-1.69,5.11-3.16,7.21-5.36.31-.06.62-.14.53-.57l0,0a7,7,0,0,0,4.7-1.44,2,2,0,0,0,2,.89c2.08-.26,2.57.48,1.54,2.32-.61,1.07-.81,2.16.57,2.88,2,3,5,3.21,8.06.58,1.26,2.21,1.06,4.61,1,7C159,80.15,158,85.7,158.84,91.3L141,91.37c-.95-1.15.18-3.16-1.63-4-.06-3.58-2.12-6.78-1.95-10.4,2.91-.11,5.4-1,6.65-3.86-2.29,1.17-5.21,1.25-6.7,3.79-1.56-.17-2.72.86-4,1.38-4.8,1.91-6.08,1.53-8.59-3C123.41,73,122.32,70.52,121.14,68.12Zm7.16,6.4,1.27-1.81c.35.4.87,1.69.83-.13,0-.62.31-1.41-.41-1.81-.48-.27-.91.18-1.2.54C128.15,72.11,127.41,72.89,128.3,74.52Z" transform="translate(-19.29 -15.34)"/><path class="cls-4" d="M141,91.37l17.89-.07c2.69,5.49,4.66,11.12,3.74,17.42a11.27,11.27,0,0,1-2.76,6.13,15.85,15.85,0,0,1-7.28.14c1.12-1.58,4-1.69,4-5.12-1.87,2.39-4.42,2.95-5.63,5.13a35.85,35.85,0,0,1-10,0c.63-1,1.23-1.93,1.9-2.86,3.62-5,5-10.52,3.38-16.61.46-.09,1.25.4,1.29-.38,0-.62-.73-.64-1.27-.65-1.87.17-4.57-1.11-5.44.77-1.88,4-5.62,4.36-9,5.62-.35-1.62.89-1.53,1.88-1.79,3.56-1,4.57-2.23,4.93-5.86a5.41,5.41,0,0,1,.7-1.51Zm7.5,4.73c1.11,1.37,2,2.68,3.54,3.29.07,0,.49-.4.46-.54a4.21,4.21,0,0,0-3.34-3.06C149,95.78,149,95.86,148.45,96.1Z" transform="translate(-19.29 -15.34)"/><path class="cls-7" d="M167.18,23.24c2.21,1,3.9-.73,5.84-1.14,1.51,1.58,1.19,3.54,1.44,5.51a77.7,77.7,0,0,1,.87,12.56c-2.93,1.51-6.2,1.14-9.29,1.73a10,10,0,0,1-1.45,0c-5.46.18-5.47.19-7.25-5.17-.3-.92-.54-1.86-.88-2.76-.84-2.25-.94-4.06.94-6.22,2.31-2.65,2.39-6.4,2.75-9.84.24-2.26,1.3-3.11,3.5-2.28a45.21,45.21,0,0,1,1.43,6C165.16,22.37,165,24.8,167.18,23.24Z" transform="translate(-19.29 -15.34)"/><path class="cls-8" d="M87.82,174.07C87.93,167,89.23,160,89.91,153c.39-4,.83-7.91,1.36-11.86.23-1.66-.24-2.3-2-2.22-2.62.13-5.76-.78-7.72.38-2.14,1.26-1.25,4.77-1.56,7.3-1,7.89-1.78,15.81-2.68,23.72-.15,1.34-.06,2.74-.77,4l-1.36-.09a.46.46,0,0,0-.25-.42c0-.18-.18-.37-.16-.54C77,157.46,79,141.71,78.23,125.76c-.08-1.91.51-3.84-.2-5.73,1-1,2.29-.42,3.46-.46,0,1.65,0,3.3.05,4.94-.32.8-.6,1.63-1,2.4-2.48,5.11-.16,9,5.47,9,8.12,0,16.24,0,24.36,0,3.29,0,3.29,0,2.32,3.14-.66,0-1.34,0-2-.14-2.58-.4-3.38.52-2.83,3.15s.68,5.49,1,8.25c-.2,1-.39,2.1-1.55,2.57-.49-3.75-1.13-7.48-1.4-11.23-.15-2.2-1-2.84-3.06-2.68a29.6,29.6,0,0,1-6.1,0c-2.78-.37-3.41,1-3.66,3.38-.9,8.67-2,17.32-2.9,26-.16,1.53-.85,3-.65,4.55C89.73,174.07,88.73,174.09,87.82,174.07Z" transform="translate(-19.29 -15.34)"/><path class="cls-9" d="M153.15,140.51a1.63,1.63,0,0,1-.74,1.43L146,144.72c-1.84.68-2.06-.87-2.53-1.93-3-6.81-6-13.64-9-20.45-.37-.84-.46-1.94-1.57-2.31a27.38,27.38,0,0,1,12.15.06,179,179,0,0,0,7.55,19.35C152.57,139.9,152.59,140.35,153.15,140.51Z" transform="translate(-19.29 -15.34)"/><path class="cls-9" d="M150.24,67c-1.38-.72-1.18-1.81-.57-2.88,1-1.84.54-2.58-1.54-2.32a2,2,0,0,1-2-.89v0c1.15-1.76,4.61-.87,4.57-4l-.37-.94a3.23,3.23,0,0,1,.32-3.69,2.77,2.77,0,0,0,.44-2.66l.89-.08.24.13L152,49.5c-.89-2-2-3.79-4.14-4.64-1.43-2.76-1.8-2.87-4.15-.61a32.67,32.67,0,0,0-2.82,3.56,5.64,5.64,0,0,1,4.55-7.39c1.6-.15,3.2-.22,4.8-.32a19.26,19.26,0,0,1,5.84,3.79,10.52,10.52,0,0,1,1.79,6.28,3.38,3.38,0,0,0,1.8,3.37A2.1,2.1,0,0,1,160.76,56c-.49,2-1.56,4-.54,6.1-1.9.53-1.05,2.82-2.37,3.72C155.42,66.93,153,68,150.24,67Zm2.78-15c0-.08,0-.18-.08-.24s-.14,0-.21.05a.67.67,0,0,0,.08.25S152.94,52,153,51.93Z" transform="translate(-19.29 -15.34)"/><path class="cls-7" d="M33.57,26.77c2.23,0,3.32,1.08,2.68,3.33A10.06,10.06,0,0,0,37.14,38c1.13,2,.57,3.35-.29,5-3.44,6.77-3.43,6.82-10.51,4.56-1.9-.61-4.06-.58-5.59-2.16a42.88,42.88,0,0,1,4.07-14.58c1.87.22,2.93,2.89,5.25,1.73.6,2,1.31.69,1.44-.09C31.84,30.42,33.19,28.77,33.57,26.77Z" transform="translate(-19.29 -15.34)"/><path class="cls-10" d="M58.49,51.42a5,5,0,0,1-.54-.07c-.38-2.06-2.25-1.13-3.39-1.67l.13,1H53.42a10.45,10.45,0,0,0-4.1-.66c-.15-1.34-.33-2.68-.45-4-.07-.78-.09-1.37-1-1.83-2.4-1.22-2-2.69,0-4.07,1.44-.07.86,2.62,2.3,2s1.18-2.52,1.3-3.92a8.48,8.48,0,0,0-.31-2.58c-.71-3.33.19-4.26,3.56-3.34a6.42,6.42,0,0,0,5.53-.51c3.12,4.77,2.49,10.1,2.18,15.35C62.24,49.43,59.24,49.47,58.49,51.42Z" transform="translate(-19.29 -15.34)"/><path class="cls-4" d="M82.79,64.57c-2.23-1-.67-3.1-1.32-4.56A41.61,41.61,0,0,1,83.8,46a8.32,8.32,0,0,0,1.06.92,2,2,0,0,0,3.19-.76,1.87,1.87,0,0,0-.86-2.73c-1.35-.76-2.43-.25-3,1.2a10.63,10.63,0,0,0-.36,1.4c-1.71.61-1.86-.85-2.39-1.81.87-5.07.87-5.08,6.16-5.06,1.26,0,2.52.06,3.78.09,0,1.17,0,2.34-.08,3.49-.66,7.16,1.87,14.66-2.33,21.43C86.92,64.45,84.81,63.79,82.79,64.57Z" transform="translate(-19.29 -15.34)"/><path class="cls-11" d="M89,64.15c4.2-6.77,1.67-14.27,2.33-21.43.11-1.15.06-2.32.08-3.49,1.86-.5,2.31.33,2.28,2.09-.09,5.41-.07,10.81,0,16.22,0,.81-.56,2.63,1.49,1.34,1.21,0,2.32.38,3.64-.15,2-.82,5.43,3.24,5.4,6.22l-1.16.29c-3.06-.21-6.11-.38-9.17-.63-1.15-.09-2,0-1.58,1.48a6,6,0,0,1-2.75,7.24C87.27,70.39,87.48,67.31,89,64.15Z" transform="translate(-19.29 -15.34)"/><path class="cls-12" d="M140.89,47.81a32.67,32.67,0,0,1,2.82-3.56c2.35-2.26,2.72-2.15,4.15.61,0,2.31,2.25,3.09,3.25,4.72a2.77,2.77,0,0,1-.44,2.66,3.23,3.23,0,0,0-.32,3.69l.37.94c0,3.12-3.42,2.23-4.57,4-.33-1.52-1.81-1.53-2.82-2.16a9.06,9.06,0,0,1-1.9-6.1c0-1,.56-2.3-.61-3.16Z" transform="translate(-19.29 -15.34)"/><path class="cls-11" d="M45.55,153.47c.19-8.91,1.69-17.76,1.21-26.69a1.71,1.71,0,0,1,2-.85c.38,5.82-.16,11.67.58,17.47l.07,2.35,0,20.45-1.89.35c-1.19-.22-1-1.17-1.07-2-.26-3.41-.54-6.82-.81-10.24Z" transform="translate(-19.29 -15.34)"/><path class="cls-11" d="M128.09,66.7a8.45,8.45,0,0,1-2.26-3.21c1.3-4.67,3.28-9.29,3.68-14a49,49,0,0,1,2-8.84c.57-2.1-1-3.38-2.18-4.73,5-.36,7.25,2.24,5.37,6.63-1.6,3.76-1.26,7.79-2.3,11.63-1,3.6-2.7,7-2.79,10.88A2.16,2.16,0,0,1,128.09,66.7Z" transform="translate(-19.29 -15.34)"/><path class="cls-8" d="M48.71,125.93a1.71,1.71,0,0,0-2,.85c-2.49-.81-4.35,1.49-6.7,1.38l0,0c-.44-4-2.29-7.59-3.75-11.25-1-2.57-.84-3.87,2-4.49a20.77,20.77,0,0,0,3-1.12c.72,1.27,1.44,2.54,2.15,3.81-1.81-.21-2.44.51-2.45,2.41,0,2.1,1.15,2,2.55,2,1.71,0,3.43,0,5.15,0C48.7,121.66,48.71,123.79,48.71,125.93Z" transform="translate(-19.29 -15.34)"/><path class="cls-5" d="M32.26,174.33c1.51-2.2-.65-3.61-.62-5.4,0-1-.68-2-.89-3-.34-1.67,0-2.8,2.15-2.68,2.6.14,5.22.12,7.82,0,1.9-.08,2.54.83,2.13,2.44-.62,2.52-1.5,5-2.19,7.48-.31,1.12-1.06,1.2-2,1.2C36.65,174.32,34.62,174.33,32.26,174.33Z" transform="translate(-19.29 -15.34)"/><path class="cls-6" d="M106.22,160.23a41.26,41.26,0,0,1,8,3c-1.87,3.28-.38,5.47,2.32,7.36a3.08,3.08,0,0,1,1.57,2,.77.77,0,0,0-.47.08c-4.62-.83-8.67-3.22-13-4.75-1.16-.41-.6-1.24-.37-1.93C104.86,164.06,105.55,162.14,106.22,160.23Z" transform="translate(-19.29 -15.34)"/><path class="cls-7" d="M38.2,53.56a17.51,17.51,0,0,1-3.59-2c-1-.94.12-2,.53-2.84,1-2.17,2.14-4.29,3.19-6.45.56-1.16,1.39-2.2,2.63-1.23s3.86,1,2.93,3.22a75.59,75.59,0,0,1-4.76,8.56C39,53.15,38.55,53.3,38.2,53.56Z" transform="translate(-19.29 -15.34)"/><path class="cls-10" d="M43.45,115.14c-.71-1.27-1.43-2.54-2.15-3.81a14.7,14.7,0,0,0-.89-5.69l4.89-1.27c1.09,1.29,3,1.7,3.71,3.42-2.57,2.24-2.63,2.86-.36,5.68a2.34,2.34,0,0,1,.68,1.51A12.57,12.57,0,0,1,43.45,115.14Z" transform="translate(-19.29 -15.34)"/><path class="cls-6" d="M129.82,149l6.78-2.88c2.53,6.45,2.53,6.46-3.78,9-2,.81-4.06,1.6-6.48,2.54a5.18,5.18,0,0,1,2.44-3.16C131.39,153,131.31,151.16,129.82,149Z" transform="translate(-19.29 -15.34)"/><path class="cls-11" d="M120.23,35.45c-4.23.14-4.39,0-3.29-4.12.71-2.67.54-5.36.68-8.06.1-2.1-1.58-3.21-2.32-4.83,4.55.16,6.41,2.25,6,7.09a77,77,0,0,1-1.12,7.69A3.61,3.61,0,0,0,120.23,35.45Z" transform="translate(-19.29 -15.34)"/><path class="cls-11" d="M60.2,31.76a6.42,6.42,0,0,1-5.53.51c-3.37-.92-4.27,0-3.56,3.34a8.48,8.48,0,0,1,.31,2.58c-.12,1.4.19,3.25-1.3,3.92s-.86-2-2.3-2a37.93,37.93,0,0,1-.26-4.63A7,7,0,0,1,60.2,31.76Z" transform="translate(-19.29 -15.34)"/><path class="cls-8" d="M120.47,150.27a7.73,7.73,0,0,1,1.83-3.37q1.15,9.45,2.32,18.89c.33,2.68.66,5.35,1,8a.22.22,0,0,0-.11.32h-1.86a.42.42,0,0,0-.24-.4c-.43-4.34-.67-8.7-1.34-13C121.52,157.26,121.77,153.65,120.47,150.27Z" transform="translate(-19.29 -15.34)"/><path class="cls-6" d="M146,144.72l6.45-2.78.75.33-.09,6.62-10.4,4.49C143.74,150.2,148.61,148.79,146,144.72Z" transform="translate(-19.29 -15.34)"/><path class="cls-7" d="M156.08,43.89a19.26,19.26,0,0,0-5.84-3.79c-1.17-1.51-1.58-3.36-2.33-5.06-.94-2.12-.51-3.2,1.74-3.71a24.69,24.69,0,0,0,2.95-1,11.54,11.54,0,0,0,.27,1.68c1.25,3.89,2.53,7.77,3.8,11.66Zm-4.19-9.07c0-.83-.46-1-1.1-1s-1.38.23-1.47,1,.54,1.19,1.27,1.18A1.27,1.27,0,0,0,151.89,34.82Z" transform="translate(-19.29 -15.34)"/><path class="cls-13" d="M49.34,166.2l0-20.45,2.08-.12q-.09,10.45-.17,20.91l-.11,6.54v1.21l-1.2,0Z" transform="translate(-19.29 -15.34)"/><path class="cls-10" d="M81.43,44.2c.53,1,.68,2.42,2.39,1.81l0,0a41.61,41.61,0,0,0-2.33,14L79,58.74c.07-3.38.17-6.76.19-10.15C79.21,46.73,79.72,45.17,81.43,44.2Z" transform="translate(-19.29 -15.34)"/><path class="cls-5" d="M175.33,40.17a77.7,77.7,0,0,0-.87-12.56c-.25-2,.07-3.93-1.44-5.51,2.44-.23,3.42.86,3.52,3.33.16,3.71.57,7.42,1,11.11C177.81,38.47,176.62,39.3,175.33,40.17Z" transform="translate(-19.29 -15.34)"/><path class="cls-5" d="M24.82,30.84a42.88,42.88,0,0,0-4.07,14.58c-1.59-1-1.71-2.24-1.17-3.93.88-2.7,1.53-5.49,2.2-8.24C22.26,31.26,23,30.65,24.82,30.84Z" transform="translate(-19.29 -15.34)"/><path class="cls-6" d="M74.77,32.71a8,8,0,0,1-3.26-3.1c-.1-.18.17-.74.43-.93a.92.92,0,0,1,1.28.28c1.58,2,2.59.58,3.9-.45,1.12-.86,2-3.58,3.5-2.1,1.16,1.17-1.48,2.14-2.38,3.2A11,11,0,0,1,74.77,32.71Z" transform="translate(-19.29 -15.34)"/><path class="cls-5" d="M22.42,139.87c2.34-2.06,4-5.66,7.84-2.91.46-2-1.24-3.66-.26-5.84a7.9,7.9,0,0,1,1.81,5.79c0,.51-.25,1.19-.75,1-2.95-1.25-4.89,1.07-7.25,1.89A5.28,5.28,0,0,1,22.42,139.87Z" transform="translate(-19.29 -15.34)"/><path class="cls-5" d="M30.31,143.41c-.73,5.65-3.25,7.27-6.95,4.69.63-1.1,1.8-.26,2.73-.83-.16-1.42-1.64-2.43-1.59-4.23,2,.41,2,2.73,3.5,3.48C28.74,145.6,28.65,144.09,30.31,143.41Z" transform="translate(-19.29 -15.34)"/><path class="cls-5" d="M156.67,43.62c-1.27-3.89-2.55-7.77-3.8-11.66a11.54,11.54,0,0,1-.27-1.68c1,0,1.48.59,1.77,1.53,1.16,3.63,2.35,7.26,3.6,10.86C158.64,44.62,157.71,44.14,156.67,43.62Z" transform="translate(-19.29 -15.34)"/><path class="cls-7" d="M153.84,145.2c1.89.2.44,2.33,1.68,2.9.75,2.29.8,11.69-.15,14.91-1.12-5.57.52-10.74-1.53-15.47Z" transform="translate(-19.29 -15.34)"/><path class="cls-10" d="M49.34,166.2l.63,8.13c-1.69.14-2.4-.51-2.29-2.33a16.39,16.39,0,0,0-.23-5.45Z" transform="translate(-19.29 -15.34)"/><path class="cls-14" d="M130.38,129.46l2.39,0c2.28,1.22,1.53,3.39,1.64,5.28-2.6,2.92-3.79,3.2-7.25,1.68a22.6,22.6,0,0,0,3.19,0,2.93,2.93,0,0,0,2.73-3.68C132.85,131.11,131.54,130.31,130.38,129.46Z" transform="translate(-19.29 -15.34)"/><path class="cls-5" d="M167.18,23.24c-2.19,1.56-2-.87-2.1-1.56a45.21,45.21,0,0,0-1.43-6c2.53-.21,2.34,2,3,3.4A10.29,10.29,0,0,1,167.18,23.24Z" transform="translate(-19.29 -15.34)"/><path class="cls-15" d="M150.24,67c2.75,1,5.18,0,7.61-1.16l.45,1.74C155.25,70.18,152.29,70,150.24,67Z" transform="translate(-19.29 -15.34)"/><path class="cls-4" d="M51.17,174.29c0-.4,0-.8,0-1.21l10.32,0h1.44l.83.14.06.61a.2.2,0,0,0-.19.27Z" transform="translate(-19.29 -15.34)"/><path class="cls-8" d="M140.82,49.44c1.17.86.62,2.12.61,3.16a9.1,9.1,0,0,0,1.9,6.11c-.3.31-.59.63-.88.95C140.5,56.48,139.39,53.16,140.82,49.44Z" transform="translate(-19.29 -15.34)"/><path class="cls-14" d="M156.09,130.64c0-3,0-6,0-9-.05-1.6.53-2.25,2.17-2.2,3.18.09,6.36,0,9.54,0-2.76,1.22-5.67.46-8.51.51-2,0-2.61.64-2.64,2.66C156.58,125.33,157.29,128.07,156.09,130.64Z" transform="translate(-19.29 -15.34)"/><path class="cls-5" d="M90.83,173.85h18.48v.3H90.85Z" transform="translate(-19.29 -15.34)"/><path class="cls-14" d="M153.84,145.2v2.34l-.15,13.9a2.57,2.57,0,0,1-.48,0q-.08-6.28-.14-12.56l.09-6.62C154.23,143.05,153.56,144.23,153.84,145.2Z" transform="translate(-19.29 -15.34)"/><path class="cls-11" d="M142.45,59.66c.29-.32.58-.64.88-.95,1,.62,2.49.63,2.82,2.15v0a7,7,0,0,1-4.7,1.44C141.29,61.25,142.68,60.75,142.45,59.66Z" transform="translate(-19.29 -15.34)"/><path class="cls-5" d="M33.57,26.77c-.38,2-1.73,3.65-2.06,5.71-.13.78-.84,2.07-1.44.09C30.6,30.25,30.57,27.59,33.57,26.77Z" transform="translate(-19.29 -15.34)"/><path class="cls-5" d="M141.47,173.81h16.82v.47H141.47A3.68,3.68,0,0,0,141.47,173.81Z" transform="translate(-19.29 -15.34)"/><path class="cls-7" d="M37.67,123.52c-.59.9-.88,1.79-1.86,1.32a3.86,3.86,0,0,1-1.25-1.17c-.75-.93-2.2-2.24-1.14-3.09s1.78.91,2.2,1.87S36.81,123.4,37.67,123.52Z" transform="translate(-19.29 -15.34)"/><path class="cls-14" d="M141.47,173.81a3.68,3.68,0,0,1,0,.47l-16-.13a.23.23,0,0,1,.11-.33Z" transform="translate(-19.29 -15.34)"/><path class="cls-5" d="M45.55,153.47l0,.83c-1.38.86-1.28,3.92-4.3,2.68C42.8,155.75,42.5,152.7,45.55,153.47Z" transform="translate(-19.29 -15.34)"/><path class="cls-5" d="M34.29,148.68c.93,2.33.26,4.12-.94,5.84C33.19,152.64,32.34,150.67,34.29,148.68Z" transform="translate(-19.29 -15.34)"/><path class="cls-7" d="M45,141.29c.07.9-.56,1-1.13.9-1-.22-2.39-.38-2.37-1.65,0-.9,1.35-1,2.12-1.06C44.92,139.31,44.57,140.68,45,141.29Z" transform="translate(-19.29 -15.34)"/><path class="cls-5" d="M40.11,142.57c1.32,3.22,1.32,3.22-.21,6A7.77,7.77,0,0,1,40.11,142.57Z" transform="translate(-19.29 -15.34)"/><path class="cls-14" d="M167.77,119.51c-.09-4.08-.09-4.05-4.23-4.1-1.19,0-2.5.41-3.54-.61h4.93C168.74,114.8,169.25,115.65,167.77,119.51Z" transform="translate(-19.29 -15.34)"/><path class="cls-14" d="M63.62,174.08a.2.2,0,0,1,.19-.27L75,173.74a.46.46,0,0,1,.25.42A70.21,70.21,0,0,1,63.62,174.08Z" transform="translate(-19.29 -15.34)"/><path class="cls-7" d="M41.18,130.91c1,.6.48,1.56.59,2.33s1.43.95.77,1.91c-.12.17-.57.33-.7.24a3,3,0,0,1-1.21-2.46C40.6,132.25,40.25,131.4,41.18,130.91Z" transform="translate(-19.29 -15.34)"/><path class="cls-14" d="M123.41,173.75a.42.42,0,0,1,.24.4h-8.38c.58-.82,2.34.15,2.35-1.49a.77.77,0,0,1,.47-.08C119.59,174.21,121.57,173.69,123.41,173.75Z" transform="translate(-19.29 -15.34)"/><path class="cls-5" d="M32.12,156.45a3.75,3.75,0,0,1-.49.85c-.85.7-1.34,2-2.78,1.68a.79.79,0,0,1-.24-.7C29.42,157.12,30.24,155.9,32.12,156.45Z" transform="translate(-19.29 -15.34)"/><path class="cls-7" d="M85.32,32.13a26.92,26.92,0,0,0-.14-6.59A6.91,6.91,0,0,1,85.32,32.13Z" transform="translate(-19.29 -15.34)"/><path class="cls-6" d="M59.28,55.29a1.39,1.39,0,0,1-2.19.27c-.92-1,.88-.72.92-1.46s0-1.34.72-1.72C59.8,53.18,59.13,54.31,59.28,55.29Z" transform="translate(-19.29 -15.34)"/><path class="cls-5" d="M40.06,128.16c.09,1.78-1.05,2.76-2.38,3.6h-.6c.87-1.3.44-3.7,3-3.56Z" transform="translate(-19.29 -15.34)"/><path class="cls-7" d="M153.21,161.45a2.57,2.57,0,0,0,.48,0v9.26h-.48Z" transform="translate(-19.29 -15.34)"/><path class="cls-5" d="M29.12,153.07c-.32,1.52-1.28,2.43-2.92,3.26C26.46,154.28,27.73,153.61,29.12,153.07Z" transform="translate(-19.29 -15.34)"/><path class="cls-5" d="M31.55,146.58a5.24,5.24,0,0,1-.72,4.88C31,149.9,30,148.23,31.55,146.58Z" transform="translate(-19.29 -15.34)"/><path class="cls-5" d="M29.7,138.61C28.19,140.47,27,141.16,25,141,26.16,139.51,27.48,139.09,29.7,138.61Z" transform="translate(-19.29 -15.34)"/><path class="cls-7" d="M41.56,151.35A6.58,6.58,0,0,1,40.17,156C39.91,154.29,39.8,152.91,41.56,151.35Z" transform="translate(-19.29 -15.34)"/><path class="cls-14" d="M77.88,174.34a14.29,14.29,0,0,1,8.82,0Z" transform="translate(-19.29 -15.34)"/><path class="cls-7" d="M35.59,128.19c1.36.93.75,2.09.88,3.77C34.82,130.46,35.53,129.29,35.59,128.19Z" transform="translate(-19.29 -15.34)"/><path class="cls-14" d="M156.06,132.89c-.75-.58-.72-1.14,0-1.71C156.06,131.75,156.06,132.32,156.06,132.89Z" transform="translate(-19.29 -15.34)"/><path class="cls-7" d="M84.77,33.74l-.09.19-.21-.27c.06,0,.13-.11.18-.09S84.73,33.68,84.77,33.74Z" transform="translate(-19.29 -15.34)"/><path class="cls-11" d="M141.5,62.29c.09.43-.22.51-.53.57Z" transform="translate(-19.29 -15.34)"/><path class="cls-7" d="M37.08,131.76h.6C37.47,132.15,37.27,132.17,37.08,131.76Z" transform="translate(-19.29 -15.34)"/><path class="cls-3" d="M69.51,99l.39,15.87a56.4,56.4,0,0,1-12.39,0,16.23,16.23,0,0,0-3.17-7.61c-1.24-1.59-3.24,1-5,.55a2.64,2.64,0,0,0-.29,0c-.7-1.72-2.62-2.13-3.71-3.42,2.32-.57.6-2.4,1.1-3.54l.68-.25Z" transform="translate(-19.29 -15.34)"/><path class="cls-15" d="M47.08,100.58l-.68.25a39.67,39.67,0,0,1-2.2-10.67c-.54-5.5-1.28-11.06-.09-16.6.07-.35,0-.78.75-1C47,81.82,47.09,91.19,47.08,100.58Z" transform="translate(-19.29 -15.34)"/><path class="cls-15" d="M57.48,88.11l7,1.44C61.47,91.11,59.46,89.62,57.48,88.11Z" transform="translate(-19.29 -15.34)"/><path class="cls-15" d="M68,74.26l-1.14-.38c-1.7-1.67-1.1-3.76-.69-5.86Z" transform="translate(-19.29 -15.34)"/><path class="cls-15" d="M54.69,50.72l-.13-1c1.14.54,3-.39,3.39,1.67-1,.71-1.83-.08-2.75-.13Z" transform="translate(-19.29 -15.34)"/><path class="cls-6" d="M54.69,50.72l.51.5c-1.32,1.09-.17,2.45-.34,3.88-2.21-1-.31-3.23-1.44-4.39Z" transform="translate(-19.29 -15.34)"/><path class="cls-15" d="M57.49,84.52a1.11,1.11,0,0,1-1.16-.6h0a1.14,1.14,0,0,1,1.17.58Z" transform="translate(-19.29 -15.34)"/><path class="cls-15" d="M58.1,85.07l.72.17-.19.29-.56-.43Z" transform="translate(-19.29 -15.34)"/><path class="cls-15" d="M54,81.58l-.25-.23c.05,0,.12,0,.14,0a.61.61,0,0,1,.09.2Z" transform="translate(-19.29 -15.34)"/><path class="cls-15" d="M55.17,82.75l.59.57,0,0-.58-.6Z" transform="translate(-19.29 -15.34)"/><path class="cls-15" d="M54,81.59l.6.57h0L54,81.58Z" transform="translate(-19.29 -15.34)"/><path class="cls-15" d="M55.16,82.75l-.58-.58h0l.58.59Z" transform="translate(-19.29 -15.34)"/><path class="cls-15" d="M56.33,83.92l-.59-.57,0,0,.58.59Z" transform="translate(-19.29 -15.34)"/><path class="cls-15" d="M57.51,84.49l.59.58,0,0-.58-.58Z" transform="translate(-19.29 -15.34)"/><path class="cls-6" d="M130.38,129.46c1.16.85,2.47,1.65,2.7,3.21a2.93,2.93,0,0,1-2.73,3.68,22.6,22.6,0,0,1-3.19,0c-.29-2.49,1.76-4.33,1.91-6.73C129.1,129.27,129.91,129.37,130.38,129.46Z" transform="translate(-19.29 -15.34)"/><path class="cls-6" d="M81.54,124.51c0-1.64,0-3.29-.05-4.94l5.5,0Z" transform="translate(-19.29 -15.34)"/><path class="cls-12" d="M122.44,59.76l-3.12,2.66c-5.11-2.23-3.16-7.24-4.25-11C119.66,52.23,122.17,55,122.44,59.76Z" transform="translate(-19.29 -15.34)"/><path class="cls-9" d="M51.27,166.54q.07-10.46.17-20.91c0-.77,0-1.54,0-2.31q.24-9.54.47-19.09c2.36-.8,4.71-1.65,7.1-2.4a1.9,1.9,0,0,0,1.4-2.21c3.23.12,6.52-.75,9.69.49,0,1-.09,1.93,0,2.88.29,6.61.2,13.07-2.52,19.4-2.85,6.67-4.95,13.66-7.37,20.5-1.12.18-3.06-1.19-3.14,1s-1.36,2.33-2.87,2.53Z" transform="translate(-19.29 -15.34)"/><path class="cls-6" d="M118.31,103.62l2.1.8L118.22,109c-.78.82,0,2.58-1.72,2.83-.52-1-1.47-.91-2.37-.92s-1.88-.36-1.07,1a2.79,2.79,0,0,1,.31,2.34.55.55,0,0,1-.37.34l-.09.22-1.67-.07c-.94-2-2.13-3.77-4.61-4l-3.68-25c0-1.19,0-2.37,0-3.56a25,25,0,0,0,6.45,4.93,9.09,9.09,0,0,1,4.44,6.16c.67,3.64,1.73,7.06,4.18,9.93-.87.42-3.27-1.13-2.22,1.74-.23.22-.77.34-.21.77l.19-.78A3.34,3.34,0,0,0,118.31,103.62Zm-7.49-6.31c-.29,3.74.57,7.4,1.32,11.07C112.41,104.64,112.57,100.91,110.82,97.31Z" transform="translate(-19.29 -15.34)"/><path class="cls-9" d="M128.69,102l3.05-1.14c3.36-1.26,7.1-1.57,9-5.62.87-1.88,3.57-.6,5.44-.77,0,.34,0,.68,0,1,1.59,6.09.24,11.58-3.38,16.61-.67.93-1.27,1.91-1.9,2.86l-6.74.34a1.11,1.11,0,0,0-.23-.46c.71-1.52,3.39-2.34,1.7-4.72.86-2.63,3.37-4.28,4.13-7,.08-.47-.14-.59-.55-.5l-10.62.17C128.6,102.57,128.65,102.29,128.69,102Z" transform="translate(-19.29 -15.34)"/><path class="cls-14" d="M52,124.23q-.24,9.55-.47,19.09l-2.19.08c-.74-5.8-.2-11.65-.58-17.47,0-2.14,0-4.27,0-6.4l3.11,0C51.86,121.13,51.9,122.68,52,124.23Z" transform="translate(-19.29 -15.34)"/><path class="cls-4" d="M49,107.79a2.64,2.64,0,0,1,.29,0c1.8.41,3.8-2.14,5-.55a16.23,16.23,0,0,1,3.17,7.61c-2.72.5-5.46.11-8.18.11a2.34,2.34,0,0,0-.68-1.51C46.38,110.65,46.44,110,49,107.79Z" transform="translate(-19.29 -15.34)"/><path class="cls-4" d="M52,124.23c-.05-1.55-.09-3.1-.14-4.65l8.64,0a1.9,1.9,0,0,1-1.4,2.21C56.66,122.58,54.31,123.43,52,124.23Z" transform="translate(-19.29 -15.34)"/><path class="cls-14" d="M152.56,139.44q0-9.67,0-19.34a58.61,58.61,0,0,1,1.11,13.07c-.07,2.44.75,5-.56,7.34C152.59,140.35,152.57,139.9,152.56,139.44Z" transform="translate(-19.29 -15.34)"/><path class="cls-12" d="M135.59,110.14c1.69,2.38-1,3.2-1.7,4.72l-3.57-.06c-.28-2.12.72-3.29,2.78-3.41A5.13,5.13,0,0,0,135.59,110.14Z" transform="translate(-19.29 -15.34)"/><path class="cls-10" d="M111.24,114.77l1.67.07c-.24.15-.49.43-.73.42-9.9,0-19.8.44-29.7-.07a1,1,0,0,1,.17-.49l9.48.08h19.11Z" transform="translate(-19.29 -15.34)"/><path class="cls-4" d="M82.65,114.7a1,1,0,0,0-.17.49c-1.43,0-2.89.35-4.26-.36.67-.84-.67-1.51-.21-2.33,1.6-.4,3,.41,4.55.6Z" transform="translate(-19.29 -15.34)"/><path class="cls-14" d="M130.32,114.8l3.57.06a1.11,1.11,0,0,1,.23.46h-17.6v-.52Z" transform="translate(-19.29 -15.34)"/><path class="cls-11" d="M150.89,115c1.21-2.18,3.76-2.74,5.63-5.13,0,3.43-2.86,3.54-4,5.12Z" transform="translate(-19.29 -15.34)"/><path class="cls-11" d="M113,114.62a.55.55,0,0,0,.37-.34c1.06-1,.45-2.27.76-3.38.9,0,1.85-.1,2.37.92C115.47,112.91,115.55,115.41,113,114.62Z" transform="translate(-19.29 -15.34)"/><path class="cls-14" d="M118.22,109l2.19-4.57,1.23-.1C121.61,106.69,120.23,108.07,118.22,109Z" transform="translate(-19.29 -15.34)"/><path class="cls-14" d="M128.69,102c0,.28-.09.56-.14.83-1.87.74-3.81.19-5.71.3C124.64,102,126.84,102.88,128.69,102Z" transform="translate(-19.29 -15.34)"/><path class="cls-14" d="M139.17,102.67c.41-.09.63,0,.55.5Z" transform="translate(-19.29 -15.34)"/><path class="cls-14" d="M122.24,103.72a.54.54,0,0,1,.57-.56Z" transform="translate(-19.29 -15.34)"/><path class="cls-14" d="M121.66,104.31c0-.35.19-.56.56-.57Z" transform="translate(-19.29 -15.34)"/><path class="cls-15" d="M139.25,91.71l-1.82-.09-1.3-1,.2-3.08,3-.11c1.81.79.68,2.8,1.63,4Z" transform="translate(-19.29 -15.34)"/><path class="cls-15" d="M137.32,77c1.49-2.54,4.41-2.62,6.7-3.79-1.25,2.91-3.74,3.75-6.65,3.86Z" transform="translate(-19.29 -15.34)"/><path class="cls-15" d="M128.3,74.52c-.89-1.63-.15-2.41.49-3.21.29-.36.72-.81,1.2-.54.72.4.4,1.19.41,1.81,0,1.82-.48.53-.83.13Z" transform="translate(-19.29 -15.34)"/><path class="cls-11" d="M148.45,96.1c.5-.24.59-.32.66-.31a4.21,4.21,0,0,1,3.34,3.06c0,.14-.39.57-.46.54C150.43,98.78,149.56,97.47,148.45,96.1Z" transform="translate(-19.29 -15.34)"/><path class="cls-11" d="M146.14,95.51c0-.35,0-.69,0-1,.54,0,1.31,0,1.27.65C147.39,95.91,146.6,95.42,146.14,95.51Z" transform="translate(-19.29 -15.34)"/><path class="cls-11" d="M151.11,49.58c-1-1.63-3.25-2.41-3.25-4.72,2.16.85,3.25,2.65,4.14,4.64h0Z" transform="translate(-19.29 -15.34)"/><path class="cls-11" d="M153,51.93c-.08,0-.19.08-.21.06a.67.67,0,0,1-.08-.25c.07,0,.19-.07.21-.05S153,51.85,153,51.93Z" transform="translate(-19.29 -15.34)"/><path class="cls-11" d="M152,49.5l.24.13L152,49.5Z" transform="translate(-19.29 -15.34)"/><path class="cls-11" d="M150.72,56.87l-.37-.94Z" transform="translate(-19.29 -15.34)"/><path class="cls-7" d="M83.82,46a10.63,10.63,0,0,1,.36-1.4c.58-1.45,1.66-2,3-1.2a1.87,1.87,0,0,1,.86,2.73,2,2,0,0,1-3.19.76A8.32,8.32,0,0,1,83.8,46Z" transform="translate(-19.29 -15.34)"/><path class="cls-16" d="M103,82.16c0,1.19,0,2.37,0,3.56-2.73,1.35-5.44.75-8.15,0l0,0-.6-.62c-1.32-.79.39-3.07-1.71-3.49.84-2.31.92-4.36-1.73-5.62a2.59,2.59,0,0,1-1.3-2.64,6,6,0,0,0,2.75-7.24c-.42-1.51.43-1.57,1.58-1.48,3.06.25,6.11.42,9.17.63a56.24,56.24,0,0,1,2.32,10.1,3.83,3.83,0,0,1-1.62,4.06C102.64,80.14,101.82,80.88,103,82.16Z" transform="translate(-19.29 -15.34)"/><path class="cls-7" d="M49.29,143.4l2.19-.08c0,.77,0,1.54,0,2.31l-2.08.12Z" transform="translate(-19.29 -15.34)"/><path class="cls-13" d="M151.89,34.82a1.27,1.27,0,0,1-1.3,1.18c-.73,0-1.36-.34-1.27-1.18s.75-1,1.47-1S151.91,34,151.89,34.82Z" transform="translate(-19.29 -15.34)"/><path class="cls-6" d="M51.27,166.54l2.92-.12c-.9,1.43,2.53,1.58.94,3.21l-.74.27c.06.07.15.21.16.21.22-.13.43-.28.64-.42,1-.35,1.09,1.9,2.35.83.67,1.84,3.64.1,3.94,2.53l-10.32,0C51.2,170.9,51.23,168.72,51.27,166.54Z" transform="translate(-19.29 -15.34)"/><path class="cls-15" d="M61.48,173.05c-.3-2.43-3.27-.69-3.94-2.53-1.26,1.07-1.35-1.18-2.35-.83l-.06-.06c1.59-1.63-1.84-1.78-.94-3.21,1.51-.2,2.8-.3,2.87-2.53s2-.82,3.14-1c-1,3-1,5.51,2.7,6.83,1.13.41,2.85,1,2.79,2.87-.76,1.15-2.21-1.84-2.77.47Z" transform="translate(-19.29 -15.34)"/><path class="cls-14" d="M62.92,173.06c.56-2.31,2,.68,2.77-.47-.42.92-1.26.53-1.94.61Z" transform="translate(-19.29 -15.34)"/><path class="cls-6" d="M92.52,81.59c2.1.42.39,2.7,1.71,3.49.08.32.14.67.6.62l0,0a2.31,2.31,0,0,0,.14,2c3.35,7.42,2.88,15.27,2.71,23.1l-2.07-.65c-.2-1.1-1.18-1-1.93-1.3-.1-.36-.15-.94-.63-.77s.09.63,0,1c-.41,1.57-.82,3.13-1.24,4.69a3.93,3.93,0,0,1-3.31.35c-2-.37-4-.62-5.94-.93-1.51-.19-3-1-4.55-.6-1.55-1.33-1.71-2.91-1.4-4.92.62-4,1.88-7.93,2-12a2.38,2.38,0,0,0,1-2c.53-4.24,2.5-7.37,6.59-9C88.45,84.05,90.81,83.51,92.52,81.59Zm-6.2,20.67a7.12,7.12,0,0,0,.59-5.53C86.9,98.49,85.67,100.08,86.32,102.26ZM89.18,107a2.3,2.3,0,0,0-2.69-.64A2.3,2.3,0,0,0,89.18,107Zm1.84.81.47-.23c-.14-.08-.29-.23-.44-.24a1.32,1.32,0,0,0-.46.2Zm-5.12-3.91,0-.23-.29.06a.44.44,0,0,0,.08.2S85.84,103.89,85.9,103.88Z" transform="translate(-19.29 -15.34)"/><path class="cls-8" d="M86.1,84.59c-4.09,1.6-6.06,4.73-6.59,9a2.38,2.38,0,0,1-1,2c0-3.08,0-6.16-.09-9.24,0-1.39.5-1.87,1.85-1.81C82.24,84.6,84.17,84.57,86.1,84.59Z" transform="translate(-19.29 -15.34)"/><path class="cls-8" d="M136.13,90.61l1.3,1c0,.48.1,1.16-.51,1.17-3.94,0-7.9.38-11.83-.22-.33-.06-.62-.39-1.34-.86,3.61,0,6.77,0,9.93,0,.75,0,2.2.69,1.86-1.18Z" transform="translate(-19.29 -15.34)"/><path class="cls-16" d="M136.13,90.61l-.59-.11c-2.81-.9-4.64-3.64-8.31-3.92,2.4-1.36,4.08-1.12,5.8.06,1,.65,1.89,1.76,3.3.89C136.26,88.55,136.19,89.58,136.13,90.61Z" transform="translate(-19.29 -15.34)"/><path class="cls-14" d="M126.56,84.42c-2.27.9-4.54.56-6.83.23C122,83.54,124.26,83.94,126.56,84.42Z" transform="translate(-19.29 -15.34)"/><path class="cls-15" d="M115.84,104.92c-1-2.87,1.35-1.32,2.22-1.74a.61.61,0,0,1,.25.44,3.34,3.34,0,0,1-2.49,1.29Z" transform="translate(-19.29 -15.34)"/><path class="cls-13" d="M97.65,110.74c.17-7.83.64-15.68-2.71-23.1a2.31,2.31,0,0,1-.14-2c2.71.79,5.42,1.39,8.15,0q1.83,12.51,3.68,25a7.81,7.81,0,0,0-5.65,0C99.86,111.19,98.75,111.5,97.65,110.74Z" transform="translate(-19.29 -15.34)"/><path class="cls-16" d="M97.65,110.74c1.1.76,2.21.45,3.33.05a7.81,7.81,0,0,1,5.65,0c2.48.25,3.67,2,4.61,4H93.7c1.47-1.22,1.28-3.11,1.88-4.68Z" transform="translate(-19.29 -15.34)"/><path class="cls-15" d="M110.82,97.31c1.75,3.6,1.59,7.33,1.32,11.07C111.39,104.71,110.53,101.05,110.82,97.31Z" transform="translate(-19.29 -15.34)"/><path class="cls-14" d="M114.13,110.9c-.31,1.11.3,2.43-.76,3.38a2.79,2.79,0,0,0-.31-2.34C112.25,110.54,113.35,110.82,114.13,110.9Z" transform="translate(-19.29 -15.34)"/><path class="cls-15" d="M115.82,104.91l-.19.78c-.56-.43,0-.55.21-.77Z" transform="translate(-19.29 -15.34)"/><path class="cls-13" d="M95.58,110.09c-.6,1.57-.41,3.46-1.88,4.68H92.13l-.32-1.1c.42-1.56.83-3.12,1.24-4.69l.6-.2C94.4,109.07,95.38,109,95.58,110.09Z" transform="translate(-19.29 -15.34)"/><path class="cls-15" d="M91.81,113.68l.32,1.1-9.48-.08-.09-1.6c2,.31,4,.56,5.94.93A3.93,3.93,0,0,0,91.81,113.68Z" transform="translate(-19.29 -15.34)"/><path class="cls-13" d="M94.83,85.7c-.46,0-.52-.3-.6-.62Z" transform="translate(-19.29 -15.34)"/><path class="cls-15" d="M55.19,169.69c-.21.14-.42.29-.64.42,0,0-.1-.14-.16-.21l.74-.27Z" transform="translate(-19.29 -15.34)"/><path class="cls-15" d="M86.32,102.26c-.65-2.18.58-3.77.59-5.53A7.12,7.12,0,0,1,86.32,102.26Z" transform="translate(-19.29 -15.34)"/><path class="cls-15" d="M89.18,107a2.3,2.3,0,0,1-2.69-.64A2.3,2.3,0,0,1,89.18,107Z" transform="translate(-19.29 -15.34)"/><path class="cls-15" d="M93.65,108.79l-.6.2c.06-.34-.59-.77,0-1S93.55,108.43,93.65,108.79Z" transform="translate(-19.29 -15.34)"/><path class="cls-15" d="M91,107.79l-.43-.27a1.32,1.32,0,0,1,.46-.2c.15,0,.3.16.44.24Z" transform="translate(-19.29 -15.34)"/><path class="cls-15" d="M85.9,103.88c-.06,0-.15.05-.17,0a.44.44,0,0,1-.08-.2l.29-.06Z" transform="translate(-19.29 -15.34)"/></svg>