<svg id="Capa_1" data-name="Capa 1" xmlns="http://www.w3.org/2000/svg" viewBox="0 0 182.77 175.28"><defs><style>.cls-1{fill:#fefefe;}.cls-2{fill:#f9d082;}.cls-3{fill:#f3d4ba;}.cls-4{fill:#6385a5;}.cls-5{fill:#4a769e;}.cls-6{fill:#4c769a;}.cls-7{fill:#585859;}.cls-8{fill:#4d4f50;}.cls-9{fill:#abcbe9;}.cls-10{fill:#a0c8e9;}.cls-11{fill:#fcfcfc;}.cls-12{fill:#ef8c8a;}.cls-13{fill:#94bee4;}.cls-14{fill:#f1908e;}.cls-15{fill:#ee7f62;}.cls-16{fill:#26a9e0;}</style></defs><title>card-3</title><path class="cls-1" d="M7.39,157.08c0-1-.08-2.08-1.14-1.83-1.31.32-3.51.14-3.5,1.91,0,1.59,2.08,1.13,3.27,1.42S7.45,157.93,7.39,157.08Z" transform="translate(-2.75 -2.04)"/><path class="cls-2" d="M171.72,176a10.23,10.23,0,0,1-4,.51l-.57-.94c-.45-4.62-2.44-8.75-4.18-12.94-.58-1.39-.63-3.07-1.93-4.14a9.29,9.29,0,0,0-1.35-4.24l-.34-1.17v0l-.88-2.37c-.76-2.14-1.16-4.38-1.85-6.52-.52-1.62-.58-3.57-2.18-4.73a.55.55,0,0,0-.11-.41,85.19,85.19,0,0,0-4.87-13c-1.06-4.23-2.54-8.33-4-12.45-.79-2.41-1-5.07-3.16-6.87.44-1.43-.47-2.55-.95-3.72-2.5-6-3.58-12.53-6.62-18.34,0-.65,0-1.28-.86-1.36h0c-.15-.89.34-1.89-.47-2.66a14.19,14.19,0,0,0-.31-1.47c-1.26-4-1.27-4,3-3.83.31,1.13.54,2.28.94,3.38,2,5.51,3.67,11.13,5.82,16.59.84,2.13,1.8,2.56,3.69,2.1a20,20,0,0,0,9.56.1c3.44.13,3.84-.28,2.41-3.06a31,31,0,0,1-1.65-5.2c-.59-1.88-.76-4.06-2.4-5.53.14-2.88-.79-5.63-1-8.46a2.55,2.55,0,0,1,3.24,2.41c.62,4,2.6,7.63,3.9,11.44,1.24,3.6,2.3,7.3,4.28,10.61.17.86.29,1.74.52,2.58A125,125,0,0,0,170,115.73c1.43,3.52,2.25,7.3,4.4,10.52.93,3.48,1.61,7,3.15,10.33.46,3.15,2.32,5.78,3.17,8.8.52,1.85.87,3.85,2.32,5.33.45,1.81,0,4.09,2.53,4.81v13.36c-.57-.39-.72-1.27-1.67-1.26-4.56,0-9.13,0-13.69,0-1,0-1.41.62-1.09,1.42C170,171.35,170.36,173.86,171.72,176Zm9.38-17.4c-.42-1.4.25-3.45-2.19-3.62q-6.6,0-13.19-.07c-.46,0-1.1-.18-1.15.63.49,1.1.26,2.59,1.71,3.17.22,1-.26,2.11.43,3.05.3,3.53.3,3.53,3.79,3.53,3.16,0,6.33.05,9.49,0,1.21,0,2.94.65,3.5-.44.66-1.31-.54-2.72-1.28-4a.75.75,0,0,0-.15-.16C182,159.89,182,159,181.1,158.59Zm-18.28-51.66c0-1.21-.72-2.23-1-3.35-.48-1.9-1.5-2.53-3.46-2.43-3.46.18-6.93,0-10.39,0-2.94,0-2.93,0-1.81,2.81.4,1,.74,2.07,1.11,3.11a7.91,7.91,0,0,1,.28,1.5c0,2.61,1.48,3,3.74,2.9,3.08-.17,6.17,0,9.26-.06,1.28,0,3.13.68,3.73-.42C165,109.63,163.64,108.21,162.82,106.93Zm-5.8,7.31c-1.83,0-3.67,0-5.51-.08-1.15,0-1.72.07-1.36,1.6a38.43,38.43,0,0,0,1.9,5.37c1.35,3.34,1.34,3.35,5,3.22,3.35.81,6.74.26,10.12.37,1.91.06,2.4-.78,1.42-2.5a19,19,0,0,1-2.17-6.45c-.18-1.19-.68-1.68-1.86-1.65C162,114.19,159.53,114.21,157,114.24Zm0,19.53a27.38,27.38,0,0,0,.32,2.87c.18.81.58,1.52,1.63,1.52h13.79c.82,0,1.39-.3,1.07-1.18-.59-1.64-.79-3.48-2.16-4.77l0,0c.36-1.34-.77-2.25-1-3.42s-1.2-.89-2-.89c-2.87,0-5.74-.08-8.6,0-1.72.06-4.32-.85-5,.46C154.38,130,156.12,132,157,133.77Zm6,16.93a.67.67,0,0,0,.72.67c4.65,0,9.29,0,13.94,0,.36,0,1,0,.72-.7-.49-3.22-2.38-6-2.79-9.27-.06-.54-.66-.51-1.1-.51H160.69c-.82,0-1.62.24-1.21,1.3C160.6,145,161,148.22,163,150.7Z" transform="translate(-2.75 -2.04)"/><path class="cls-3" d="M172.13,176c2.59-.84,5.25-.29,7.88-.42,1.83-.09,3.67,0,5.51,0v1.33l-11.07,0C173.57,176.87,172.65,177,172.13,176Z" transform="translate(-2.75 -2.04)"/><path class="cls-4" d="M185.52,155.52c-2.52-.72-2.08-3-2.53-4.81l2.53-.08Z" transform="translate(-2.75 -2.04)"/><path class="cls-5" d="M149.44,126.11a85.19,85.19,0,0,1,4.87,13l-.4.34-.9,0c-.48-.48-1.1-.36-1.68-.36h-30c-.59,0-1.21-.11-1.68.39h-.06l-.47,0-37.65,0-1-.08c-.63-.57-1.41-.35-2.13-.35H30.06c-.72,0-1.5-.22-2.14.33l-.88-.06c-.22-.88-.89-.72-1.51-.65-.45-.06-.92-.06-1.17-.55a.81.81,0,0,0-1-.83,1.52,1.52,0,0,1-.94-1.1.57.57,0,0,0-.44-.63l.12,0-.12.05a.7.7,0,0,0-.41-.94l0,0c0-.67,0-1.33,0-2q0-44.07,0-88.14c0-3.38-.4-6.81.92-10.07v0L23,34c.86-1.29,2.26-1.66,3.58-2.17.68.67,1.54.39,2.32.39q12.95,0,25.9,0c-.69,1.24-.5,2.82-1.54,3.92l-17.76,0c-2.39-.77-4.86-.12-7.27-.4-2.14-.25-2.57.67-2.57,2.64.07,17.86,0,35.72,0,53.57q0,16.13,0,32.23c0,1.06-.16,2.08,1.5,2.06,5.48-.1,11-.1,16.44-.14l31.88,0a50.13,50.13,0,0,0,8.4,0l32.34,0a52.38,52.38,0,0,0,8.31.06Z" transform="translate(-2.75 -2.04)"/><path class="cls-6" d="M159.32,153.07c.11.39.23.78.34,1.17a2.58,2.58,0,0,1-2.38.82q-74.5,0-149,0c.3-3.15,1.63-4.26,5.25-4.26l48.74-.08c4.23,0,8.46-.06,12.68-.1l50.29,0c.66.05,1.32.13,2,.13q15.62,0,31.24,0l.88,2.37Z" transform="translate(-2.75 -2.04)"/><path class="cls-5" d="M177.5,136.58c-1.54-3.29-2.22-6.85-3.15-10.33l.69-.15c1.05-.44.67-1.39.67-2.13q0-42.77,0-85.53c0-.76.37-1.67-.57-2.21a30.91,30.91,0,0,0-10.29-.15l-24.3.11a18.43,18.43,0,0,1-2.23-4.58h10.32l-.07.1c.48.67,1.19.47,1.83.48q10.62,0,21.24,0c.64,0,1.35.18,1.86-.43a7.73,7.73,0,0,1,6,7.3c.07,2.15,0,4.3,0,6.45q0,42.27,0,84.53C179.5,132.42,179.53,134.82,177.5,136.58Z" transform="translate(-2.75 -2.04)"/><path class="cls-7" d="M8.26,155q74.51,0,149,0a2.58,2.58,0,0,0,2.38-.82,9.29,9.29,0,0,1,1.35,4.24l-127.16,0h-22C9.53,158.51,8.56,157.55,8.26,155Z" transform="translate(-2.75 -2.04)"/><path class="cls-8" d="M125.22,150.56l-50.29,0c2.52-3.5,4.25-7.46,6.5-11.11l37.65,0,.38.43C120.84,143.77,123.19,147.08,125.22,150.56Z" transform="translate(-2.75 -2.04)"/><path class="cls-5" d="M129,31.77l4.9-.14c.51,1.41,1,2.81,1.54,4.21A16.56,16.56,0,0,1,129,36l-.12-1.25h-.29L128.48,36c-3.4,0-6.81.12-10.21.12q-24.22,0-48.46-.07c-.1-.36.06-1-.48-1s-.41.57-.5.93l-10.19.17c-.2-1.7,1.08-3,1.33-4.56l.44.11c.57.69,1.37.44,2.08.44,3.09,0,6.19,0,9.29,0q27.33,0,54.66,0C127.29,32.18,128.23,32.51,129,31.77Z" transform="translate(-2.75 -2.04)"/><path class="cls-9" d="M60,31.63c-.25,1.58-1.53,2.86-1.33,4.56a4.09,4.09,0,0,0-1.81,3.18,12.44,12.44,0,0,1-4-.55,6.56,6.56,0,0,0,.41-2.67c1-1.1.85-2.68,1.54-3.91,0-1-.83-.54-1.26-.55-2.32-.08-4.65-.07-7-.1-.05-.13-.05-.35-.14-.4-4.9-2.73-6.19-5.52-4.05-10.66,1.3-3.12,3-6.23,5.86-8.38a3.89,3.89,0,0,1,1-.36c.35,1.36,1.45,1.61,2.62,1.72,2.7,1.12,5.13,1.27,7.15-1.43a4.11,4.11,0,0,1,3.18-1.76c.17.33.34.65.5,1-2.06,3.52-5.38,4.94-9.39,5.38.66,1.74,1.32,2.7,3.38,2.28,1.75-.36,3.65,0,5.48,0l0,1.57c-3.14.65-6.26,1.2-9.16-.87-1.09-.78-1.94-.69-2,1s-.26,3.23-.44,4.85c-.14,1.32.34,1.9,1.74,1.81a16.31,16.31,0,0,1,5.06.45C60.29,28.5,60.42,28.64,60,31.63Z" transform="translate(-2.75 -2.04)"/><path class="cls-9" d="M135.41,35.84c-.51-1.4-1-2.8-1.54-4.21,0-4,.39-3.12,5.32-3.84,2.71-.4,2.83-.34,2.73-3,0-1.26-.34-1.59-1.56-1-1.75.89-3.37,2.17-5.5,2.05,0-.4-.05-.8-.08-1.2,1.21-1.55,3.07-1.92,4.76-2.55.74-.28,1.87-.27,1.37-1.42-.4-.92-1.15-.06-1.66.17-2.51,1.13-5,.67-7.54.11V19.35c1.56,0,3.12-.07,4.67-.05,3.43,0,5.54-1.8,6.05-5.33a2.16,2.16,0,0,0,2.22-1.74c1.08-.25,1.7.5,2.19,1.19,1.89,2.71,4.13,5.23,5.17,8.44,1.11,3.45,1.17,6.91-3.16,9.16-.13.07-.14.38-.21.59H138.32a18.43,18.43,0,0,0,2.23,4.58c.28,1.11.85,2.27-.45,3.16-.88.13-1.72.63-2.66.43Z" transform="translate(-2.75 -2.04)"/><path class="cls-4" d="M22.58,34.45c-1.32,3.26-.91,6.69-.92,10.07q0,44.07,0,88.14c0,.67,0,1.33,0,2a6.11,6.11,0,0,1-.94-4q0-45.46,0-90.95A7.21,7.21,0,0,1,22.58,34.45Z" transform="translate(-2.75 -2.04)"/><path class="cls-9" d="M135.57,8.7c-.28-.09-.78-.14-.8-.26-.19-1.38,2.18-4.71,3.83-5.52,2.07-1,3.84-.25,5.56.89A1.28,1.28,0,0,1,144.59,5c-2.85,1.28-6,1.86-8.65,3.61A1.18,1.18,0,0,0,135.57,8.7Z" transform="translate(-2.75 -2.04)"/><path class="cls-3" d="M135.57,8.7a1.18,1.18,0,0,1,.37-.09,4.42,4.42,0,0,0,4.24-.2c1.67-.92,2.55-.94,2.59,1.28,0,.76.79,1,1.36,1.29.18.42.35.83.52,1.25A2.16,2.16,0,0,1,142.43,14a1.76,1.76,0,0,0-1.61-1C138,12.86,136.47,11.17,135.57,8.7Z" transform="translate(-2.75 -2.04)"/><path class="cls-6" d="M129,31.77c-.74.74-1.68.41-2.53.41q-27.33,0-54.66,0c-3.1,0-6.2,0-9.29,0-.71,0-1.51.25-2.08-.44,5.25,0,10.5-.08,15.75-.09h50.16C127.2,31.65,128.09,31.73,129,31.77Z" transform="translate(-2.75 -2.04)"/><path class="cls-3" d="M51.86,13.51c-1.17-.11-2.27-.36-2.62-1.72l.48-1.18c.91-.45,1.88-.74,1.81-2.16-.05-1,.51-1.51,1.57-.75A6,6,0,0,0,58,8.38c-.35,2.4-1.6,3.59-4.51,4.16C52.82,12.67,52,12.47,51.86,13.51Z" transform="translate(-2.75 -2.04)"/><path class="cls-7" d="M58,8.38A6,6,0,0,1,53.1,7.7c-1.06-.76-1.62-.26-1.57.75.07,1.42-.9,1.71-1.81,2.16-2-1.16-2.11-3-.5-5.84a68.65,68.65,0,0,1,9,3.33A.53.53,0,0,0,58,8.38Z" transform="translate(-2.75 -2.04)"/><path class="cls-7" d="M144.13,11c-.57-.31-1.35-.53-1.36-1.29,0-2.22-.92-2.2-2.59-1.28a4.42,4.42,0,0,1-4.24.2c2.66-1.75,5.8-2.33,8.65-3.61a4.86,4.86,0,0,1,1.27,4.29C145.68,10.19,145.26,11,144.13,11Z" transform="translate(-2.75 -2.04)"/><path class="cls-4" d="M27.92,139.39c.64-.55,1.42-.33,2.14-.33H78.3c.72,0,1.5-.22,2.13.35q-17.91,0-35.83.08C39,139.5,33.48,139.43,27.92,139.39Z" transform="translate(-2.75 -2.04)"/><path class="cls-10" d="M58.2,8.1a68.65,68.65,0,0,0-9-3.33c0-.6.24-1,.9-1.1,3-.4,5.81-.14,7.83,2.54.1.14.41.11.62.17C58,6.86,60.47,8,58.2,8.1Z" transform="translate(-2.75 -2.04)"/><path class="cls-3" d="M7.39,157.08c.06.85-.1,1.8-1.37,1.5s-3.27.17-3.27-1.42c0-1.77,2.19-1.59,3.5-1.91C7.31,155,7.39,156.1,7.39,157.08Z" transform="translate(-2.75 -2.04)"/><path class="cls-6" d="M46.56,31.59c2.33,0,4.66,0,7,.1.43,0,1.22-.48,1.26.55q-12.94,0-25.9-.06c-.78,0-1.64.28-2.32-.39Z" transform="translate(-2.75 -2.04)"/><path class="cls-9" d="M58.57,6.38c-.21-.06-.52,0-.62-.17-2-2.68-4.82-2.94-7.83-2.54a3.27,3.27,0,0,1,3.75-1.54C56.2,2.57,58.12,3.73,58.57,6.38Z" transform="translate(-2.75 -2.04)"/><path class="cls-6" d="M173.5,31.76c-.51.61-1.22.43-1.86.43q-10.62,0-21.24,0c-.64,0-1.35.19-1.83-.48Z" transform="translate(-2.75 -2.04)"/><path class="cls-11" d="M167.12,175.56l.57.94c-2.57,1.78-5.06.18-7.61-.13C162.47,176.29,164.75,175.53,167.12,175.56Z" transform="translate(-2.75 -2.04)"/><path class="cls-3" d="M62.19,20.54l0-1.57c2.83-.2,4,.49,4.5,2.94C65.54,20.05,63.52,21.6,62.19,20.54Z" transform="translate(-2.75 -2.04)"/><path class="cls-3" d="M131.71,19.35V21c-.2.1-.38.22-.58.3a2,2,0,0,1-2.25-.2.84.84,0,0,1-.1-1.19,1.82,1.82,0,0,1,2.3-.67A3.22,3.22,0,0,0,131.71,19.35Z" transform="translate(-2.75 -2.04)"/><path class="cls-3" d="M134.78,24.65c0,.4.05.8.08,1.2a2.25,2.25,0,0,1-2.7,1.34.59.59,0,0,1-.39-.87A2.69,2.69,0,0,1,134.78,24.65Z" transform="translate(-2.75 -2.04)"/><path class="cls-3" d="M62.69,11.3c-.16-.33-.33-.65-.5-1a9.3,9.3,0,0,1,.7-.83c.58-.54,1.27-1.38,2-.46.84,1.1-.58,1.2-1.06,1.67A4.06,4.06,0,0,1,62.69,11.3Z" transform="translate(-2.75 -2.04)"/><path class="cls-4" d="M25.53,138.68c.62-.07,1.29-.23,1.51.65A1.75,1.75,0,0,1,25.53,138.68Z" transform="translate(-2.75 -2.04)"/><path class="cls-4" d="M23.38,137.3a.81.81,0,0,1,1,.83A1.19,1.19,0,0,1,23.38,137.3Z" transform="translate(-2.75 -2.04)"/><path class="cls-4" d="M21.59,134.64a.7.7,0,0,1,.41.94A.92.92,0,0,1,21.59,134.64Z" transform="translate(-2.75 -2.04)"/><path class="cls-4" d="M22,135.57a.57.57,0,0,1,.44.63Z" transform="translate(-2.75 -2.04)"/><path class="cls-4" d="M23,34l-.41.47Z" transform="translate(-2.75 -2.04)"/><path class="cls-12" d="M141,106.66c-32.22.71-64.44.11-96.67.31-.59,0-1.17-.08-1.76-.12.13-1.23-.39-1.76-1.65-1.65a13.67,13.67,0,0,1-2.86,0c-1.55-.23-1.45.66-1.3,1.67-1,.24-1.29-.08-1.29-1.12.05-9.82,0-19.64.06-29.46,1.17,0,2.2-.08,2.14-1.64.66,0,1.33-.1,2-.1h87.73c.66,0,1.33.07,2,.1.05.27.11.57.45.57s.39-.3.44-.57h1.84a3.43,3.43,0,0,0,3,0h.94v.79c-4.24-.21-4.23-.21-3,3.82a14.19,14.19,0,0,1,.31,1.47c-.72,0-1.68,0-1.6,1a1.69,1.69,0,0,0,2.07,1.69h0c0,.65,0,1.3.86,1.36,3,5.81,4.12,12.33,6.62,18.34.48,1.17,1.39,2.29.95,3.72l-.89-.12c-.11-.58.31-1.3-.47-1.71C140.19,105.59,140.93,106.11,141,106.66ZM42.16,87.47a3.16,3.16,0,0,0-2.08,2.29c-.47,1.33.62,2.14,1.43,3a.82.82,0,1,0,1.27-1,2.13,2.13,0,0,1,0-3C43.15,88.17,43.09,87.62,42.16,87.47Z" transform="translate(-2.75 -2.04)"/><path class="cls-13" d="M124.56,126.15c0-3.54,0-7.09,0-10.63,0-1.48.49-1.88,1.91-1.87,6.35.06,12.7,0,19,0,1.42,4.12,2.9,8.22,4,12.45Z" transform="translate(-2.75 -2.04)"/><path class="cls-10" d="M133.8,65.85c.1-1.81,1.44-1.62,2.59-1.52,2.87.25,5.31-.14,7-2.92a7.42,7.42,0,0,0,.75-2.86,3.68,3.68,0,0,0,2.6-1.43c1.42.13,1.74,1.51,2.47,2.34A19.93,19.93,0,0,1,154.06,68c.52,2.27-.47,4.33-.61,6.5v.84c.22,2.83,1.15,5.58,1,8.46a12.09,12.09,0,0,0,.19,3.06c.33,2.91,1.87,5.62,1.46,8.65-2.51-.27-5.13.53-7.5-.89,1.22-6.72-.31-13.43-.1-20.14a38.09,38.09,0,0,0-2.34-8c-.45-1-.77-1.73-1.64-.35-1.21,1.89-3.36,2.58-5.12,3.61-1.29.75-3.24,0-4.66-1,1.13-1.11,2.91-1,4.26-2.27a24.41,24.41,0,0,1-2.6,0C135.52,66.28,134.66,66,133.8,65.85Zm8.44-.35a1.44,1.44,0,0,0-2,.53.47.47,0,0,0,.23.73C141.34,67,141.82,66.43,142.24,65.5Z" transform="translate(-2.75 -2.04)"/><path class="cls-14" d="M148.5,74.48c-.21,6.71,1.32,13.42.1,20.14-1.19.6-2.13,1.37-2.06,2.87-1.89.46-2.85,0-3.69-2.1C140.7,89.93,139,84.31,137,78.8c-.4-1.1-.63-2.25-.94-3.38v-.78Z" transform="translate(-2.75 -2.04)"/><path class="cls-14" d="M153.45,75.34V74.5c3.25,0,6.51,0,9.77,0,1.1,0,1.8.14,1.78,1.54-.08,7.91-.09,15.83-.13,23.75-2-3.31-3-7-4.28-10.61-1.3-3.81-3.28-7.4-3.9-11.44A2.55,2.55,0,0,0,153.45,75.34Z" transform="translate(-2.75 -2.04)"/><path class="cls-6" d="M171.64,132.21c1.37,1.29,1.57,3.13,2.16,4.77.32.88-.25,1.18-1.07,1.18H158.94c-1.05,0-1.45-.71-1.63-1.52a27.38,27.38,0,0,1-.32-2.87c0-1.42-.63-2.69-.88-4.05a34.24,34.24,0,0,1,13.23.09c1.26.3.95-.38,1-1h.32c.2,1.17,1.33,2.08,1,3.42-.64-.59-1.36-1.13-2-.12a1,1,0,0,0,.68,1.53C171.5,133.9,171.74,133.16,171.64,132.21Zm-7.12.46a1.16,1.16,0,0,0-1.33-1.13,1.08,1.08,0,0,0-1.19,1.22,1.11,1.11,0,0,0,1.26,1.17A1.32,1.32,0,0,0,164.52,132.67Zm3.28.08c0-.66-.19-1.22-1-1.18-.62,0-.85.53-.88,1.06s.15,1.26.85,1.29S167.73,133.35,167.8,132.75Z" transform="translate(-2.75 -2.04)"/><path class="cls-14" d="M147.27,107.12c-.37-1-.71-2.09-1.11-3.11C145,101.19,145,101.2,148,101.2c3.46,0,6.93.13,10.39,0,2-.1,3,.53,3.46,2.43.28,1.12,1,2.14,1,3.35Z" transform="translate(-2.75 -2.04)"/><path class="cls-13" d="M157,114.24c0,3.37,0,6.74,0,10.11-3.65.13-3.64.12-5-3.22a38.43,38.43,0,0,1-1.9-5.37c-.36-1.53.21-1.63,1.36-1.6C153.35,114.21,155.19,114.22,157,114.24Z" transform="translate(-2.75 -2.04)"/><path class="cls-7" d="M178.91,155c2.44.17,1.77,2.22,2.19,3.62l-14.82.11c-1.45-.58-1.22-2.07-1.71-3.17,4,0,8.08,0,12.12,0C177.46,155.52,178.34,155.81,178.91,155Z" transform="translate(-2.75 -2.04)"/><path class="cls-3" d="M166.28,158.7l14.82-.11c.92.43.87,1.3,1,2.1-3.77.28-7.48,1.2-11.3,1.08-1.35-.05-2.7-1-4,0C166,160.81,166.5,159.71,166.28,158.7Z" transform="translate(-2.75 -2.04)"/><path class="cls-4" d="M146.54,97.49c-.07-1.5.87-2.27,2.06-2.87,2.37,1.42,5,.62,7.5.88v2.09A20,20,0,0,1,146.54,97.49Z" transform="translate(-2.75 -2.04)"/><path class="cls-14" d="M156.1,97.59V95.5c.41-3-1.13-5.73-1.46-8.64a12.09,12.09,0,0,1-.19-3.06c1.65,1.47,1.82,3.65,2.41,5.53a31,31,0,0,0,1.65,5.2C159.94,97.31,159.54,97.72,156.1,97.59Z" transform="translate(-2.75 -2.04)"/><path class="cls-4" d="M156.11,129.72c.25,1.36.9,2.63.88,4.05-.87-1.75-2.61-3.74-1.82-5.35.64-1.31,3.24-.4,5-.46,2.86-.09,5.73,0,8.6,0,.77,0,1.7-.26,2,.89h-.32c-4.36,0-8.72-.05-13.08,0C156.82,128.82,155.63,128.29,156.11,129.72Z" transform="translate(-2.75 -2.04)"/><path class="cls-4" d="M163,150.7l15.39,0c.25.74-.37.7-.73.7-4.65,0-9.29,0-13.94,0A.67.67,0,0,1,163,150.7Z" transform="translate(-2.75 -2.04)"/><path class="cls-8" d="M178.91,155c-.57.84-1.45.55-2.22.55-4,0-8.08,0-12.12,0,.05-.81.69-.63,1.15-.63Q172.32,154.92,178.91,155Z" transform="translate(-2.75 -2.04)"/><path class="cls-14" d="M133.9,83.38a1.69,1.69,0,0,1-2.07-1.69c-.08-1,.88-.93,1.6-1C134.24,81.49,133.75,82.49,133.9,83.38Z" transform="translate(-2.75 -2.04)"/><path class="cls-11" d="M171.64,132.21c.1.95-.14,1.69-1.28,1.46a1,1,0,0,1-.68-1.53c.63-1,1.35-.47,2,.12Z" transform="translate(-2.75 -2.04)"/><path class="cls-14" d="M134.75,84.73c-.91-.06-.89-.71-.86-1.36C134.78,83.45,134.78,84.08,134.75,84.73Z" transform="translate(-2.75 -2.04)"/><path class="cls-4" d="M154.42,139.47l-.51-.07.4-.34A.55.55,0,0,1,154.42,139.47Z" transform="translate(-2.75 -2.04)"/><path class="cls-7" d="M159.32,153.07v0Z" transform="translate(-2.75 -2.04)"/><path class="cls-2" d="M43.63,126.14c0-3.55,0-7.11-.1-10.67,0-1.38.61-1.8,1.89-1.8q14.13,0,28.25,0c1.48,0,1.93.61,1.9,2-.07,3.48,0,7-.06,10.45Z" transform="translate(-2.75 -2.04)"/><path class="cls-13" d="M54.7,43.25a151.18,151.18,0,0,1-16.35.47c-2.11,0-3.32-.68-2.94-3.12a31,31,0,0,0,.09-4.42l17.76,0a6.56,6.56,0,0,1-.41,2.67C52.41,40.74,54.2,41.73,54.7,43.25Z" transform="translate(-2.75 -2.04)"/><path class="cls-12" d="M116.13,125.72a.94.94,0,0,1,.11.37l-32.33,0c0-3.55,0-7.1,0-10.65,0-1.28.3-1.85,1.72-1.84,9.69,0,19.38,0,29.07,0,.5,0,1.06-.13,1.39.44-9.71,0-19.43.07-29.14,0-2.12,0-2.69.65-2.55,2.64a47.9,47.9,0,0,1,0,6.67c-.12,1.86.53,2.38,2.37,2.37C96.55,125.67,106.34,125.72,116.13,125.72Z" transform="translate(-2.75 -2.04)"/><path class="cls-4" d="M153,139.42l-33.4,0c.47-.5,1.09-.39,1.68-.39h30C151.91,139.06,152.53,138.94,153,139.42Z" transform="translate(-2.75 -2.04)"/><path class="cls-4" d="M119.55,139.46l-.09.48-.38-.43Z" transform="translate(-2.75 -2.04)"/><path class="cls-13" d="M164.85,36.08c.05,2,.08,4,.14,6,0,1.09-.42,1.66-1.55,1.65-7.83,0-15.65,0-23.48-.06-.25,0-.51-.25-.76-.38.47-1,1.52-1.49,1.94-2.53s0-1.43-1-1.39c1.3-.89.73-2.05.45-3.16Z" transform="translate(-2.75 -2.04)"/><path class="cls-6" d="M175,126.1q0-17.23.08-34.48,0-27.69,0-55.39c.94.54.57,1.45.57,2.21q0,42.77,0,85.53C175.71,124.71,176.09,125.66,175,126.1Z" transform="translate(-2.75 -2.04)"/><path class="cls-13" d="M135.3,43.67l-74.79,0c-.65,0-1.35.18-1.9-.36.31-1.73-.91-2.77-1.78-4a4.09,4.09,0,0,1,1.81-3.18L68.83,36c.31.61.65.23,1,0q24.22,0,48.46.07c3.4,0,6.81-.08,10.21-.11H129a16.56,16.56,0,0,0,6.39-.18l2,3.94C136.2,40.79,135.1,41.87,135.3,43.67Z" transform="translate(-2.75 -2.04)"/><path class="cls-4" d="M69.81,36.06c-.33.19-.67.57-1,0,.09-.36-.08-1,.5-.93S69.71,35.7,69.81,36.06Z" transform="translate(-2.75 -2.04)"/><path class="cls-4" d="M129,36h-.54c0-.42.09-.83.13-1.25h.29Z" transform="translate(-2.75 -2.04)"/><path class="cls-4" d="M56.83,39.37c.87,1.2,2.09,2.24,1.78,4a14.23,14.23,0,0,1-3.91-.09c-.5-1.52-2.29-2.51-1.85-4.43A12.44,12.44,0,0,0,56.83,39.37Z" transform="translate(-2.75 -2.04)"/><path class="cls-4" d="M135.3,43.67c-.2-1.8.9-2.88,2.14-3.89.94.2,1.78-.3,2.66-.43s1.5.23,1,1.39-1.47,1.56-1.94,2.53C137.9,43.4,136.66,44.14,135.3,43.67Z" transform="translate(-2.75 -2.04)"/><path class="cls-15" d="M100.05,60.19c-9.19,0-18.39,0-27.58,0-1.78,0-2.34-.51-2.24-2.26a64.19,64.19,0,0,0,0-7.34c-.1-1.81.42-2.39,2.32-2.38,14.91.08,29.81.06,44.71.06,3.56,0,7.12.07,10.67,0,1.59,0,2.06.49,2,2a66.56,66.56,0,0,0,0,7.34c.12,2-.41,2.66-2.54,2.63C118.29,60.11,109.17,60.19,100.05,60.19Z" transform="translate(-2.75 -2.04)"/><path class="cls-15" d="M116.13,125.72c-9.79,0-19.58,0-29.37,0-1.84,0-2.49-.51-2.37-2.37a47.9,47.9,0,0,0,0-6.67c-.14-2,.43-2.67,2.55-2.64,9.71.11,19.43,0,29.14,0C116.1,118,116.11,121.85,116.13,125.72Z" transform="translate(-2.75 -2.04)"/><path class="cls-16" d="M133.8,65.85c.86.19,1.72.43,2.6.54a24.41,24.41,0,0,0,2.6,0c-1.35,1.32-3.13,1.16-4.26,2.27-4.18,1.73-8.57,1-12.86,1-19.64.08-39.27,0-58.91,0-.74,0-1.89.47-2.14-.51a7.11,7.11,0,0,1,0-3.49c.2-.81,1.3-.42,2-.42q16,0,32,0h32.9c1,0,1.92.07,2.88.11.16.31.34.56.74.37A4.67,4.67,0,0,0,133.8,65.85Z" transform="translate(-2.75 -2.04)"/><path class="cls-9" d="M137.32,53.26c-.13-.07-.35-.12-.37-.22-.34-1.66,1.76-4.85,3.52-5.4,2.65-.83,5.3.19,6.26,2.42a36.22,36.22,0,0,0-9,3.08A2.64,2.64,0,0,0,137.32,53.26Z" transform="translate(-2.75 -2.04)"/><path class="cls-3" d="M137.32,53.26a2.64,2.64,0,0,1,.4-.12c1.72,1.17,3.4.36,4.93-.33,1.32-.6,1.86-.27,1.78,1a2.34,2.34,0,0,0,1.47,2.42,1.46,1.46,0,0,0,.88.89,3.68,3.68,0,0,1-2.6,1.43c-.12-.86-.71-.94-1.44-1C139.06,57.25,138.41,56.71,137.32,53.26Z" transform="translate(-2.75 -2.04)"/><path class="cls-8" d="M145.9,56.23a2.34,2.34,0,0,1-1.47-2.42c.08-1.27-.46-1.6-1.78-1-1.53.69-3.21,1.5-4.93.33a36.22,36.22,0,0,1,9-3.08c1.15,1.47.51,3.22.66,4.84C147.46,55.67,146.72,56.14,145.9,56.23Z" transform="translate(-2.75 -2.04)"/><path class="cls-14" d="M36.8,106.86c-.15-1-.25-1.9,1.3-1.67a13.67,13.67,0,0,0,2.86,0c1.26-.11,1.78.42,1.65,1.65A25.66,25.66,0,0,1,36.8,106.86Z" transform="translate(-2.75 -2.04)"/><path class="cls-14" d="M37.71,74.64c.06,1.56-1,1.69-2.14,1.64C35.11,74.2,36.45,74.46,37.71,74.64Z" transform="translate(-2.75 -2.04)"/><path class="cls-14" d="M135.15,74.64a3.43,3.43,0,0,1-3,0Z" transform="translate(-2.75 -2.04)"/><path class="cls-14" d="M141,106.66c-.11-.55-.85-1.07-.08-1.7.78.41.36,1.13.47,1.71l-.19,0Z" transform="translate(-2.75 -2.04)"/><path class="cls-14" d="M130.31,74.64c-.05.27-.11.57-.44.57s-.4-.3-.45-.57Z" transform="translate(-2.75 -2.04)"/><path class="cls-10" d="M131.34,65.72c-.4.19-.58-.06-.74-.37C131,65.24,131.17,65.45,131.34,65.72Z" transform="translate(-2.75 -2.04)"/><path class="cls-11" d="M42.16,87.47c.93.15,1,.7.59,1.27a2.13,2.13,0,0,0,0,3,.82.82,0,1,1-1.27,1c-.81-.82-1.9-1.63-1.43-3A3.16,3.16,0,0,1,42.16,87.47Z" transform="translate(-2.75 -2.04)"/><path class="cls-11" d="M142.24,65.5c-.42.93-.9,1.46-1.78,1.26a.47.47,0,0,1-.23-.73A1.44,1.44,0,0,1,142.24,65.5Z" transform="translate(-2.75 -2.04)"/><path class="cls-5" d="M156.11,129.72c-.48-1.43.71-.9,1.19-.91,4.36,0,8.72,0,13.08,0-.09.6.22,1.28-1,1A34.24,34.24,0,0,0,156.11,129.72Z" transform="translate(-2.75 -2.04)"/><path class="cls-9" d="M164.52,132.67a1.32,1.32,0,0,1-1.26,1.26,1.11,1.11,0,0,1-1.26-1.17,1.08,1.08,0,0,1,1.19-1.22A1.16,1.16,0,0,1,164.52,132.67Z" transform="translate(-2.75 -2.04)"/><path class="cls-9" d="M167.8,132.75c-.07.6-.3,1.21-1,1.17s-.89-.68-.85-1.29.26-1,.88-1.06C167.61,131.53,167.78,132.09,167.8,132.75Z" transform="translate(-2.75 -2.04)"/></svg>