<svg id="Capa_1" data-name="Capa 1" xmlns="http://www.w3.org/2000/svg" viewBox="0 0 268.31 160.92"><defs><style>.cls-1{fill:#fefefe;}.cls-2{fill:#e2e9ed;}.cls-3{fill:#deedf1;}.cls-4{fill:#f15d3a;}.cls-5{fill:#d7e8ef;}.cls-6{fill:#abd0df;}.cls-7{fill:#bdddee;}.cls-8{fill:#e4f2f8;}.cls-9{fill:#cee8f3;}.cls-10{fill:#9bcde3;}.cls-11{fill:#4a6c90;}.cls-12{fill:#60d6d7;}.cls-13{fill:#3a5376;}.cls-14{fill:#21c6cd;}.cls-15{fill:#c7d0d9;}.cls-16{fill:#fbfcfc;}</style></defs><title>card-1</title><path class="cls-1" d="M199.11,65.35H215l0-1H185.88l0,1Zm-2.64-5.41H185c3.64,1.36,7.57.08,11,2.23l.66-1.11h19.24l0-1.12Zm-62.39,67.82c-.11,1.78-.22,3.57-.32,5.35-11.14,0-22.29-.2-33.42.11-4.65.14-5.72-1.53-5.7-5.9.17-28.07.22-56.15,0-84.21,0-4.77,1.49-5.57,5.79-5.54,25,.19,49.91.11,74.86,0,1.51,0,3.42.81,4.74-1-1.38-1.12-2.77-.58-4.05-.74,0-.25,0-.5,0-.74l46.37,0c0,.26,0,.51,0,.76-1.35,1.17-.86,2.75-.86,4.17,0,9.61,0,19.22,0,28.83.26,2.22-1.07,4.91,1.9,6.31-1.71,6.8-1.71,6.8-8.66,6-.73-.08-1.47,0-2.2,0-2.41-3.45-5.75-.2-8.53-1.12-.15,0-.85.84-.86,1.29,0,.64.66.89,1.29.9l8,.08,9.1,4.29c0,13.5,0,27,0,40.5,0,2,.23,4-1.09,6-1.58,2.37.3,2.76,2.17,2.62,2.17-.16,2.41-1.75,2.47-3.52.13-4.44-.44-8.91.52-13.31l4.76,5.67c.3,4.88.59,9.75.91,14.63.07.94-.31,2.34,1.31,2.27,1,0,1.31-1,1.4-2,.27-2.64.57-5.27.85-7.91,2.63,1.54,3.91,4.32,6,6.4.59.6,1.05,1.54,2.15.85a1.26,1.26,0,0,0,.46-1.87c-2.29-4.76-3.42-10.14-7.54-13.91a44,44,0,0,1,3.84-20.74A13.61,13.61,0,0,0,240.89,95c.07-2,1.73-3,2.88-4.36,3.4-1.82,6.1-4.54,9.06-6.93,1.14-.92,2.26-2.14,1.19-3.77-3.4-5.22-5.72-11.43-12.39-13.68.29-1.5,2-3.11.41-4.49-2.07-1.86-2-4.06-1.84-6.42.21-2.67-1.12-4.32-3.62-4.64-2.7-.34-5,.45-5.21,3.77-.28,3.14-.45,6.22,1.83,8.87,1.36,1.58.07,2.34-1.2,3-1.28.31-2.64.42-3.44,1.69l-.08.88,0-.06c-1.75-.33-2.07,1.78-3.47,2.05l-.11-2c-.32-11,.94-22-.84-33V35c1.2-2.24.38-4.62.51-6.94,1.25-4.7-1.7-4.68-5-4.68q-74.46,0-148.91-.05C70.32,14.1,63.86,7,55.47,6.5c-6.58-3.31-18.42,1.43-22.39,8.21C31.21,17.9,28.74,21,30.43,25.18v3.57c-1.48,5.21,2.79,12.4,9,15.16,1.39,1.7,3.34,1.86,5.33,1.91.29.48.58,1.36.88,1.36,5.26.06,5.71,3.45,5.4,7.5C50.88,56.43,51,58.2,51,60c-12.78,0-25.56,0-38.35.06-1.85,0-4.72-.34-4.14,2.5,1.7,8.33-1,16.51-.4,24.81.26,3.66,1.29,4.89,5,4.85,12.63-.17,25.27,0,37.9,0,.34,13-.9,26-.08,39.05.23,3.7,1.17,4.73,4.83,4.71,26-.14,52-.06,78.06,0l0,10.65c-7,.41-13.64,2.38-20.21,4.63-1.56.54-3.14,1.68-3.22,3.36s1.6,2.79,3.08,3.45a45.34,45.34,0,0,0,5.85,2c16.78,4.88,34.14,5.4,51.37,6.05,24,.89,48,.21,71.79-3.48A67.57,67.57,0,0,0,259,157.92c1.48-.64,3.1-1.68,3.07-3.47,0-1.54-1.57-2.45-2.82-3.22-2.3-1.42-5-1.74-7.55-2.53-1.17-.36-3-.46-2.37-2.45,1-3.05-1.35-4.79-2.27-7.23-1.1.88-.8,1.5-.61,2.46.36,1.85.27,4.2-2.16,4.62-3,.5-6.12,1.48-8.86-.84-1.92-1.58-3-.36-3.93,1.2-4.56-2.24-9.4-2.24-14.29-1.76l0-25.83c2.63-1.35,1.75-2.42-.42-2.71a49.68,49.68,0,0,0-7,0,12.89,12.89,0,0,1,2.41-8.38c.63-.9,2.12-1.52,1.32-3s-2.27-1.07-3.6-1c-.89,0-1.78,0-2.67,0a18.76,18.76,0,0,1,.36-4.34c1.3-4.11-.81-6.09-4.25-7.25a30.35,30.35,0,0,0-4.29-.8c0-1-.3-1.84-1.44-2.08l.08-1.58.25,0a5.84,5.84,0,0,0-.09-8.53c-1.89-1.6-8.14-1.17-9.36.69-.86,1.32-.69,2.48.79,3.28.45,2.08-.86,4.47,1.12,6.28l-.15,3.44-2.74,3.62c-1.7-1-.09-3.4-1.75-4.47a78,78,0,0,0-8.94-11.61C172.91,74,169.74,67,165.21,60.87c-.81-1-1.66-2-2.42-3.09-6.19-8.56-10.65-8.65-17-.42-1.27,1.64-2.6,3.17-3,5.27-4.26,5.72-7.09,12.19-9.77,18.74-1.41,1-2.81,2.3-3.77-.5a24.14,24.14,0,0,0-1.53-3.05c-1.52-3.34-2.82-6.8-4.62-10-2.36-4.2-6.2-4.34-8.43-.17-1.68,3.16-3.79,6.3-3.91,10.13-2.28,2.54-2.48,5.92-3.59,8.94-3,2.6-3.92,7.07-8.42,9.64v-51a4.86,4.86,0,0,0-1.35,4.15q0,38.15,0,76.29c0,1.29-.38,2.71.85,3.75,3.47,1.84,7.21.72,10.81.82,7.33.21,14.67.06,22,.06l0-.91H99.22c0-2.6,0-5.19,0-7.79-.07-1.93.52-3.09,2.67-2.88a2.61,2.61,0,0,0,2.67,1.73c7.48,2,14.44,1.22,20.69-3.66,1.39.61,2.37,3,4.36,1a2.35,2.35,0,0,1,2.66,0,1.79,1.79,0,0,0,1.75.9C134,121.83,134,124.8,134.08,127.76Zm113.8-65.37c2.8-1.64,5.24-1.23,8-.85,6.63.93,13.06.13,17.9-5.34a9.35,9.35,0,0,0-.35-13.14c-6.69-6.4-19.15-6.9-26.19-1.06-5.05,4.19-5.55,9.92-1,14.63C247.82,58.27,248.75,59.76,247.88,62.39ZM200.46,43c-4.46,0-8.92,0-13.37,0-1.9,0-3.12.37-3.13,2.66s1.1,2.74,3,2.73c8.77,0,17.53,0,26.29,0,2,0,3.65-.4,3.54-2.87-.09-2.2-1.68-2.5-3.46-2.49Zm-15.59,13.6v.46h23.18v-.46Zm.95-4.64.15.4h18.82l0-.4Z" transform="translate(-8 -5.42)"/><path class="cls-2" d="M217.23,144.7c4.89-.48,9.73-.48,14.28,1.75a5.05,5.05,0,0,1-.7,1.56c-.93.9-4,.64-2.11,3,1.55,1.89,2.87-.15,4.28-1.15s1.69-1.69.94-3.19c-.88-1.78.5-1.48,1.53-1.4,2.74,2.32,5.9,1.34,8.86.84,2.43-.42,2.52-2.77,2.16-4.62-.19-1-.49-1.58.61-2.46.92,2.44,3.23,4.18,2.27,7.23-.63,2,1.2,2.09,2.37,2.45,2.54.79,5.25,1.11,7.55,2.53,1.25.77,2.8,1.68,2.82,3.22,0,1.79-1.59,2.83-3.07,3.47a67.57,67.57,0,0,1-16.63,4.59c-23.8,3.69-47.81,4.37-71.79,3.48-17.23-.65-34.59-1.17-51.37-6.05a45.34,45.34,0,0,1-5.85-2c-1.48-.66-3.17-1.7-3.08-3.45s1.66-2.82,3.22-3.36c6.57-2.25,13.22-4.22,20.21-4.63.12,3.59.23,7.18.35,10.78-.08.58.19.79.75.71,2.19.4,1.82-1.21,1.85-2.43.07-3.31.08-6.63.12-10,7.7.11,15.2-2.37,22.94-1.78l0,7.05c-.86.27-2.38-.41-2.38,1.1s2.12.47,2.61,1.68a10,10,0,0,0,0,1.73c.13,1-.6,2.54,1.23,2.7s1.42-1.34,1.56-2.4c.07-.57.21-1.13.32-1.7,1.38.48,2.78.91,4.14,1.45a14.58,14.58,0,0,0,11.69,0h3.33a1.4,1.4,0,0,0,.15.3.52.52,0,0,0,.23,0l-.38-.34c.16-3.76,3.57-3.17,5.71-4.28.1,1.61.2,3.23.29,4.84.06,1.06,0,2.19,1.59,2,1.21-.13,1.1-1.1,1.26-2,.31-1.79-.89-3.87,1-5.36a1.65,1.65,0,0,0,2-.59c4.21.39,7.52,3.05,11.34,4.43l.36.19-.35-.2a5.78,5.78,0,0,0-.91-3.53c3.14-1.26,6.1-3,9.47-3.65.09,2.81.17,5.61.28,8.42,0,1-.12,2.25,1.4,2.26s1.36-1.26,1.39-2.26C217.09,152.1,217.15,148.4,217.23,144.7Z" transform="translate(-8 -5.42)"/><path class="cls-3" d="M51,60c0-1.75-.09-3.52.05-5.27.31-4-.14-7.44-5.4-7.5-.3,0-.59-.88-.88-1.36C46,43.46,48.83,42,48.51,38.71c-.12-1.28,1.29-2.19,2.49-2.83l.88-.77C59.44,35.06,67,35,74.55,35q49.8,0,99.61.14a1.87,1.87,0,0,0,1.78.77c1.28.16,2.67-.38,4.05.74-1.32,1.81-3.23,1-4.74,1-24.95.06-49.91.14-74.86,0-4.3,0-5.83.77-5.79,5.54.26,28.06.21,56.14,0,84.21,0,4.37,1,6,5.7,5.9,11.13-.31,22.28-.11,33.42-.11v2.73c-26,0-52-.09-78.06,0-3.66,0-4.6-1-4.83-4.71-.82-13,.42-26,.08-39.05l3,.07c0,4-.05,7.92-.08,11.87-.06,7.83,0,15.65-.23,23.47-.07,2.86.79,3.92,3.77,3.88q15.59-.22,31.17,0c2.8,0,3.58-1,3.51-3.67-.14-5.49-.19-11,0-16.48.12-3.11-.89-4.16-4-4.07-7,.2-13.95,0-20.93.08-2.14,0-4-.09-3.57-3v0c8.46.09,16.91.14,25.36.3,2.3.05,3.17-.81,3.14-3.12C92,95.25,92,89,92.09,82.78c.06-2.66-1.16-3.28-3.51-3.2-4.6.14-9.2.1-13.8.14a.46.46,0,0,1-.56-.09c-.28-.59-.58-.66-.9,0-5.17-.34-10.59,1.83-15.45-1.58,1.71-1.14,3.63-1.11,5.57-1.1,8.15,0,16.31-.15,24.46.08,3.42.1,4.36-1.09,4.22-4.35-.24-5.18-.24-10.38,0-15.56.15-3.28-.86-4.4-4.24-4.33-9.78.2-19.58.27-29.36,0-4-.12-5.46,1.16-4.85,5a13.69,13.69,0,0,1,0,2.22ZM81.5,44.36c-1,4.27.31,6.09,5.13,6,4.11-.11,5.78-.93,5.52-5.37-.37-6.34-.11-6-5.53-6.48C81.75,38.08,80.56,40.13,81.5,44.36Zm-14.42-.67c0,6.44,0,6.57,5.56,6.41,2.32-.07,6,1.43,5.89-3.11-.14-7-1.54-8.25-7.09-8.48C66.79,38.31,66.87,41.11,67.08,43.69Zm-2.72,1.67c.07-3.32.76-6.64-3.85-6.77-5.28-.14-6.82,1.16-6.82,5.86,0,5.7,0,5.45,5.69,5.78C63.55,50.48,65.25,49.14,64.36,45.36Z" transform="translate(-8 -5.42)"/><path class="cls-4" d="M174.16,35.11Q124.36,35,74.55,35c-7.56,0-15.11.09-22.67.14A1.84,1.84,0,0,0,51,35a21.87,21.87,0,0,1,0-7.13l168.28,0c1.78,0,3.55.14,5.33.21-.13,2.32.69,4.7-.51,6.94l-1.8.1H175.94Z" transform="translate(-8 -5.42)"/><path class="cls-5" d="M51,60l2.73,0c2.59-.19,2.59,1.49,2.71,3.41.29,4.93-1,10,.91,14.78-1.64,3.56-.69,7.33-.86,11-.08,1.78,0,3.37-2.51,3l-3-.07c-12.63,0-25.27-.13-37.9,0-3.68,0-4.71-1.19-5-4.85-.57-8.3,2.1-16.48.4-24.81C7.9,59.67,10.77,60,12.62,60,25.41,60,38.19,60,51,60Zm-32.26,7c1.21-.45,1.26-.92,0-1.42l-6,0c-1,.15-1,.9-1,1.64l.07,1.08c2.38.87,4.75,1.42,7-.26L18.77,67Zm8.2,19.76c3.81,2.72,7.66,2.72,11.78,0,4.36-1.94,6.55-5.13,5.75-10,.69-5.62-1.48-9.42-5.92-10.4-3.14-3.49-8.08-3.52-12.58-.09-5.12,2-5.71,6.42-5.87,11.06C21,81.37,22,85.4,26.91,86.67Z" transform="translate(-8 -5.42)"/><path class="cls-3" d="M176.83,80.48a78,78,0,0,1,8.94,11.61c-2.64,2.56-5.34,1.43-8.05.13l0-1,.37-.44-.45.36-.87,1,0,0-.92.92,0,0-.92.92,0,0c-2.8-.41-3.55,1.76-4.57,3.6h-.75c-3.92-1.86-8.08-.85-12.09-.79-5.21.09-10.52-1.17-15.64.76-2.37.25-2.76-3.37-5.33-2.74-.86-4-4.2-6.52-5.37-10.27-2.28.77-2,3.2-3.56,4.1-1-2.08-2.84-1.77-4.6-1.77h-16c1.11-3,1.31-6.4,3.59-8.94,5.65,1.72,11.3,1.18,17,0a24.14,24.14,0,0,1,1.53,3.05c1,2.8,2.36,1.55,3.77.5a14.56,14.56,0,0,0,3.37.87c12.25.06,24.49,0,36.74.05C174.7,82.29,176.09,82.1,176.83,80.48Z" transform="translate(-8 -5.42)"/><path class="cls-6" d="M224.62,28.09c-1.78-.07-3.55-.2-5.33-.21L51,27.86c-.48-3.32.63-4.76,4.29-4.55,5.12.3,10.27.06,15.4.05q74.46,0,148.91.05C222.92,23.41,225.87,23.39,224.62,28.09Z" transform="translate(-8 -5.42)"/><path class="cls-7" d="M70.7,23.36c-5.13,0-10.28.25-15.4-.05-3.66-.21-4.77,1.23-4.29,4.55A21.87,21.87,0,0,0,51,35v.89c-1.2.64-2.61,1.55-2.49,2.83.32,3.33-2.52,4.75-3.77,7.11-2,0-3.94-.21-5.33-1.91a18.45,18.45,0,0,0-1-4.27c-1.24-2.46-.64-6-3.63-7.37a15,15,0,0,1-4.39-3.52c0-1.19,0-2.38,0-3.57.93-.48.78-1.56,1.28-2.25,1.65-2.29,6.5-3.29,7.31-1.31,1.53,3.72,4.66,2.16,7.11,2.9-2.12-4.1-5.65-5.74-11-5.54,3.34-3.26,7.25-4.51,9.69-7.56A2.28,2.28,0,0,1,46.91,11C51.68,13,53.58,9.81,55.47,6.5,63.86,7,70.32,14.1,70.7,23.36Z" transform="translate(-8 -5.42)"/><path class="cls-8" d="M107.18,86.74h16c1.76,0,3.64-.31,4.6,1.77-1.87,5-5.28,9-8,13.39-3,2.78-5.18,6.39-8.8,8.63-1.73,1.06-.55,2.24.78,3l0,.91h0c-1.54-.13-2.87.17-3.55,1.77h0l-.88.89h0c-1.82.52-4.45-1.38-5.38,1.8-2.15-.21-2.74,1-2.67,2.88.09,2.6,0,5.19,0,7.79l-1,0c-1.23-1-.85-2.46-.85-3.75q0-38.14,0-76.29a4.86,4.86,0,0,1,1.35-4.15v51C103.26,93.81,104.16,89.34,107.18,86.74Z" transform="translate(-8 -5.42)"/><path class="cls-9" d="M176.83,80.48c-.74,1.62-2.13,1.81-3.69,1.81-12.25,0-24.49,0-36.74-.05a14.56,14.56,0,0,1-3.37-.87c2.68-6.55,5.51-13,9.77-18.74l17.8,0c1.76,0,3.65.32,4.61-1.78C169.74,67,172.91,74,176.83,80.48Z" transform="translate(-8 -5.42)"/><path class="cls-10" d="M247.88,62.39c.87-2.63-.06-4.12-1.65-5.76-4.54-4.71-4-10.44,1-14.63,7-5.84,19.5-5.34,26.19,1.06a9.35,9.35,0,0,1,.35,13.14c-4.84,5.47-11.27,6.27-17.9,5.34C253.12,61.16,250.68,60.75,247.88,62.39Zm9.84-7.75a15.51,15.51,0,0,0,10.39-.16C264.66,53.66,261.2,53.34,257.72,54.64Zm13.75-4.7v-.47H257.94v.47Zm-.09,2.64v-.42H258v.42Z" transform="translate(-8 -5.42)"/><path class="cls-4" d="M199.06,91.43a29,29,0,0,1,4.29.79c3.44,1.16,5.55,3.14,4.25,7.25a18.76,18.76,0,0,0-.36,4.34q-1.1,6.07-2.18,12.16c-5.51-.55-11.26,1.47-16.53-1.57L183,114c.61-2.28-1.57-2.23-2.61-3.13,1.3-2.06,5.08-1.16,5.23-4.9.13-3.14,1.23-6.25,1.9-9.37l2.74-3.62,2.16.24c-.4,1.59.08,2.17,1.77,1.7A10.62,10.62,0,0,0,199.06,91.43Z" transform="translate(-8 -5.42)"/><path class="cls-11" d="M240.89,95a13.61,13.61,0,0,1-1.29,7.36,44,44,0,0,0-3.84,20.74c.28,2.92-.67,5.69-1,8.53-.28,2.64-.58,5.27-.85,7.91-.09,1-.36,1.92-1.4,2-1.62.07-1.24-1.33-1.31-2.27-.32-4.88-.61-9.75-.91-14.63-.46-11.62-1.65-23.23-.27-34.86.12-1-.82-1.06-1.51-1.26,3.35-1.76,6.71.59,10.06,0l.78,1.87-2.63,2.12C237.73,94.13,239.38,94.44,240.89,95Z" transform="translate(-8 -5.42)"/><path class="cls-12" d="M238.54,88.42c-3.35.62-6.71-1.73-10.06,0l-.65,0c-.26-2.5.35-5.13-1.05-7.47a25.23,25.23,0,0,1,1.74-12.21l0,.06c.73-.23.71-.53.08-.88.8-1.27,2.16-1.38,3.44-1.69.57,1.53-1.59,4.69,2.47,4.14-.32,2.29-3,3.57-2.48,6.34.35,1.87.51,3.63,2.83,3.73,2.14.1,2.05-1.81,2.87-3.15,2.13-3.49,1.87-7.72,3.94-11.14,6.67,2.25,9,8.46,12.39,13.68,1.07,1.63-.05,2.85-1.19,3.77-3,2.39-5.66,5.11-9.06,6.93-.38-.44-.77-.87-1.15-1.3,1.1-1.36,2.13-2.78,3.32-4,4.15-4.47,4.08-5.16-.24-9.49-1.66-1.66-2.54-1.48-3.52.52A32,32,0,0,0,238.54,88.42Z" transform="translate(-8 -5.42)"/><path class="cls-8" d="M187.52,96.56c-.67,3.12-1.77,6.23-1.9,9.37-.15,3.74-3.93,2.84-5.23,4.9-2.64-1.51-5.3-.24-8,0l-.93-.89-.05-.9c.14-2.56-.12-5-1.73-7.15,0-1.47,0-2.93,0-4.4h.75c2.54.09,5.18.31,4.57-3.6l0,0,.92-.92,0,0,.92-.92,0,0,.92.11c2.71,1.3,5.41,2.43,8.05-.13C187.43,93.16,185.82,95.51,187.52,96.56Z" transform="translate(-8 -5.42)"/><path class="cls-3" d="M55.47,6.5C53.58,9.81,51.68,13,46.91,11a2.28,2.28,0,0,0-2.08.46c-2.44,3.05-6.35,4.3-9.69,7.56,5.34-.2,8.87,1.44,11,5.54-2.45-.74-5.58.82-7.11-2.9-.81-2-5.66-1-7.31,1.31-.5.69-.35,1.77-1.28,2.25-1.69-4.14.78-7.28,2.65-10.47C37.05,7.93,48.89,3.19,55.47,6.5Z" transform="translate(-8 -5.42)"/><path class="cls-7" d="M165.21,60.87c-1,2.1-2.85,1.78-4.61,1.78l-17.8,0c.41-2.1,1.74-3.63,3-5.27,6.33-8.23,10.79-8.14,17,.42C163.55,58.84,164.4,59.84,165.21,60.87Z" transform="translate(-8 -5.42)"/><path class="cls-9" d="M200.46,43h12.92c1.78,0,3.37.29,3.46,2.49.11,2.47-1.53,2.88-3.54,2.87-8.76,0-17.52,0-26.29,0-1.95,0-3-.5-3-2.73S185.19,43,187.09,43C191.54,43.06,196,43,200.46,43Z" transform="translate(-8 -5.42)"/><path class="cls-5" d="M225.5,118.9c-1,4.4-.39,8.87-.52,13.31-.06,1.77-.3,3.36-2.47,3.52-1.87.14-3.75-.25-2.17-2.62,1.32-2,1.08-4,1.09-6,0-13.5,0-27,0-40.5l2.21-.48c2,2.67.06,6.5,2.66,9l-.28,1.35c-.9.1-1.8.25-1.82,1.44,0,1,.71,1.15,1.46,1.28-.49,2.89-1.1,5.77-1.42,8.69C223.87,111.63,222.63,115.51,225.5,118.9Z" transform="translate(-8 -5.42)"/><path class="cls-5" d="M127.73,77.82c-5.66,1.16-11.31,1.7-17,0,.12-3.83,2.23-7,3.91-10.13,2.23-4.17,6.07-4,8.43.17C124.91,71,126.21,74.48,127.73,77.82Z" transform="translate(-8 -5.42)"/><path class="cls-13" d="M225.5,118.9c-2.87-3.39-1.63-7.27-1.22-11,.32-2.92.93-5.8,1.42-8.69l.36-2.72c.09-.45.19-.9.28-1.36q.74-3.31,1.49-6.63l.65,0c.69.2,1.63.28,1.51,1.26-1.38,11.63-.19,23.24.27,34.86Z" transform="translate(-8 -5.42)"/><path class="cls-11" d="M241.63,66.23c-2.07,3.42-1.81,7.65-3.94,11.14-.82,1.34-.73,3.25-2.87,3.15-2.32-.1-2.48-1.86-2.83-3.73-.52-2.77,2.16-4.05,2.48-6.34a7.18,7.18,0,0,1,2.38-4.58,6.6,6.6,0,0,0,2-7.92,6,6,0,0,0-7.52-3.5c.24-3.32,2.51-4.11,5.21-3.77,2.5.32,3.83,2,3.62,4.64-.19,2.36-.23,4.56,1.84,6.42C243.58,63.12,241.92,64.73,241.63,66.23Z" transform="translate(-8 -5.42)"/><path class="cls-7" d="M134,118.87a1.81,1.81,0,0,1-1.75-.91c.29-2.15,1.95-1.75,3.36-1.78,3.21-.08,6.41-.12,9.62-.17l27.23-.21,14.18.44v2.44l-.93.17-23.08,0h-26Z" transform="translate(-8 -5.42)"/><path class="cls-3" d="M224.1,35.89c1.78,11,.52,22,.84,33h-3.47c0-9.61,0-19.22,0-28.83,0-1.42-.49-3,.86-4.17Z" transform="translate(-8 -5.42)"/><path class="cls-8" d="M145.2,116c-3.21.06-6.41.1-9.62.18-1.41,0-3.07-.37-3.36,1.78a2.35,2.35,0,0,0-2.66,0v-3.75c0-.18,0-.36-.05-.54a2,2,0,0,0,.92-2l0,0c.82-.35.93-1.06.92-1.82l0,0a3.14,3.14,0,0,0,1.79-1.8h10.67q.57,3.26,1.15,6.51C145,115.12,145.11,115.56,145.2,116Z" transform="translate(-8 -5.42)"/><path class="cls-11" d="M217.23,144.7c-.08,3.7-.14,7.4-.23,11.09,0,1,.17,2.27-1.39,2.26s-1.37-1.25-1.4-2.26c-.11-2.81-.19-5.61-.28-8.42.55-9.5.41-19,.13-28.5h3.15Z" transform="translate(-8 -5.42)"/><path class="cls-8" d="M125.2,117c-6.25,4.88-13.21,5.7-20.69,3.66q1.36-1.76,2.71-3.53h0l.88-.89h0c1.54.12,2.89-.14,3.55-1.77h0l7.17-.89,0,0c.37.8,1.08.9,1.83.92l0,0c.66,1,1.72.89,2.72.92l0,0Z" transform="translate(-8 -5.42)"/><path class="cls-13" d="M192.42,93.18l-2.16-.24.15-3.44c5.36.42,6-.47,4.29-5.13-1.29-3.45-3.48-1.41-5.41-1.15-1.48-.8-1.65-2-.79-3.28,1.22-1.86,7.47-2.29,9.36-.69a5.84,5.84,0,0,1,.09,8.53c.05-1,.58-2.06-.33-3.14-.63,1.22-.15,2.16.08,3.12l-.08,1.58C196.8,91.85,194.42,92.26,192.42,93.18Z" transform="translate(-8 -5.42)"/><path class="cls-14" d="M223.68,86.15l-2.21.48-9.1-4.29c0-.38.09-.76.14-1.15.73,0,1.47,0,2.2,0,6.95.75,6.95.75,8.66-6a6.5,6.5,0,0,0,1.68-4.32c1.4-.27,1.72-2.38,3.47-2.05A25.23,25.23,0,0,0,226.78,81Z" transform="translate(-8 -5.42)"/><path class="cls-10" d="M217.21,118.87h-3.15l-4.92,0-4.45.1-18.08-.31v-2.44c1.1-.13,2-.48,1.92-1.84,5.27,3,11,1,16.53,1.57l4.72.17a49.68,49.68,0,0,1,7,0C219,116.45,219.84,117.52,217.21,118.87Z" transform="translate(-8 -5.42)"/><path class="cls-15" d="M231.37,54.45a6,6,0,0,1,7.52,3.5,6.6,6.6,0,0,1-2,7.92,7.18,7.18,0,0,0-2.38,4.58c-4.06.55-1.9-2.61-2.47-4.14,1.27-.65,2.56-1.41,1.2-3C230.92,60.67,231.09,57.59,231.37,54.45Z" transform="translate(-8 -5.42)"/><path class="cls-11" d="M133.76,135.84v-2.73l.32-5.35c1.88-.07,1.42,2,2.44,2.68l.27,2.68V135q0,5.33,0,10.65c0,3.32-.05,6.64-.12,10,0,1.22.34,2.83-1.85,2.43l-.75-.71c-.12-3.6-.23-7.19-.35-10.78Z" transform="translate(-8 -5.42)"/><path class="cls-14" d="M209.78,116.14l-4.72-.17q1.09-6.07,2.18-12.16c.89,0,1.78,0,2.67,0,1.33-.06,2.8-.44,3.6,1s-.69,2.06-1.32,3A12.89,12.89,0,0,0,209.78,116.14Z" transform="translate(-8 -5.42)"/><path class="cls-13" d="M234.73,131.6c.36-2.84,1.31-5.61,1-8.53,4.12,3.77,5.25,9.15,7.54,13.91a1.26,1.26,0,0,1-.46,1.87c-1.1.69-1.56-.25-2.15-.85C238.64,135.92,237.36,133.14,234.73,131.6Z" transform="translate(-8 -5.42)"/><path class="cls-3" d="M30.42,28.75a15,15,0,0,0,4.39,3.52c3,1.4,2.39,4.91,3.63,7.37a18.45,18.45,0,0,1,1,4.27C33.21,41.15,28.94,34,30.42,28.75Z" transform="translate(-8 -5.42)"/><path class="cls-15" d="M189.29,83.22c1.93-.26,4.12-2.3,5.41,1.15,1.74,4.66,1.07,5.55-4.29,5.13C188.43,87.69,189.74,85.3,189.29,83.22Z" transform="translate(-8 -5.42)"/><path class="cls-11" d="M235.45,145.26c-1-.08-2.41-.38-1.53,1.4.75,1.5.42,2.22-.94,3.19s-2.73,3-4.28,1.15c-1.93-2.35,1.18-2.09,2.11-3a5.05,5.05,0,0,0,.7-1.56C232.48,144.9,233.53,143.68,235.45,145.26Z" transform="translate(-8 -5.42)"/><path class="cls-3" d="M98.27,129.58l1,0h31.85l0,.91c-7.34,0-14.68.15-22-.06C105.48,130.3,101.74,131.42,98.27,129.58Z" transform="translate(-8 -5.42)"/><path class="cls-13" d="M136.52,130.44c-1-.71-.56-2.75-2.44-2.68,0-3-.07-5.93-.11-8.9l2.64,0Z" transform="translate(-8 -5.42)"/><path class="cls-2" d="M212.51,81.19c0,.39-.1.77-.14,1.15l-8-.08c-.63,0-1.3-.26-1.29-.9,0-.45.71-1.34.86-1.29C206.76,81,210.1,77.74,212.51,81.19Z" transform="translate(-8 -5.42)"/><ellipse class="cls-9" cx="188.46" cy="51.43" rx="16.39" ry="0.33"/><path class="cls-15" d="M192.42,93.18c2-.92,4.38-1.33,5.2-3.84,1.14.24,1.41,1.08,1.44,2.08a10.56,10.56,0,0,1-4.87,3.46C192.5,95.35,192,94.77,192.42,93.18Z" transform="translate(-8 -5.42)"/><path class="cls-15" d="M242.62,89.31c.38.43.77.86,1.15,1.3-1.15,1.32-2.81,2.32-2.88,4.36-1.51-.53-3.16-.84-4.2-2.56l2.63-2.12Z" transform="translate(-8 -5.42)"/><path class="cls-5" d="M185.82,52h18.93l0,.4H186Z" transform="translate(-8 -5.42)"/><path class="cls-8" d="M225.05,70.87a6.5,6.5,0,0,1-1.68,4.32c-3-1.4-1.64-4.09-1.9-6.31h3.47C225,69.54,225,70.21,225.05,70.87Z" transform="translate(-8 -5.42)"/><path class="cls-7" d="M196.47,59.94h19.35l0,1.12H196.6C196.55,60.68,196.51,60.31,196.47,59.94Z" transform="translate(-8 -5.42)"/><path class="cls-6" d="M125.2,117l-1.94-1.66c2.15-.08,4.4.5,6.3-1.05V118C127.57,119.91,126.59,117.56,125.2,117Z" transform="translate(-8 -5.42)"/><path class="cls-15" d="M196.47,59.94c0,.37.08.74.13,1.12l-.66,1.11c-3.41-2.15-7.34-.87-11-2.23Z" transform="translate(-8 -5.42)"/><path class="cls-7" d="M199.09,64.39H215l0,1H199.11C199.1,65,199.09,64.71,199.09,64.39Z" transform="translate(-8 -5.42)"/><path class="cls-7" d="M107.22,117.08q-1.35,1.77-2.71,3.53a2.61,2.61,0,0,1-2.67-1.73C102.77,115.7,105.4,117.6,107.22,117.08Z" transform="translate(-8 -5.42)"/><path class="cls-5" d="M199.09,64.39c0,.32,0,.64,0,1H185.9l0-1Z" transform="translate(-8 -5.42)"/><path class="cls-15" d="M197.7,87.76c-.23-1-.71-1.9-.08-3.12.91,1.08.38,2.14.33,3.14Z" transform="translate(-8 -5.42)"/><path class="cls-8" d="M174.16,35.11l1.78,0c0,.24,0,.49,0,.74A1.87,1.87,0,0,1,174.16,35.11Z" transform="translate(-8 -5.42)"/><path class="cls-8" d="M224.1,35.89h-1.78c0-.25,0-.5,0-.75l1.8-.1C224.11,35.32,224.1,35.6,224.1,35.89Z" transform="translate(-8 -5.42)"/><path class="cls-14" d="M228.56,68c.63.35.65.65-.08.88C228.51,68.59,228.54,68.29,228.56,68Z" transform="translate(-8 -5.42)"/><path class="cls-13" d="M186.61,118.68l18.07.3-.09,3.25a11.62,11.62,0,0,1-4.38,6.46l-9.13.92c-1.88-1.29-1.51-3.57-2.72-5.33v5.47c-2.07.65-5.68-2.61-6.05,2.38l-.15,1.85c-.18,6.08-1.72,11.93-2.92,17.85-.72.48-.53,1.18-.42,1.86l0,1.74a14.58,14.58,0,0,1-11.69,0c-1.36-.54-2.76-1-4.14-1.45l-3.07-.33c-.49-1.21-2.62-.17-2.61-1.68s1.52-.83,2.38-1.09l3-.06c2.2,0,2-1.83,2.36-3.13,1.84-6.25,3.71-12.49,5.39-18.78a6.85,6.85,0,0,1,4.39-5.06c3.66-1.49,7.19-3.32,10.78-5Zm-18,33.77c-.4.61-1.21,1.25.13,1.73,2.07-.44,5.09.07,5.53-2.53.71-4.17,1.16-8.47-.2-12.9Z" transform="translate(-8 -5.42)"/><path class="cls-16" d="M209.14,118.89l4.92,0c.28,9.5.42,19-.13,28.5-3.37.67-6.33,2.39-9.47,3.65l-9.54-3.74c.68-2.55-1.63-2.57-2.92-3.45l0-3.52c2.68-1,3.58-3.2,3.88-5.81,3.28-1.82,7.09.31,10.39-1.36,3.57-2,4.51-6,2.54-10.75Z" transform="translate(-8 -5.42)"/><path class="cls-1" d="M136.8,145.6q0-5.32,0-10.65c7.59,1.81,15.31.4,23,.89v8C152,143.23,144.5,145.71,136.8,145.6Z" transform="translate(-8 -5.42)"/><path class="cls-11" d="M192,140.31l0,3.52c-2.28,2.3.74,4.59,0,6.89-1.88,1.49-.68,3.57-1,5.36-.16.87-.05,1.84-1.26,2-1.55.15-1.53-1-1.59-2-.09-1.61-.19-3.23-.29-4.84,0-1,0-2,.05-3,.08-2.92.21-5.84.25-8.75.07-5.83,0-5.83-6-5.43l.15-1.85c2.08-.64,5.51,2.17,6.05-2.38v-5.47c1.21,1.76.84,4,2.72,5.33v2.64C191.32,134.94,190.25,137.8,192,140.31Z" transform="translate(-8 -5.42)"/><path class="cls-11" d="M159.74,143.82v-8l0-2.73.36-9.82c3.36,1.53.08,5.27,2.39,7.14l.3,20.39-3,.06Z" transform="translate(-8 -5.42)"/><path class="cls-10" d="M194.92,147.28l9.54,3.74a5.78,5.78,0,0,1,.91,3.53h0c-3.82-1.38-7.13-4-11.34-4.43C194.18,149.14,192.91,147.69,194.92,147.28Z" transform="translate(-8 -5.42)"/><path class="cls-10" d="M187.93,148.16c0,1,0,2-.05,3-2.14,1.11-5.55.52-5.71,4.28h-3.33c0-.58,0-1.16,0-1.74,1.16,0,1.55-.76,1.61-1.79Z" transform="translate(-8 -5.42)"/><path class="cls-13" d="M194.92,147.28c-2,.41-.74,1.86-.9,2.85a1.65,1.65,0,0,1-2,.59c.73-2.3-2.29-4.59,0-6.89C193.29,144.71,195.6,144.73,194.92,147.28Z" transform="translate(-8 -5.42)"/><path class="cls-11" d="M159.94,153.65,163,154c-.11.57-.25,1.13-.32,1.7-.14,1.06.3,2.56-1.56,2.4s-1.1-1.68-1.23-2.7A10,10,0,0,1,159.94,153.65Z" transform="translate(-8 -5.42)"/><path class="cls-10" d="M205.37,154.55l.35.2-.36-.19Z" transform="translate(-8 -5.42)"/><path class="cls-10" d="M182.17,155.45l.38.34a.52.52,0,0,1-.23,0,1.4,1.4,0,0,1-.15-.3Z" transform="translate(-8 -5.42)"/><path class="cls-13" d="M134.08,157.27l.75.71C134.27,158.06,134,157.85,134.08,157.27Z" transform="translate(-8 -5.42)"/><path class="cls-16" d="M63.57,104.27c-.41,2.91,1.43,3,3.57,3,7,0,14,.12,20.93-.08,3.15-.09,4.16,1,4,4.07-.21,5.49-.16,11,0,16.48.07,2.62-.71,3.7-3.51,3.67q-15.58-.19-31.17,0c-3,0-3.84-1-3.77-3.88.2-7.82.17-15.64.23-23.47ZM88.46,119c-.63-5.36-2.77-7.31-7.91-7.21-5.24.63-7.53,3.14-7.28,8,.21,4.13,3,7,7,7.09C84.58,127,88.07,123.68,88.46,119ZM62,111.88c2.1-1.08,6.1,1.57,6.3-1.59.14-2.21-4-1-6.18-1.07s-5.74-1.23-5.76,1.25S60,111.08,62,111.88Zm6.51,2.34c-3.93-.61-7.89-1.2-11.73.26C60.7,115.26,64.62,115.71,68.49,114.22Zm-11.76,2.72a20.19,20.19,0,0,0,11.75.1C64.57,115.7,60.63,116.14,56.73,116.94Z" transform="translate(-8 -5.42)"/><path class="cls-16" d="M57.32,78.16c-1.89-4.82-.62-9.85-.91-14.78-.12-1.92-.12-3.6-2.71-3.41a13.69,13.69,0,0,0,0-2.22c-.61-3.86.84-5.14,4.85-5,9.78.3,19.58.23,29.36,0,3.38-.07,4.39,1.05,4.24,4.33-.24,5.18-.24,10.38,0,15.56.14,3.26-.8,4.45-4.22,4.35-8.15-.23-16.31-.06-24.46-.08-1.94,0-3.86,0-5.57,1.1A3.41,3.41,0,0,1,57.32,78.16Zm17.77-20c-.08-1.37.6-3.27-1.67-3.39-2.79-.15-5.59,0-8.38,0-1.05,0-1.35.83-1.58,1.77-1.64,6.72,0,8.84,6.74,8.61A11.71,11.71,0,0,0,71.51,65l.12,7.4c-.1,1.21.49,1.79,1.67,1.84l12.51,0c2.41,1.09,1.52-.88,1.72-1.85V60.9c0-1.92-1.32-1.83-2.63-1.79l-9.79-.06A8.42,8.42,0,0,0,75.09,58.18Z" transform="translate(-8 -5.42)"/><path class="cls-16" d="M74.78,79.72c4.6,0,9.2,0,13.8-.14,2.35-.08,3.57.54,3.51,3.2-.13,6.23-.1,12.47,0,18.7,0,2.31-.84,3.17-3.14,3.12-8.45-.16-16.9-.21-25.35-.3a18.15,18.15,0,0,0,2.78-6H77c8.21,0,8.07,0,8-8.28,0-3.39-1.43-4.27-4.55-4.29-2.38,0-5,1.07-7.18-.89C73.46,83.07,75.35,81.77,74.78,79.72Z" transform="translate(-8 -5.42)"/><path class="cls-14" d="M66.37,98.32a18.15,18.15,0,0,1-2.78,6l0,0-9.7-.2c0-3.95.05-7.91.08-11.87,2.48.33,2.43-1.26,2.51-3,.17-3.67-.78-7.44.86-11a3.41,3.41,0,0,0,.55-.14c4.86,3.41,10.28,1.24,15.45,1.58l.9,0a.46.46,0,0,0,.56.09c.57,2-1.32,3.35-1.55,5.15-2.53,1.87-5.44.68-8.17,1-1.14.13-2.83-.49-3.31.61-1.45,3.35-1,7-.39,10.43C61.84,99.42,64.68,97.75,66.37,98.32Z" transform="translate(-8 -5.42)"/><path class="cls-16" d="M81.5,44.36c-.94-4.23.25-6.28,5.12-5.89,5.42.45,5.16.14,5.53,6.48.26,4.44-1.41,5.26-5.52,5.37C81.81,50.45,80.55,48.63,81.5,44.36Z" transform="translate(-8 -5.42)"/><path class="cls-16" d="M67.08,43.69c-.21-2.58-.29-5.38,4.36-5.18,5.55.23,7,1.52,7.09,8.48.09,4.54-3.57,3-5.89,3.11C67.08,50.26,67.08,50.13,67.08,43.69Z" transform="translate(-8 -5.42)"/><path class="cls-16" d="M64.36,45.36c.89,3.78-.81,5.12-5,4.87-5.68-.33-5.69-.08-5.69-5.78,0-4.7,1.54-6,6.82-5.86C65.12,38.72,64.43,42,64.36,45.36Z" transform="translate(-8 -5.42)"/><path class="cls-8" d="M51,35.88V35a1.84,1.84,0,0,1,.87.12Z" transform="translate(-8 -5.42)"/><path class="cls-16" d="M74.22,79.63l-.9,0C73.64,79,73.94,79,74.22,79.63Z" transform="translate(-8 -5.42)"/><path class="cls-6" d="M25.94,66.14c4.5-3.43,9.44-3.4,12.58.09-.62,1.87-1.25,3.73-1.87,5.6-2.51-1.33-5.22-1.28-7.94-1.12Z" transform="translate(-8 -5.42)"/><path class="cls-10" d="M25.94,66.14l2.77,4.57c-.64,2.1-1.27,4.2-1.91,6.3l-6.73.19C20.23,72.56,20.82,68.15,25.94,66.14Z" transform="translate(-8 -5.42)"/><path class="cls-4" d="M44.44,76.63c.8,4.89-1.39,8.08-5.75,10q-1.42-2.2-2.84-4.43l2.84-5.1,1.05-.56Z" transform="translate(-8 -5.42)"/><path class="cls-14" d="M20.07,77.2,26.8,77c-.47,2.46,2,3.36,2.74,5.21l-2.63,4.45C22,85.4,21,81.37,20.07,77.2Z" transform="translate(-8 -5.42)"/><path class="cls-10" d="M44.44,76.63l-4.7-.07a1.8,1.8,0,0,0-1.44-1.28l-1.65-3.45c.62-1.87,1.25-3.73,1.87-5.6C43,67.21,45.13,71,44.44,76.63Z" transform="translate(-8 -5.42)"/><path class="cls-12" d="M26.91,86.67l2.63-4.45h6.31q1.41,2.22,2.84,4.43C34.57,89.39,30.72,89.39,26.91,86.67Z" transform="translate(-8 -5.42)"/><path class="cls-11" d="M12.76,65.46l6,0,0,1.42.06.07-5.9-.07Z" transform="translate(-8 -5.42)"/><path class="cls-13" d="M18.89,67.92c-2.29,1.68-4.66,1.13-7,.26Z" transform="translate(-8 -5.42)"/><path class="cls-7" d="M18.89,67.92l-7,.26c0-.36,0-.72-.07-1.08l1.09-.19,5.9.07Z" transform="translate(-8 -5.42)"/><path class="cls-10" d="M18.71,66.91l0-1.42C20,66,19.92,66.46,18.71,66.91Z" transform="translate(-8 -5.42)"/><path class="cls-10" d="M12.87,66.91l-1.09.19c0-.74,0-1.49,1-1.64C12.8,66,12.83,66.43,12.87,66.91Z" transform="translate(-8 -5.42)"/><path class="cls-15" d="M144.92,114.68q-.58-3.25-1.15-6.51L142,98.36v-.93c5.12-1.93,10.43-.67,15.64-.76,4-.06,8.17-1.07,12.09.79,0,1.47,0,2.93,0,4.4-.12,2.55,0,5,1.73,7.15,0,.3,0,.6.05.9.07,1.27-.41,2.66.85,3.65l0,.35-.09.36C163.13,114.41,154,113.63,144.92,114.68Z" transform="translate(-8 -5.42)"/><path class="cls-9" d="M119.72,101.91c2.74-4.42,6.15-8.44,8-13.39,1.57-.9,1.28-3.33,3.56-4.1,1.17,3.75,4.51,6.31,5.37,10.27-1,1.7-.91,3.58-.9,5.45v0c-1.08.64-.9,1.7-.9,2.7v0l-1.71.92c-2.51,0-5,.09-7.54,0C123.56,103.56,121.07,104.57,119.72,101.91Z" transform="translate(-8 -5.42)"/><path class="cls-6" d="M135.77,100.14c0-1.87-.14-3.75.9-5.45,2.57-.63,3,3,5.33,2.74v.93C139.73,98.27,137.39,97.93,135.77,100.14Z" transform="translate(-8 -5.42)"/><path class="cls-6" d="M175.05,93.87c.61,3.91-2,3.69-4.57,3.6C171.5,95.63,172.25,93.46,175.05,93.87Z" transform="translate(-8 -5.42)"/><path class="cls-6" d="M177.72,92.22l-.92-.11.87-1,.08.08Z" transform="translate(-8 -5.42)"/><path class="cls-6" d="M175.94,93l-.92.92C175.32,93.59,175.63,93.29,175.94,93Z" transform="translate(-8 -5.42)"/><path class="cls-6" d="M177.67,91.16l.45-.36-.37.44Z" transform="translate(-8 -5.42)"/><path class="cls-6" d="M176.83,92.09l-.92.92Z" transform="translate(-8 -5.42)"/><path class="cls-3" d="M119.72,101.91c1.35,2.66,3.84,1.65,5.92,1.75,2.51.14,5,0,7.54,0,0,.89-.07,1.78-.1,2.67l0,0c-1.63.69-1.86,2.08-1.79,3.61l0,0a1.78,1.78,0,0,0-.92,1.82l0,0a2,2,0,0,0-.92,2c0,.18,0,.36.05.54-1.9,1.55-4.15,1-6.3,1.05l0,0c-.64-1.11-1.73-.87-2.72-.92l0,0c-.35-.82-1.07-.9-1.83-.92l0,0c-2.38-4-4.76-2.22-7.14,0-1.33-.73-2.51-1.91-.78-3C114.54,108.3,116.7,104.69,119.72,101.91Z" transform="translate(-8 -5.42)"/><path class="cls-6" d="M111.7,113.51c2.38-2.2,4.76-4,7.14,0l-7.17.89Z" transform="translate(-8 -5.42)"/><path class="cls-7" d="M111.67,114.41c-.66,1.63-2,1.89-3.55,1.77C108.8,114.58,110.13,114.28,111.67,114.41Z" transform="translate(-8 -5.42)"/><path class="cls-7" d="M108.1,116.19l-.88.89Z" transform="translate(-8 -5.42)"/><path class="cls-7" d="M257.72,54.64c3.48-1.3,6.94-1,10.39-.16A15.51,15.51,0,0,1,257.72,54.64Z" transform="translate(-8 -5.42)"/><ellipse class="cls-8" cx="256.7" cy="44.29" rx="9.57" ry="0.33"/><ellipse class="cls-3" cx="256.71" cy="46.95" rx="9.44" ry="0.3"/><path class="cls-2" d="M172.33,113.91l0-.35c0-.92.06-1.84.08-2.76,2.66-.21,5.32-1.48,8,0,1,.9,3.22.85,2.61,3.13Z" transform="translate(-8 -5.42)"/><path class="cls-13" d="M172.33,113.91,183,114l5.53.44c.08,1.36-.82,1.71-1.92,1.84l-14.18-.44c-.07-.51-.13-1-.19-1.53Z" transform="translate(-8 -5.42)"/><path class="cls-16" d="M242.62,89.31l-3.3,1-.78-1.87a32,32,0,0,1,3.64-12.13c1-2,1.86-2.18,3.52-.52,4.32,4.33,4.39,5,.24,9.49C244.75,86.53,243.72,88,242.62,89.31Z" transform="translate(-8 -5.42)"/><path class="cls-1" d="M223.68,86.15l3.1-5.12c1.4,2.34.79,5,1.05,7.47q-.75,3.31-1.49,6.63C223.74,92.65,225.67,88.82,223.68,86.15Z" transform="translate(-8 -5.42)"/><path class="cls-6" d="M171.45,109c-1.74-2.1-1.85-4.6-1.73-7.15C171.33,104,171.59,106.45,171.45,109Z" transform="translate(-8 -5.42)"/><path class="cls-6" d="M172.43,110.8c0,.92-.05,1.84-.08,2.76-1.26-1-.78-2.38-.85-3.65Z" transform="translate(-8 -5.42)"/><path class="cls-1" d="M226.06,96.49l-.36,2.72c-.75-.13-1.48-.32-1.46-1.28C224.26,96.74,225.16,96.59,226.06,96.49Z" transform="translate(-8 -5.42)"/><path class="cls-16" d="M160.07,123.29l-.36,9.82H136.79l-.27-2.68.09-11.55H159.9C160,120.35,160,121.82,160.07,123.29Zm-20.45,6.47-.16.45h17.61v-.45Z" transform="translate(-8 -5.42)"/><path class="cls-16" d="M162.76,150.82l-.3-20.39c0-3.85.09-7.71.14-11.56l23.08,0c-3.59,1.68-7.12,3.51-10.78,5a6.85,6.85,0,0,0-4.39,5.06c-1.68,6.29-3.55,12.53-5.39,18.78C164.73,149,165,150.84,162.76,150.82Z" transform="translate(-8 -5.42)"/><path class="cls-11" d="M172.24,114.27c.06.51.12,1,.19,1.53L145.2,116c-.09-.45-.19-.89-.28-1.33C154,113.63,163.13,114.41,172.24,114.27Z" transform="translate(-8 -5.42)"/><path class="cls-13" d="M162.6,118.87c0,3.85-.1,7.71-.14,11.56-2.31-1.87,1-5.61-2.39-7.14-.06-1.47-.11-2.94-.17-4.41Z" transform="translate(-8 -5.42)"/><path class="cls-5" d="M135.77,100.14c1.62-2.21,4-1.87,6.23-1.78l1.77,9.81H133.1v-1.81l0,0a4.75,4.75,0,0,0,1.81-3.59v0c1-.65.9-1.7.9-2.7Z" transform="translate(-8 -5.42)"/><path class="cls-6" d="M133.1,106.35v1.81a3.14,3.14,0,0,1-1.79,1.8C131.24,108.43,131.47,107,133.1,106.35Z" transform="translate(-8 -5.42)"/><path class="cls-6" d="M129.51,113.7a2,2,0,0,1,.92-2A2,2,0,0,1,129.51,113.7Z" transform="translate(-8 -5.42)"/><path class="cls-6" d="M130.41,111.75a1.78,1.78,0,0,1,.92-1.82C131.34,110.69,131.23,111.4,130.41,111.75Z" transform="translate(-8 -5.42)"/><path class="cls-6" d="M120.58,114.39c1,0,2.08-.19,2.72.92C122.3,115.28,121.24,115.42,120.58,114.39Z" transform="translate(-8 -5.42)"/><path class="cls-6" d="M118.79,113.5c.76,0,1.48.1,1.83.92C119.87,114.4,119.16,114.3,118.79,113.5Z" transform="translate(-8 -5.42)"/><path class="cls-14" d="M209.14,118.89l-.3,3.5-4.25-.16.09-3.25Z" transform="translate(-8 -5.42)"/><path class="cls-3" d="M136.79,133.12h22.92l0,2.73c-7.64-.49-15.36.92-23-.89Z" transform="translate(-8 -5.42)"/><path class="cls-16" d="M187.93,148.16l-7.5,3.74-1.19-.07c1.2-5.92,2.74-11.77,2.92-17.85,6.07-.4,6.09-.4,6,5.43C188.14,142.32,188,145.24,187.93,148.16Z" transform="translate(-8 -5.42)"/><path class="cls-8" d="M204.59,122.23l4.25.16c2,4.76,1,8.75-2.54,10.75-.21-1.23-1.23-.86-2-1,0-2.78-1.89-3.29-4.1-3.44A11.62,11.62,0,0,0,204.59,122.23Z" transform="translate(-8 -5.42)"/><path class="cls-2" d="M168.65,152.45l5.46-13.7c1.36,4.43.91,8.73.2,12.9-.44,2.6-3.46,2.09-5.53,2.53C168.74,153.6,168.69,153,168.65,152.45Z" transform="translate(-8 -5.42)"/><path class="cls-14" d="M200.21,128.69c2.21.15,4.1.66,4.1,3.44l-11.37.29-1.86-.17v-2.64Z" transform="translate(-8 -5.42)"/><path class="cls-14" d="M188.36,129.75c-.54,4.55-4,1.74-6.05,2.38C182.68,127.14,186.29,130.4,188.36,129.75Z" transform="translate(-8 -5.42)"/><path class="cls-2" d="M179.24,151.83l1.19.07c-.06,1-.45,1.76-1.61,1.79C178.71,153,178.52,152.31,179.24,151.83Z" transform="translate(-8 -5.42)"/><path class="cls-5" d="M168.65,152.45c0,.58.09,1.15.13,1.73C167.44,153.7,168.25,153.06,168.65,152.45Z" transform="translate(-8 -5.42)"/><path class="cls-13" d="M191.08,132.25l1.86.17c.84.91,2.51.63,3,2.08-.3,2.61-1.2,4.8-3.88,5.81C190.25,137.8,191.32,134.94,191.08,132.25Z" transform="translate(-8 -5.42)"/><path class="cls-11" d="M195.91,134.5c-.46-1.45-2.13-1.17-3-2.08l11.37-.29c.76.15,1.78-.22,2,1C203,134.81,199.19,132.68,195.91,134.5Z" transform="translate(-8 -5.42)"/><path class="cls-7" d="M88.46,119c-.39,4.68-3.88,8-8.21,7.89-4-.13-6.77-3-7-7.09-.25-4.87,2-7.38,7.28-8,.12,7.42.12,7.42,7.48,7.25Z" transform="translate(-8 -5.42)"/><path class="cls-4" d="M88.46,119,88,119c-7.36.17-7.36.17-7.48-7.25C85.69,111.69,87.83,113.64,88.46,119Z" transform="translate(-8 -5.42)"/><path class="cls-6" d="M62,111.88c-2-.8-5.67,1.06-5.64-1.41s3.73-1.28,5.76-1.25c2.18,0,6.32-1.14,6.18,1.07C68.08,113.45,64.08,110.8,62,111.88Z" transform="translate(-8 -5.42)"/><path class="cls-10" d="M68.49,114.22c-3.87,1.49-7.79,1-11.73.26C60.6,113,64.56,113.61,68.49,114.22Z" transform="translate(-8 -5.42)"/><path class="cls-10" d="M56.73,116.94c3.9-.8,7.84-1.24,11.75.1A20.19,20.19,0,0,1,56.73,116.94Z" transform="translate(-8 -5.42)"/><path class="cls-7" d="M75.11,59.05l9.79.06c0,.88,0,1.76,0,2.64l-.89.89-.21.39.22-.37.89-.89,2.61-.87V72.44c-1.2,0-2.71-.22-1.72,1.85l-12.51,0c1-2-.5-1.78-1.67-1.84L71.51,65a1.15,1.15,0,0,1,0-.52c1.75-.08-.34-4,2.72-2.75l.89.89.9.89c.29.3.59.6.89.89l.89.89c.7.76.48,2.56,2.24,2.06a1.26,1.26,0,0,0,.63-1.07c-.41-1.72-1.88-.69-2.86-1l-.89-.89L76,63.54l-.89-.9-.89-.89Z" transform="translate(-8 -5.42)"/><path class="cls-10" d="M71.48,64.52a1.15,1.15,0,0,0,0,.52c-.44,0-.87.14-1.31.15-6.74.23-8.38-1.89-6.74-8.61.23-.94.53-1.75,1.58-1.77,2.79-.07,5.59-.17,8.38,0,2.27.12,1.59,2,1.67,3.39C69.47,57.78,72.12,62.09,71.48,64.52Z" transform="translate(-8 -5.42)"/><path class="cls-9" d="M71.48,64.52c.64-2.43-2-6.74,3.61-6.34a8.42,8.42,0,0,1,0,.87c-.3.9-.59,1.8-.89,2.7l0,0C71.14,60.55,73.23,64.44,71.48,64.52Z" transform="translate(-8 -5.42)"/><path class="cls-9" d="M85.81,74.29c-1-2.07.52-1.81,1.72-1.85C87.33,73.41,88.22,75.38,85.81,74.29Z" transform="translate(-8 -5.42)"/><path class="cls-9" d="M84.91,61.75c0-.88,0-1.76,0-2.64,1.31,0,2.65-.13,2.63,1.79l-2.61.87Z" transform="translate(-8 -5.42)"/><path class="cls-9" d="M71.63,72.43c1.17.06,2.69-.21,1.67,1.84C72.12,74.22,71.53,73.64,71.63,72.43Z" transform="translate(-8 -5.42)"/><path class="cls-9" d="M66.37,98.32c-1.69-.57-4.53,1.1-5-1.4-.65-3.4-1.06-7.08.39-10.43.48-1.1,2.17-.48,3.31-.61,2.73-.33,5.64.86,8.17-1,2.17,2,4.8.88,7.18.89,3.12,0,4.51.9,4.55,4.29.08,8.29.22,8.29-8,8.28Z" transform="translate(-8 -5.42)"/><path class="cls-11" d="M35.85,82.22H29.54c-.7-1.85-3.21-2.75-2.74-5.21.64-2.1,1.27-4.2,1.91-6.3,2.72-.16,5.43-.21,7.94,1.12l1.65,3.45c-.52.75-.57,1.4.39,1.84Z" transform="translate(-8 -5.42)"/><path class="cls-5" d="M38.69,77.12c-1-.44-.91-1.09-.39-1.84a1.8,1.8,0,0,1,1.44,1.28Z" transform="translate(-8 -5.42)"/><path class="cls-6" d="M134.89,102.79a4.75,4.75,0,0,1-1.81,3.59c0-.89.07-1.78.1-2.67Z" transform="translate(-8 -5.42)"/><path class="cls-6" d="M135.78,100.12c0,1,.14,2-.9,2.7C134.88,101.82,134.7,100.76,135.78,100.12Z" transform="translate(-8 -5.42)"/><path class="cls-3" d="M139.62,129.76h17.45v.45H139.46Z" transform="translate(-8 -5.42)"/><path class="cls-9" d="M77.78,65.32c1,.31,2.45-.72,2.86,1A1.26,1.26,0,0,1,80,67.39c-1.76.5-1.54-1.3-2.24-2.06Z" transform="translate(-8 -5.42)"/><path class="cls-9" d="M84,62.66l-.22.37.21-.39Z" transform="translate(-8 -5.42)"/><path class="cls-9" d="M75.11,62.64l.89.9h0l-.9-.89Z" transform="translate(-8 -5.42)"/><path class="cls-9" d="M84,62.64l.89-.89v0l-.89.89Z" transform="translate(-8 -5.42)"/><path class="cls-9" d="M75.09,62.66l-.89-.89,0,0,.89.89Z" transform="translate(-8 -5.42)"/><path class="cls-9" d="M77.77,65.33c-.3-.29-.6-.59-.89-.89h0l.89.89Z" transform="translate(-8 -5.42)"/><path class="cls-9" d="M76,63.54l.89.89h0c-.3-.29-.6-.59-.89-.89Z" transform="translate(-8 -5.42)"/></svg>