<svg id="Capa_1" data-name="Capa 1" xmlns="http://www.w3.org/2000/svg" viewBox="0 0 209.31 144.94"><defs><style>.cls-1{fill:#fefefe;}.cls-2{fill:#e9f1f8;}.cls-3{fill:#f4804e;}.cls-4{fill:#273c67;}.cls-5{fill:#a5aec0;}.cls-6{fill:#dae6fc;}.cls-7{fill:#7698ec;}.cls-8{fill:#bbcdfe;}.cls-9{fill:#f79749;}.cls-10{fill:#2f5397;}.cls-11{fill:#aec1fa;}.cls-12{fill:#91b3f2;}.cls-13{fill:#d1a5a4;}.cls-14{fill:#6884f3;}.cls-15{fill:#e5ecfa;}.cls-16{fill:#b74d43;}</style></defs><title>11111</title><path class="cls-1" d="M181.76,149.14a33.89,33.89,0,0,0,11.8.05l2.63-.07c6.63,1,13.23.23,19.84.49v-1.37h-7.94a16,16,0,0,0,3.52-3.64c4.14-6.66,5.58-13.89,5.53-21.67-.12-16.38-7.71-28.83-19.73-39.18-3.79-3.27-7.52-6.65-11-10.26-4-4.19-5.07-8.84-2.57-14.61,4.09-9.47,3.15-18.9-3.25-27.09-5.37-6.88-12.58-11.52-20.65-15a98,98,0,0,0-29.87-7.36c.09-1.56,1.6-2.74,1.28-4.64a23.2,23.2,0,0,0-4.91,4.7c-1.74-.32-3.35.5-5,.62A44.13,44.13,0,0,0,92.63,22.94,23.66,23.66,0,0,1,80.38,29.4c-8.25,1.69-16.59,1.47-24.88,1.16C42,30.06,24,38.73,18.14,55.13A3.49,3.49,0,0,0,18,57.62c2.41,6,4.08,12.23,6.54,18.21,3,7.2,2.83,14.08-3.71,19.81a27.47,27.47,0,0,0-4.3,4.19c-8,10.94-10.9,22.82-6.85,36.11,1.35,4.45,3.95,8.25,5.65,12.49-1.83,1.17-4-.15-6.5,1.1,10.21,0,19.8,0,29.39,0,.27,0,.54-.29.81-.44l14.15.08c.74.63,1.63.42,2.46.42q36.74,0,73.46,0c.83,0,1.73.24,2.46-.41l5.87,0c.84.68,1.83.42,2.76.43q16.14,0,32.28,0a5.85,5.85,0,0,0,3.12-.39Z" transform="translate(-7.82 -4.75)"/><path class="cls-2" d="M130.07,9.39a98,98,0,0,1,29.87,7.36c8.07,3.52,15.28,8.16,20.65,15,6.4,8.19,7.34,17.62,3.25,27.09-2.5,5.77-1.48,10.42,2.57,14.61,3.47,3.61,7.2,7,11,10.26,12,10.35,19.61,22.8,19.73,39.18.05,7.78-1.39,15-5.53,21.67a16,16,0,0,1-3.52,3.64H196.57c-.13-1.53,2.43-3,.15-4.58-.16-5.14-.41-10.53-3.32-14.74a26.38,26.38,0,0,1-4.12-10.75c0-.9.09-1.8.14-2.69.06-1.63.12-3.25.19-4.87,1.88.11,1.59,1.59,1.66,2.76.15,2.2.2,4.4.29,6.6a7.4,7.4,0,0,0-.17.94c-.08,1.08-.12,2.47,1.19,2.54s1.31-1.34,1.3-2.39a7.77,7.77,0,0,0-.14-.95,24.15,24.15,0,0,0-.58-17.66c-1.26-3-2.65-6.37-6.75-6.76l-.08-3.42c1.5-1.56,3.8-3.13,1.26-5.38-1.22-1.08-3.19-1.16-4.91-.9s-2.1,1.23-1,2.66c-.74,2.69,1.16,4.93,1.28,7.47-2.15.38-3.37,2.09-4.89,3.39-1.82,1.56-3.34,1.77-4.11-1.08-.3-1.09-.5-2.31-1.52-3.08.13-1.2.25-2.39.38-3.59l2.14,0c1.57.6,3.11.57,3.41-1.37.37-2.35-2-1.57-3.07-2.2-2-1.35-4-2.65-6-4.07-1-.73-1.76-.77-2.22.45-.55,1.46-.93,3-1.47,4.46s-.13,2,1.33,2l3.72.39c-.2,1.13-.38,2.26-.61,3.39s-.47,2.36,1.27,2.56c0,.42.08.84.11,1.26.36,5.38.49,5.59,5.48,7.13,1.14.35,1,1.15,1,2q0,4.13-.07,8.24c0,1.76.08,3.52.11,5.29.3,8.36.81,16.7,1.75,25-1.07,1.47-2.91,1.32-4.33,2l-3.34-.12c-2.09-.74-2.24-4-5.05-3.82-.28-1.49-1.37-1.18-2.38-1.07l-.44-.37c.18-1.21,2.25-3.11-1.1-3.06a12.22,12.22,0,0,1-4.52-5.16c.26-4.27-1.91-8-2.55-12.1,2.57-1,5.3-1.69,7-4.05,3-4.1,2.65-9.62-1.13-13.8-4.67-5.15-8-11.18-11.76-17a1.21,1.21,0,0,0,1.33-1.29c.53-.07,1.22,0,1.55-.24,5.61-4.93,10.58-10.26,10.65-18.41,0-1.72,0-3.44,0-5.16-.85-4.58-2.58-8.66-6.42-11.58-1.21-3.54-4.37-5.1-7.28-6.74a21.73,21.73,0,0,0-16.51-2.27c-4.63,0-8.46,2-12.13,4.54a4.71,4.71,0,0,1-.63-.72c-2.48-4.36-6.23-6.35-11.19-5.67-4.48.62-6.87,3.68-8.66,7.61-3,6.56-6.27,13-9.43,19.44l-13.38,0L73.46,60.2c.87-2.22,2.11-4.3,2.52-6.78H66.73c-.28-1.38-1.68-2.33-1.46-3.89,2.74-2.13,0-4-.35-5.91s-1-3.56-3.44-3.45c-2.27.1-3.29,1.72-3.69,3.45A7.54,7.54,0,0,1,54.89,48c-1.79,1.44-2.85,3.25-1.22,5.54C52.52,60,52.52,60,57,60.51a12.19,12.19,0,0,0-.47,6c-2.49,1.65-5.31.25-7.91.87-1.37-.2-2.08.28-1.76,1.75s.66,2.88,1,4.31q1.34,5.31,2.68,10.62a1.27,1.27,0,0,1-1.14-.23c-2.43-1.83-4.82-.8-6.51.88s.23,3.44,1.13,5a6.42,6.42,0,0,0,1.08,1.14l-.29,2.06a5.35,5.35,0,0,0-2.72,3.73c-1.57,6.39-3.09,12.78-1.44,19.41a73.67,73.67,0,0,1-.52,15.21A36,36,0,0,0,39,146.38l-.06,1.86c-5.39.29-10.93.92-11.54-6.9-.08-1.05-.84-2.49-2.37-1.91s-.58,1.73-.3,2.7a4.65,4.65,0,0,1,0,1.18c-1,.16-2.46-.78-2.61.41-.22,1.86,2.17,2.27,3.09,3.93-3.28,1.63-6.71,0-9.91.78-1.7-4.24-4.3-8-5.65-12.49-4.05-13.29-1.13-25.17,6.85-36.11a27.47,27.47,0,0,1,4.3-4.19C27.33,89.91,27.46,83,24.5,75.83,22,69.85,20.37,63.6,18,57.62a3.49,3.49,0,0,1,.18-2.49C24,38.73,42,30.06,55.5,30.56c8.29.31,16.63.53,24.88-1.16a23.66,23.66,0,0,0,12.25-6.46,44.13,44.13,0,0,1,28.76-12.87c1.7-.12,3.31-.94,5-.63-2.85,3.87-5.75,7.71-8.53,11.63-.8,1.14-2.71,2.19-1.86,3.69s2.56.15,3.88.06c3.57-.23,3.48-.32,2.41,3-.94,2.91-2.52,5.67-2.88,9a3.83,3.83,0,0,0,2.52-2c2.8-3.48,5.19-7.26,8.27-10.55,1.28-1.36,3.77-2.84,2.82-4.9s-3.52-.61-5.34-.92a1.74,1.74,0,0,0-.32,0c-1.57.11-1.93-.58-1.25-1.92C127.38,14.14,128,11.39,130.07,9.39ZM89.24,61.27c.67-4.84,1.32-9,1.78-13.1.4-3.5-.14-3.91-3.27-2.31-2.23,1.14-2.53.24-2.46-1.71a19.6,19.6,0,0,0-1.11-8c-1,1-.71,2-.82,2.87-.49,3.89-.85,7.81-1.6,11.65-.23,1.15-1.64,2.35-.53,3.4s2.29-.23,3.26-1c1.72-1.35,2.34-1,2.84,1.22S87.23,58.7,89.24,61.27Z" transform="translate(-7.82 -4.75)"/><path class="cls-3" d="M130.07,9.39c-2,2-2.69,4.75-3.91,7.19-.68,1.34-.32,2,1.25,1.92a1.74,1.74,0,0,1,.32,0c1.82.31,4.44-1,5.34.92s-1.54,3.54-2.82,4.9c-3.08,3.29-5.47,7.07-8.27,10.55a3.83,3.83,0,0,1-2.52,2c.36-3.34,1.94-6.1,2.88-9,1.07-3.34,1.16-3.25-2.41-3-1.32.09-3.07,1.35-3.88-.06s1.06-2.55,1.86-3.69c2.78-3.92,5.68-7.76,8.53-11.63a23.41,23.41,0,0,1,4.91-4.69C131.67,6.65,130.16,7.83,130.07,9.39Z" transform="translate(-7.82 -4.75)"/><path class="cls-4" d="M137.39,149.15l-5.87,0c0-.29,0-.58.08-.87,3.21-.61,3.87-2.4,2.37-5.17-.44-2.56-.09-5.22-1.12-7.68-.06-.43-.12-.86-.17-1.28l-1.27-9.64-.66-5.38a26.52,26.52,0,0,1,.85-6.75l1.93,0a9.76,9.76,0,0,0,.6,4.69,43.78,43.78,0,0,1,4.1,18.64c-1,4.16-.73,8.36-.35,12.56Z" transform="translate(-7.82 -4.75)"/><path class="cls-5" d="M131.6,148.3c0,.29,0,.58-.08.87-.73.65-1.63.41-2.46.41q-36.72,0-73.46,0c-.83,0-1.72.21-2.46-.42l.06-.89,30.17,0,7.41.06a9.48,9.48,0,0,0,3.73.66c6.29,0,12.57,0,18.86-.06,1.13,0,2.36.41,3.36-.53Z" transform="translate(-7.82 -4.75)"/><path class="cls-5" d="M137.39,149.15l.49-.88,6,0,3.16,0c3.21,0,6.42-.07,9.61.12,2.3.13,3.46-.8,4.1-2.94a16.63,16.63,0,0,1,2.39-5.52c3.35-.05,1.28,1.85,1.1,3.06-.3.3-.69.75-.28,1s.54-.35.72-.65c1-.11,2.1-.42,2.38,1.07-.93,1.35-1.93,2.41-3.82,1.63-.72-.29-.73.46-.86.92-.25,1.26.84.88,1.41,1.14l8.32.13,3.34.12.15.8a5.85,5.85,0,0,1-3.12.39q-16.14,0-32.28,0C139.22,149.57,138.23,149.83,137.39,149.15Z" transform="translate(-7.82 -4.75)"/><path class="cls-5" d="M15.29,148.43c3.2-.73,6.63.85,9.91-.78-.92-1.66-3.31-2.07-3.09-3.93.15-1.19,1.61-.25,2.61-.41a4.65,4.65,0,0,0,0-1.18c-.28-1-1.16-2.15.3-2.7s2.29.86,2.37,1.91c.61,7.82,6.15,7.19,11.54,6.9l.08.83c-.27.15-.54.44-.81.44-9.59,0-19.18,0-29.39,0C11.24,148.28,13.46,149.6,15.29,148.43Z" transform="translate(-7.82 -4.75)"/><path class="cls-4" d="M39,149.07l-.08-.83.06-1.86h3c.56.88,1.56,1.05,2.36,1.55,2.19,1.36,2.14.05,1.94-1.54h2.94l4,1.85-.06.89Z" transform="translate(-7.82 -4.75)"/><path class="cls-5" d="M196.57,148.25H216v1.37c-6.61-.26-13.21.51-19.84-.49Z" transform="translate(-7.82 -4.75)"/><path class="cls-4" d="M196.57,148.25l-.38.87-2.63.08c-.09-.3-.17-.6-.25-.9,1.89-.76,1.34-2.42,1.42-3.84l2-.79C199,145.28,196.44,146.72,196.57,148.25Z" transform="translate(-7.82 -4.75)"/><path class="cls-4" d="M175.55,149.18l-.15-.8c1.42-.73,3.26-.58,4.33-2l2.43.07c-.06.62-.13,1.24-.19,1.86l-.21.88Z" transform="translate(-7.82 -4.75)"/><path class="cls-5" d="M181.76,149.14l.21-.88,3.6,0h7.74c.08.3.16.6.25.9A34.14,34.14,0,0,1,181.76,149.14Z" transform="translate(-7.82 -4.75)"/><path class="cls-3" d="M91.46,67.39c3.16-6.47,6.45-12.88,9.43-19.44,1.79-3.93,4.18-7,8.66-7.61,5-.68,8.71,1.31,11.19,5.67a4.71,4.71,0,0,0,.63.72l4.79,7.11.9,1.26v0l8.77,12.3a94.33,94.33,0,0,0,7.31,10.91l7,9.59c3.75,5.77,7.09,11.8,11.76,17,3.78,4.18,4.15,9.7,1.13,13.8-1.74,2.36-4.47,3.08-7,4.05l-12.26.76a14.41,14.41,0,0,1-.34-5.43c3.2-.24,6.41-.39,9.6-.72,5.83-.59,7.31-3.84,4-8.74-10-14.88-20.28-29.55-30.66-44.16-3.65-5.14-7-10.51-10.54-15.72-2.74-4-7.25-3.67-9.34.58-3.44,7-6.26,14.21-10,21.07-3.42,6.27-5.94,13-8.86,19.58l-4.4-3.81q2.27-5.2,4.54-10.43A22.33,22.33,0,0,0,90.32,70Z" transform="translate(-7.82 -4.75)"/><path class="cls-6" d="M150.17,87.88l-7-9.59c.09-2.4-1.1-4.54-1.41-6.83-.49-3.7-2.45-4.87-5.9-4.08l-8.77-12.3c2.47.2,5.29,1.56,6.56-2.15.19-.55,1.11-.32,1.76-.15,1,.26,1.88,1,3,.56,0-1.5-1.35-1.53-2.18-2.06-.64-.42-1.61-.93-1.14-1.64,2.05-3.09-.42-5.11-1.56-7.45A21.73,21.73,0,0,1,150,44.46c2.91,1.64,6.07,3.2,7.28,6.74-1.94-.06-3.38,1.63-5.37,1.54-.49,0-.87.55-.95,1.13-.11.82.49,1,1.1,1.27,1.21.53,2.75.49,3.37,2.06,1.47,3.73,5,4.54,8.27,5.58,0,1.72,0,3.44,0,5.16-2.71-1.31-5.75-2-7.1-5.36-.62-1.54-9.24-1.69-10.38-.46-.14.16-.33.35-.33.53,0,1.46-.91,2.41-1.69,3.57-1.14,1.69-.4,3.3,1.64,4,1.1.36,2.27.51,3.4.77s1.94.64,1.35,1.94c-1.06,2.34,0,4,1.82,5.19s1.27,1.92-.12,2.91c-2.15,1.55-2.85,3.4-.79,5.59A1.21,1.21,0,0,1,150.17,87.88ZM138,46.42c.56,1.26,0,3.81,2.11,3.8,1.64,0,4.2-1.22,4.11-3.21-.12-2.55-3.06-2.08-4.83-2.65C138,43.9,138.06,45.28,138,46.42Z" transform="translate(-7.82 -4.75)"/><path class="cls-7" d="M191.56,120c-.09-2.2-.14-4.4-.29-6.6-.07-1.17.22-2.65-1.66-2.76-.29-1.18-.13-2.64-1.94-3-.55,2.92.38,5.43,1.75,7.86,0,.89-.1,1.79-.14,2.69-3.08,1.18-5.95-.11-8.88-.73a3.55,3.55,0,0,0-2.53-1.43q0-4.11.07-8.24c0-.83.1-1.63-1-2-5-1.54-5.12-1.75-5.48-7.13,0-.42-.07-.84-.11-1.26.38-.68.75-1.37,1.12-2,1,.77,1.22,2,1.52,3.08.77,2.85,2.29,2.64,4.11,1.08,1.52-1.3,2.74-3,4.89-3.39a2.51,2.51,0,0,0,3.46-.43c4.1.39,5.49,3.72,6.75,6.76a24.2,24.2,0,0,1,.59,17.66Z" transform="translate(-7.82 -4.75)"/><path class="cls-8" d="M151.5,86.59c-2.06-2.19-1.36-4,.79-5.59,1.39-1,1.92-1.71.12-2.91s-2.88-2.85-1.82-5.19c.59-1.3-.32-1.7-1.35-1.94s-2.3-.41-3.4-.77c-2-.67-2.78-2.28-1.64-4,.78-1.16,1.65-2.11,1.69-3.57,0-.18.19-.37.33-.53,1.14-1.23,9.76-1.08,10.38.46,1.35,3.35,4.39,4,7.1,5.36-.07,8.15-5,13.48-10.65,18.41C152.72,86.64,152,86.52,151.5,86.59Z" transform="translate(-7.82 -4.75)"/><path class="cls-9" d="M40.64,116.07c-1.65-6.63-.13-13,1.44-19.41a5.35,5.35,0,0,1,2.72-3.73h3.82l.59.91a1.21,1.21,0,0,0,1.33,1,4.57,4.57,0,0,0,1.57,2.52c-1.81,1.57-.57,3.32-.29,5-.09,3.1,2.45,3.81,4.52,5l2.53,1.87,1.53,1.84-.92.69c-2.58-.33-4.77-2.24-7.52-1.86-2.56-2.19-5.6-3.85-7.49-6.82.76,4.66,3.54,7.71,7.49,9.87l-.09,2.93c-3.1,1.33-6.35,1-9.59.83Z" transform="translate(-7.82 -4.75)"/><path class="cls-10" d="M180.4,117.45c2.93.62,5.8,1.91,8.88.73a26.38,26.38,0,0,0,4.12,10.75c2.91,4.21,3.16,9.6,3.32,14.74l-2,.79c-3.67-4.14-6.2-9-8.54-13.93-.37-.78-.43-1.95-1.73-2a12,12,0,0,0-1.46-4.76C182.05,121.71,180.46,119.89,180.4,117.45Z" transform="translate(-7.82 -4.75)"/><path class="cls-1" d="M163.09,139.94a16.63,16.63,0,0,0-2.39,5.52c-.64,2.14-1.8,3.07-4.1,2.94-3.19-.19-6.4-.1-9.61-.12.39-1.05,1.42-2.48,1-3.09-1.82-3.06-.53-6.49-1.46-9.6,3.76-.57,7.65.71,11.33-.82h.66A12.22,12.22,0,0,0,163.09,139.94Z" transform="translate(-7.82 -4.75)"/><path class="cls-10" d="M73.46,60.2q2.31,3.59,4.63,7.16a5.41,5.41,0,0,0,1.37,2.57c.71,2.28,2.9,3.84,3.11,6.36,0,.71.3,1.68-.81,1.72s-.58-.72-.49-1.33c.2-1.37-.79-1.53-1.81-1.57-2.39-1.63-3.57-4.88-6.95-5.18.82-1.71,0-3.14-1.11-4.2-.9-.88-1.66.06-2.18.91-4.24.67-8.48,1.51-12.71-.11a12.19,12.19,0,0,1,.47-6l6.25-.37Z" transform="translate(-7.82 -4.75)"/><path class="cls-9" d="M63.23,60.14,57,60.51c-4.46-.54-4.46-.54-3.31-7,1.07-1.67,1.13-4.08,3.27-4.94,1.64-.65,3-1.14,3.26-3.33.19-1.47,2.18-1.67,3.41-1.47.79.12.68,1.67.15,2.25-2.15,2.41.08,2.73,1.51,3.48-.22,1.56,1.18,2.51,1.46,3.89Z" transform="translate(-7.82 -4.75)"/><path class="cls-11" d="M158.57,134.78h-.66c-3.78-1.42-7.7-.23-11.53-.64-1.55-3.4-3.24-6.76-2.62-10.69l12.26-.76C156.66,126.76,158.83,130.51,158.57,134.78Z" transform="translate(-7.82 -4.75)"/><path class="cls-11" d="M56.51,66.53c4.23,1.62,8.47.78,12.71.11.1.19.19.38.28.57L68.7,70c-3.59,0-7.19-.08-10.79-.09-6.32,0-6.43.17-4,6.34,1.41,7.67,4.27,15,5.24,22.76a3.09,3.09,0,0,1-2.74.3C55.71,94,53.7,89.07,52.79,83.86c-1-5.6-3.59-10.78-4.19-16.46C51.2,66.78,54,68.18,56.51,66.53Z" transform="translate(-7.82 -4.75)"/><path class="cls-8" d="M133.5,42.19c1.14,2.34,3.61,4.36,1.56,7.45-.47.71.5,1.22,1.14,1.64.83.53,2.16.56,2.18,2.06-1.13.44-2-.3-3-.56-.65-.17-1.57-.4-1.76.15-1.27,3.71-4.09,2.35-6.56,2.15v0c0-.63-.18-1.14-.9-1.26l-4.79-7.11C125,44.21,128.87,42.15,133.5,42.19Z" transform="translate(-7.82 -4.75)"/><path class="cls-11" d="M89.24,61.27c-2-2.57-1.43-5-1.91-7S86.21,51.68,84.49,53c-1,.77-2,2.17-3.26,1s.3-2.25.53-3.4c.75-3.84,1.11-7.76,1.6-11.65.11-.91-.17-1.92.82-2.87a19.6,19.6,0,0,1,1.11,8c-.07,2,.23,2.85,2.46,1.71,3.13-1.6,3.67-1.19,3.27,2.31C90.56,52.31,89.91,56.43,89.24,61.27Z" transform="translate(-7.82 -4.75)"/><path class="cls-10" d="M182.16,146.4l-2.43-.07c-.94-8.32-1.45-16.66-1.75-25l6.26,10.24a34.85,34.85,0,0,1-.52,9.67C182.86,142.84,183.4,144.89,182.16,146.4Z" transform="translate(-7.82 -4.75)"/><path class="cls-4" d="M63.23,60.14l3.5-6.72H76c-.41,2.48-1.65,4.56-2.52,6.78Z" transform="translate(-7.82 -4.75)"/><path class="cls-8" d="M163.71,62.78c-3.31-1-6.8-1.85-8.27-5.58-.62-1.57-2.16-1.53-3.37-2.06-.61-.27-1.21-.45-1.1-1.27.08-.58.46-1.16.95-1.13,2,.09,3.43-1.6,5.37-1.54C161.13,54.12,162.86,58.2,163.71,62.78Z" transform="translate(-7.82 -4.75)"/><path class="cls-4" d="M40.64,116.07l1.64.63c2.23,7.36,2,14.93,1.85,22.48a6.23,6.23,0,0,1-.62.15c-2.18-2.24-2.32-5.34-3.39-8.05A73.67,73.67,0,0,0,40.64,116.07Z" transform="translate(-7.82 -4.75)"/><path class="cls-4" d="M65.27,49.53c-1.43-.75-3.66-1.07-1.51-3.48.53-.58.64-2.13-.15-2.25-1.23-.2-3.22,0-3.41,1.47-.3,2.19-1.62,2.68-3.26,3.33-2.14.86-2.2,3.27-3.27,4.94C52,51.25,53.1,49.44,54.89,48a7.54,7.54,0,0,0,2.9-4.38c.4-1.73,1.42-3.35,3.69-3.45,2.47-.11,3.08,1.64,3.44,3.45S68,47.4,65.27,49.53Z" transform="translate(-7.82 -4.75)"/><path class="cls-12" d="M48.6,67.4c.6,5.68,3.21,10.86,4.19,16.46.91,5.21,2.92,10.18,3.59,15.45l-2-.82c-1.19-4.86-1.79-9.88-3.87-14.5l0,.09q-1.34-5.31-2.68-10.62c-.35-1.43-.7-2.87-1-4.31S47.23,67.2,48.6,67.4Z" transform="translate(-7.82 -4.75)"/><path class="cls-10" d="M40.12,131.28c1.07,2.71,1.21,5.81,3.39,8.05q-.78,3.53-1.58,7.06H39A36,36,0,0,1,40.12,131.28Z" transform="translate(-7.82 -4.75)"/><path class="cls-4" d="M45.09,90.87A6.42,6.42,0,0,1,44,89.73c-.9-1.56-2.89-3.25-1.13-5S47,82,49.39,83.85a1.27,1.27,0,0,0,1.14.23l0-.09a2,2,0,0,0-1.21,2.38C47.43,87.43,47.58,90.38,45.09,90.87Z" transform="translate(-7.82 -4.75)"/><path class="cls-11" d="M166.93,91.07c-1.46,0-1.83-.69-1.33-2s.92-3,1.47-4.46c.46-1.22,1.21-1.18,2.22-.45,2,1.42,4,2.72,6,4.07-.26.54-.52,1.07-.77,1.61C171.92,89.79,169.28,89.58,166.93,91.07Z" transform="translate(-7.82 -4.75)"/><path class="cls-4" d="M184.24,131.55,178,121.31c0-1.77-.07-3.53-.11-5.29a3.55,3.55,0,0,1,2.53,1.43c.06,2.44,1.65,4.26,2.6,6.34a12,12,0,0,1,1.46,4.76C184.39,129.55,184.31,130.55,184.24,131.55Z" transform="translate(-7.82 -4.75)"/><path class="cls-11" d="M79.46,69.93a5.41,5.41,0,0,1-1.37-2.57l13.37,0L90.32,70Z" transform="translate(-7.82 -4.75)"/><path class="cls-13" d="M186.41,95.7a2.51,2.51,0,0,1-3.46.43c-.12-2.54-2-4.78-1.28-7.47,2.93-.56,4.09,1.14,4.66,3.62Z" transform="translate(-7.82 -4.75)"/><path class="cls-4" d="M186.33,92.28c-.57-2.48-1.73-4.18-4.66-3.62-1.09-1.43-.7-2.4,1-2.66s3.69-.18,4.91.9C190.13,89.15,187.83,90.72,186.33,92.28Z" transform="translate(-7.82 -4.75)"/><path class="cls-13" d="M45.09,90.87c2.49-.49,2.34-3.44,4.21-4.5,2.05,1.48,2.05,3.14.19,4.68a2.72,2.72,0,0,0-.87,1.87H44.8C44.9,92.24,45,91.55,45.09,90.87Z" transform="translate(-7.82 -4.75)"/><path class="cls-1" d="M172.06,148.26l-8.32-.13c-.09-.85-.63-1.15-1.41-1.14.13-.46.14-1.21.86-.92,1.89.78,2.89-.28,3.82-1.63C169.82,144.23,170,147.52,172.06,148.26Z" transform="translate(-7.82 -4.75)"/><path class="cls-9" d="M172.43,95.36c-.37.68-.74,1.37-1.12,2-1.74-.2-1.5-1.37-1.27-2.56s.41-2.26.6-3.39l2.17.31Z" transform="translate(-7.82 -4.75)"/><path class="cls-9" d="M174.52,89.79c.25-.54.51-1.07.77-1.61,1.12.63,3.44-.15,3.07,2.2-.3,1.94-1.84,2-3.41,1.37C174.81,91.1,174.66,90.44,174.52,89.79Z" transform="translate(-7.82 -4.75)"/><path class="cls-12" d="M174.52,89.79c.14.65.29,1.31.43,2l-2.14,0-2.17-.31-3.71-.39C169.28,89.58,171.92,89.79,174.52,89.79Z" transform="translate(-7.82 -4.75)"/><path class="cls-14" d="M189.42,115.49c-1.37-2.43-2.3-4.94-1.75-7.86,1.81.35,1.65,1.81,1.94,3C189.54,112.24,189.48,113.86,189.42,115.49Z" transform="translate(-7.82 -4.75)"/><path class="cls-13" d="M191.56,120l2.19.14c0,.32.12.63.13.95,0,1.05.11,2.47-1.3,2.39s-1.27-1.46-1.19-2.54A7.4,7.4,0,0,1,191.56,120Z" transform="translate(-7.82 -4.75)"/><path class="cls-15" d="M87.65,89.9c2.92-6.55,5.44-13.31,8.86-19.58,3.74-6.86,6.56-14.1,10-21.07,2.09-4.25,6.6-4.58,9.34-.58,3.56,5.21,6.89,10.58,10.54,15.72,10.38,14.61,20.67,29.28,30.66,44.16,3.28,4.9,1.8,8.15-4,8.74-3.19.33-6.4.48-9.6.72a16,16,0,0,0-2.73-8.3,34.17,34.17,0,0,1,3.68-.93c2.92-.4,3.19-2.09,2-4.24-1.6-2.92-3.15-5.93-6.23-7.67,2.5-2.21,2.5-4.3-.11-7.67-1.17-1.52-2.41-3-4.74-2.43-1.77.45-3.71,1.29-3.44,3.15.35,2.33-2,5.39,1.51,7a.77.77,0,0,0,0,.34c-1.74.13-2.55,1.3-3.09,2.77a6.23,6.23,0,0,1-1.9,3.16c-.76.39-2.09-.53-2.35.83-.36,1.84,3.63,7.64,5.6,8.36a26.52,26.52,0,0,0-.85,6.75q-16.94,1.32-33.87,2.63c-5.54.44-11.07,1-16.62,1.33-4.69.28-6.74-2.69-5-7,.78-1.87,1.6-3.73,2.4-5.59a1.32,1.32,0,0,0,.5-.22,11.72,11.72,0,0,0,8.21-3.65C90.65,102.25,91.07,96.84,87.65,89.9Zm26.9,7s.89,0,1.74-.1c4.38-.35,4.43-.36,4.26-4.61-.39-9.7-.88-19.4-1.23-29.11-.06-1.86-.73-2.44-2.5-2.25-3,.3-5.95.63-8.93.69-2.34,0-2.78.87-2.46,3.12,1.31,9.29,2.47,18.6,3.57,27.92C109.53,97.06,109.41,97.07,114.55,96.87Zm8.82,11.78a6.35,6.35,0,0,0-6.8-6.49c-4.89.13-7.68,2.57-7.65,6.7s2.92,6.58,7.45,6.49C120.59,115.26,123.42,112.55,123.37,108.65Z" transform="translate(-7.82 -4.75)"/><path class="cls-11" d="M131.41,124.53c.42,3.21.85,6.42,1.27,9.64l-68-.07a27,27,0,0,0-.37-4.08c-1-5.48-3.35-10.69-3.48-16.36a2.47,2.47,0,0,0,.65-2.68l-.05,0,1.35.07c.44,6.79,1.12,7.63,6.13,7.63,1,6.72,5.34,10.51,11.36,10Q105.86,126.59,131.41,124.53Z" transform="translate(-7.82 -4.75)"/><path class="cls-3" d="M131.41,124.53q-25.54,2.09-51.1,4.2c-6,.5-10.4-3.29-11.36-10,.16-3.23,2-5.91,3-8.86l3.08.44,2.67.26c-.8,1.86-1.62,3.72-2.4,5.59-1.77,4.27.28,7.24,5,7,5.55-.34,11.08-.89,16.62-1.33q16.94-1.34,33.87-2.63Z" transform="translate(-7.82 -4.75)"/><path class="cls-10" d="M140.69,109.71a16,16,0,0,1,2.73,8.3,14.41,14.41,0,0,0,.34,5.43c-.62,3.93,1.07,7.29,2.62,10.69.07.49.14,1,.2,1.46.93,3.11-.36,6.54,1.46,9.6.37.61-.66,2-1,3.09l-3.16,0c1.36-1,1.87-2.53.84-3.71-1.89-2.16-2.62-4.86-3.95-7.27-.56-1-.83-2.36-2.49-1.56a43.78,43.78,0,0,0-4.1-18.64,9.76,9.76,0,0,1-.6-4.69c1.39-.6,5,1.3,3.25-2.87Z" transform="translate(-7.82 -4.75)"/><path class="cls-1" d="M132.85,135.45c1,2.46.68,5.12,1.12,7.68-1.84-.1-3.5.57-5.24,1-4.74,1.15-9.61,2.4-14.33-.24-1.64-.92-2.64-.65-2.75,1.4,0,.64,0,1.29-.64,1.71-1.35-1.35-.82-3.07-1-4.67l.68-5.7.42-1.14Z" transform="translate(-7.82 -4.75)"/><path class="cls-7" d="M110.06,142.32c.13,1.6-.4,3.32,1,4.67l.17.64H96.07a7.6,7.6,0,0,0,1.4.58l19.24.09,0,.06c-1,.94-2.23.52-3.36.53-6.29,0-12.57,0-18.86.06a9.48,9.48,0,0,1-3.73-.66,20.61,20.61,0,0,1,0-5.38c.7-8.83,1.52-7.51-6.72-7.17l-20-.29c.23-.45.45-.9.67-1.35l68,.07c0,.42.11.85.17,1.28l-21.69,0-14.38,0c-4.43,0-4.43,0-4.42,4.5-1.33,5-1.22,5.2,3.9,4.5C100.87,143.81,105.46,143,110.06,142.32Z" transform="translate(-7.82 -4.75)"/><path class="cls-2" d="M111.18,147.63,111,147c.62-.42.61-1.07.64-1.71.11-2.05,1.11-2.32,2.75-1.4,4.72,2.64,9.59,1.39,14.33.24,1.74-.42,3.4-1.09,5.24-1,1.5,2.77.84,4.56-2.37,5.17l-14.87.06,0-.06C115,147,113,148,111.18,147.63Z" transform="translate(-7.82 -4.75)"/><path class="cls-16" d="M136.78,109.51c1.75,4.17-1.86,2.27-3.25,2.87l-1.93,0c-2-.72-6-6.52-5.6-8.36.26-1.36,1.59-.44,2.35-.83.41,0,.83.07,1.25.07,4.68,0,4.71,0,5.33,4.9C135.09,109.45,136.31,108.88,136.78,109.51Z" transform="translate(-7.82 -4.75)"/><path class="cls-1" d="M138.23,135.71c1.66-.8,1.93.54,2.49,1.56,1.33,2.41,2.06,5.11,3.95,7.27,1,1.18.52,2.71-.84,3.71l-6,0C137.5,144.07,137.23,139.87,138.23,135.71Z" transform="translate(-7.82 -4.75)"/><path class="cls-2" d="M64.05,135.45l20,.29c1.57,3.3,1,6.47-.43,9.67a8.67,8.67,0,0,0-.24,2.82l-30.17,0-4-1.85c-.38-8,2.57-15.73,2.55-23.73,1.4-2.77,4.65-3.89,6-6.71l1.19-.28c.41,4.68,1.89,9.14,2.94,13.69C62.32,131.44,62,133.91,64.05,135.45Z" transform="translate(-7.82 -4.75)"/><path class="cls-1" d="M83.37,148.23a8.67,8.67,0,0,1,.24-2.82c1.4-3.2,2-6.37.43-9.67,8.24-.34,7.42-1.66,6.72,7.17a20.61,20.61,0,0,0,0,5.38Z" transform="translate(-7.82 -4.75)"/><path class="cls-2" d="M162.33,147c.78,0,1.32.29,1.41,1.14C163.17,147.87,162.08,148.25,162.33,147Z" transform="translate(-7.82 -4.75)"/><path class="cls-2" d="M164.63,143.37c-.18.3-.22,1-.72.65s0-.72.28-1Z" transform="translate(-7.82 -4.75)"/><path class="cls-10" d="M51.72,122.68c0,8-2.93,15.68-2.55,23.73H46.23c-1.48-2.18-.43-5.09-2.1-7.22.14-7.55.38-15.12-1.85-22.48,3.24.17,6.49.5,9.59-.83,0,.93.09,1.87.13,2.8-.34.63-.69,1.25-1,1.88s-1.9.56-1.29,1.68C49.92,122.63,51,122.54,51.72,122.68Z" transform="translate(-7.82 -4.75)"/><path class="cls-2" d="M44.13,139.18c1.67,2.13.62,5,2.1,7.22.2,1.59.25,2.9-1.94,1.54-.8-.5-1.8-.67-2.36-1.55q.8-3.54,1.58-7.06A6.23,6.23,0,0,0,44.13,139.18Z" transform="translate(-7.82 -4.75)"/><path class="cls-15" d="M184.24,131.55c.07-1,.15-2,.22-3,1.3,0,1.36,1.2,1.73,2,2.34,5,4.87,9.79,8.54,13.93-.08,1.42.47,3.08-1.42,3.84h-7.74a14.62,14.62,0,0,1-.66-4.61c.06-1,.35-2.21-1.19-2.46A34.85,34.85,0,0,0,184.24,131.55Z" transform="translate(-7.82 -4.75)"/><path class="cls-2" d="M183.72,141.22c1.54.25,1.25,1.49,1.19,2.46a14.62,14.62,0,0,0,.66,4.61l-3.6,0c.06-.62.13-1.24.19-1.86C183.4,144.89,182.86,142.84,183.72,141.22Z" transform="translate(-7.82 -4.75)"/><path class="cls-7" d="M59.12,99c-1-7.76-3.83-15.09-5.24-22.76L68,76.18l.06.09a10.3,10.3,0,0,1-.8,1.32c-.62.74-.8,1.48-.05,2.2.36.35.86.88,1.23.84,1.22-.14.68-1.31.94-2a16.34,16.34,0,0,0,.49-2.12l.78-.82c2.91-.35,5.92.65,8.78-.56,1,0,2,.2,1.81,1.57-.09.61-.57,1.36.49,1.33s.81-1,.81-1.72a14.63,14.63,0,0,1,5.22-.63q-2.27,5.22-4.54,10.43c-1.44-.39-2.87-.8-4.3-1.18-6.83-1.81-17.44,5.89-15.6,12.83C61.9,98,60.69,99.13,59.12,99Z" transform="translate(-7.82 -4.75)"/><path class="cls-10" d="M63.35,97.74C61.51,90.8,72.12,83.1,79,84.91c1.43.38,2.86.79,4.3,1.18l4.4,3.81c3.42,6.94,3,12.35-1.25,16.79a11.72,11.72,0,0,1-8.21,3.65l.56-1.17c8.68-.39,13.33-11.9,8-17.78a6.51,6.51,0,0,0-4-3.73c-7-3.31-14.45-1-17.67,5.68-2.89,6,.58,12.6,7.69,15.29.65.68,2.06.36,2.23,1.67l-3.08-.44c-2.9-2.47-5.52-1.8-8,.7a3.52,3.52,0,0,1-1.12.53L61.47,111a2.23,2.23,0,0,1,.89-1.79c1-.8,2-1.59,3-2.41.39-.32,1.27-.36.39-1.28-1.51-1.57-1.89-3.79-2.89-5.65Z" transform="translate(-7.82 -4.75)"/><path class="cls-14" d="M87.79,75.66a14.63,14.63,0,0,0-5.22.63c-.21-2.52-2.4-4.08-3.11-6.36l10.86,0A22.33,22.33,0,0,1,87.79,75.66Z" transform="translate(-7.82 -4.75)"/><path class="cls-11" d="M135.82,67.38c3.45-.79,5.41.38,5.9,4.08.31,2.29,1.5,4.43,1.41,6.83A94.33,94.33,0,0,1,135.82,67.38Z" transform="translate(-7.82 -4.75)"/><path class="cls-6" d="M126.16,53.84c.72.12.9.63.9,1.26Z" transform="translate(-7.82 -4.75)"/><path class="cls-8" d="M138,46.42c.08-1.14,0-2.52,1.39-2.06,1.77.57,4.71.1,4.83,2.65.09,2-2.47,3.19-4.11,3.21C138,50.23,138.54,47.68,138,46.42Z" transform="translate(-7.82 -4.75)"/><path class="cls-3" d="M63.35,97.74l-.51,2.15-2.65,2.2-2.53,1.24-2,.08-3.87-1c-.28-1.7-1.52-3.45.29-5l2.26,1.12,2,.82a3.09,3.09,0,0,0,2.74-.3C60.69,99.13,61.9,98,63.35,97.74Z" transform="translate(-7.82 -4.75)"/><path class="cls-15" d="M52,118.67c0-.93-.09-1.87-.13-2.8l.09-2.93v-3c2.75-.38,4.94,1.53,7.52,1.86-.82,1-1.63,2.07-2.44,3.1C55,115.69,54.27,118.18,52,118.67Z" transform="translate(-7.82 -4.75)"/><path class="cls-15" d="M54.37,98.49l-2.26-1.12a4.57,4.57,0,0,1-1.57-2.52c0-.94-.47-1.22-1.33-1l-.59-.91a2.72,2.72,0,0,1,.87-1.87c1.86-1.54,1.86-3.2-.19-4.68A2,2,0,0,1,50.51,84C52.58,88.61,53.18,93.63,54.37,98.49Z" transform="translate(-7.82 -4.75)"/><path class="cls-3" d="M52,109.89v3c-4-2.16-6.73-5.21-7.49-9.87C46.36,106,49.4,107.7,52,109.89Z" transform="translate(-7.82 -4.75)"/><path class="cls-11" d="M57.66,103.33l2.53-1.24c.89,2.33.87,4.94,2.17,7.14a2.23,2.23,0,0,0-.89,1.79l.05,0-1.12.08-1.53-1.84C58.93,107.16,58,105.31,57.66,103.33Z" transform="translate(-7.82 -4.75)"/><path class="cls-2" d="M51.82,102.39l3.87,1c.22,1.32.43,2.63.65,3.94C54.27,106.2,51.73,105.49,51.82,102.39Z" transform="translate(-7.82 -4.75)"/><path class="cls-12" d="M56.34,107.35c-.22-1.31-.43-2.62-.65-3.94l2-.08c.32,2,1.27,3.83,1.21,5.89Z" transform="translate(-7.82 -4.75)"/><path class="cls-10" d="M60.4,111.06l1.12-.08a2.47,2.47,0,0,1-.65,2.68,4.36,4.36,0,0,0-2,2l-1.19.28L57,114.85c.81-1,1.62-2.07,2.44-3.1Z" transform="translate(-7.82 -4.75)"/><path class="cls-13" d="M49.21,93.83c.86-.2,1.35.08,1.33,1A1.21,1.21,0,0,1,49.21,93.83Z" transform="translate(-7.82 -4.75)"/><path class="cls-7" d="M146.58,135.59c-.06-.49-.13-1-.2-1.46,3.83.41,7.75-.78,11.53.64C154.23,136.3,150.34,135,146.58,135.59Z" transform="translate(-7.82 -4.75)"/><path class="cls-14" d="M79.46,75.11c-2.86,1.21-5.87.21-8.78.56.51-1.94,1.7-3.66,1.82-5.73h0C75.89,70.23,77.07,73.48,79.46,75.11Z" transform="translate(-7.82 -4.75)"/><path class="cls-4" d="M69.5,67.21c-.09-.19-.18-.38-.28-.57.52-.85,1.28-1.79,2.18-.91,1.1,1.06,1.93,2.49,1.11,4.2h0C70.71,69.89,71,67.55,69.5,67.21Z" transform="translate(-7.82 -4.75)"/><path class="cls-14" d="M68,76.18l-14.15.07c-2.4-6.17-2.29-6.36,4-6.34,3.6,0,7.2.06,10.79.09C68.48,72.06,68.25,74.12,68,76.18Z" transform="translate(-7.82 -4.75)"/><path class="cls-10" d="M68,76.18c.22-2.06.45-4.12.67-6.18.27-.93.54-1.86.8-2.79,1.52.34,1.21,2.68,3,2.73-.12,2.07-1.31,3.79-1.82,5.73l-.78.82-1.81-.22Z" transform="translate(-7.82 -4.75)"/><path class="cls-3" d="M114.55,96.87c-5.14.2-5,.19-5.55-4.34-1.1-9.32-2.26-18.63-3.57-27.92-.32-2.25.12-3.09,2.46-3.12,3-.06,6-.39,8.93-.69,1.77-.19,2.44.39,2.5,2.25.35,9.71.84,19.41,1.23,29.11.17,4.25.12,4.26-4.26,4.61C115.44,96.84,114.59,96.86,114.55,96.87Z" transform="translate(-7.82 -4.75)"/><path class="cls-3" d="M123.37,108.65c0,3.9-2.78,6.61-7,6.7-4.53.09-7.42-2.42-7.45-6.49s2.76-6.57,7.65-6.7A6.35,6.35,0,0,1,123.37,108.65Z" transform="translate(-7.82 -4.75)"/><path class="cls-9" d="M136.78,109.51c-.47-.63-1.69-.06-1.85-1.33-.62-4.85-.65-4.85-5.33-4.9-.42,0-.84,0-1.25-.07a6.23,6.23,0,0,0,1.9-3.16c.54-1.47,1.35-2.64,3.09-2.77s3.31.76,4.74-.6l2.06.19c3.08,1.74,4.63,4.75,6.23,7.67,1.19,2.15.92,3.84-2,4.24a34.17,34.17,0,0,0-3.68.93Z" transform="translate(-7.82 -4.75)"/><path class="cls-13" d="M82.77,87.66a6.51,6.51,0,0,1,4,3.73c-1.2,2.82-2.47,5.61-3.57,8.46-1.24,3.23-4.11,5.68-4.45,9.32l-.56,1.17a1.32,1.32,0,0,1-.5.22L75,110.3c-.17-1.31-1.58-1-2.23-1.67C75.79,101.48,78.33,94.12,82.77,87.66Z" transform="translate(-7.82 -4.75)"/><path class="cls-4" d="M140.14,96.87l-2.06-.19c.44-3.5-1.36-5.45-4.51-6.53-1.24,1.82-.45,3.49.57,5,.88,1.27.48,1.64-.78,1.83-3.54-1.63-1.16-4.69-1.51-7-.27-1.86,1.67-2.7,3.44-3.15,2.33-.6,3.57.91,4.74,2.43C142.64,92.57,142.64,94.66,140.14,96.87Z" transform="translate(-7.82 -4.75)"/><path class="cls-13" d="M133.36,96.94c1.26-.19,1.66-.56.78-1.83-1-1.47-1.81-3.14-.57-5,3.15,1.08,5,3,4.51,6.53-1.43,1.36-3.13.59-4.74.6A.77.77,0,0,1,133.36,96.94Z" transform="translate(-7.82 -4.75)"/><path class="cls-7" d="M62.82,111.09a3.52,3.52,0,0,0,1.12-.53c2.48-2.5,5.1-3.17,8-.7-1,3-2.83,5.63-3,8.86C63.94,118.72,63.26,117.88,62.82,111.09Z" transform="translate(-7.82 -4.75)"/><path class="cls-12" d="M58.9,115.69a4.36,4.36,0,0,1,2-2c.13,5.67,2.43,10.88,3.48,16.36a27,27,0,0,1,.37,4.08c-.22.45-.44.9-.67,1.35-2-1.54-1.73-4-2.21-6.07C60.79,124.83,59.31,120.37,58.9,115.69Z" transform="translate(-7.82 -4.75)"/><path class="cls-12" d="M110.06,142.32c-4.6.71-9.19,1.49-13.8,2.11-5.12.7-5.23.52-3.9-4.5l18.38-3.31Z" transform="translate(-7.82 -4.75)"/><path class="cls-14" d="M110.74,136.62l-18.38,3.31c0-4.5,0-4.5,4.42-4.5l14.38,0Z" transform="translate(-7.82 -4.75)"/><path class="cls-11" d="M111.18,147.63c1.83.33,3.81-.6,5.53.67l-19.24-.09a7.6,7.6,0,0,1-1.4-.58Z" transform="translate(-7.82 -4.75)"/><path class="cls-12" d="M57,114.85l.67,1.12c-1.34,2.82-4.59,3.94-6,6.71-.7-.14-1.8-.05-2-.45-.61-1.12.95-1,1.29-1.68s.67-1.25,1-1.88C54.27,118.18,55,115.69,57,114.85Z" transform="translate(-7.82 -4.75)"/><path class="cls-13" d="M68.09,76.27l1.81.22a16.34,16.34,0,0,1-.49,2.12c-.26.71.28,1.88-.94,2-.37,0-.87-.49-1.23-.84-.75-.72-.57-1.46.05-2.2A10.3,10.3,0,0,0,68.09,76.27Z" transform="translate(-7.82 -4.75)"/><path class="cls-12" d="M82.77,87.66c-4.44,6.46-7,13.82-10,21-7.11-2.69-10.58-9.27-7.69-15.29C68.32,86.64,75.76,84.35,82.77,87.66Z" transform="translate(-7.82 -4.75)"/><path class="cls-8" d="M78.75,109.17c.34-3.64,3.21-6.09,4.45-9.32,1.1-2.85,2.37-5.64,3.57-8.46C92.08,97.27,87.43,108.78,78.75,109.17Z" transform="translate(-7.82 -4.75)"/><path class="cls-7" d="M62.36,109.23c-1.3-2.2-1.28-4.81-2.17-7.14l2.65-2.2c1,1.86,1.38,4.08,2.89,5.65.88.92,0,1-.39,1.28C64.36,107.64,63.35,108.43,62.36,109.23Z" transform="translate(-7.82 -4.75)"/></svg>