<svg id="Capa_1" data-name="Capa 1" xmlns="http://www.w3.org/2000/svg" viewBox="0 0 229.91 219.2"><defs><style>.cls-1{fill:#fdfefe;}.cls-2{fill:#dfebfe;}.cls-3{fill:#5071ae;}.cls-4{fill:#7e9cdb;}.cls-5{fill:#afccfd;}.cls-6{fill:#f5b8b0;}</style></defs><title>Img-servpub</title><path class="cls-1" d="M39.53,165.72c-.15.27-.4.51-.4.75s.22.51.34.76c.14-.24.39-.47.41-.71S39.67,166,39.53,165.72Zm.89,5.67.21-.67-.37.11Z" transform="translate(-5.09 -17.04)"/><path class="cls-2" d="M219,35c0,35.16.06,70.32-.06,105.49,0,4.37.63,6.66,5.87,6.78,3.29.07,7,.09,10.19,1.73v7c-2.13,5.39-2.13,11.18-3,16.79-1.11,7.27-2.16,8.06-9.28,6.64-5-1-10-1.75-15-2.6.16-1,.31-1.94.46-2.92a83.22,83.22,0,0,1,16.26,1.94c1.19.23,2.79.66,3.3-1.2a1.13,1.13,0,0,0-1-1.45c-6-.47-11.63-3.36-17.79-2.19-.89-.4-1-1.25-1.2-2.07.11-.63.21-1.26.32-1.89,4-.48,7.88,1.64,11.93.9,1.77,2,4.43.47,6.46,1.64a1.42,1.42,0,0,0,2.3-.89,2,2,0,0,0-1.8-2.45c-2.26-.27-4.56-.23-6.84-.32-3.81-1.67-7.89-1.78-11.92-2.12.28-.93.57-1.86.85-2.79l8-.07c3.27,1.66,6.93,1.3,10.39,2,.91.18,2.15.06,2.31-1.22.2-1.74-1.28-1.44-2.34-1.75a37.44,37.44,0,0,0-10.22-1.06c-2.23-1.3-4.78-1.38-7.22-1.89.11-1.31.23-2.62.35-3.93,3.71.62,7.41,1.33,11.14,1.83,1.36.18,3.2.52,3.48-1.68s-.94-3-2.88-3.19c-3.75-.4-7.5-.83-11.25-1.25-.63-10-6-18-11-26.22-2.32-3.79-5.08-5.48-9.41-4a3.09,3.09,0,0,1-1.19-2.69c5,.26,3.48-5,5.9-6.88,2,0,4,.07,6,0,4.84-.23,8.06-3.44,7.9-7.78-.17-5.07-3-8.09-8.13-8.11-17.59-.09-35.19,0-52.78,0-2.14,0-4.44.07-5,2.9-4.84,1.19-2.9,5.08-2.69,7.79.26,3.35,2.87,5.19,6.27,5.19,10.62,0,21.25-.15,31.87-.24l.35-.09c2,3.09,1.79,7.32,5.13,9.73.12.09-.43,1.12-.67,1.72-2.9-.45-5.51-.34-7.4,2.49-4.46,6.72-9,13.38-11.25,21.27-4.83,1.06-9.51-.51-14.26-.81-3.33-.22-5.25.46-5.5,4.37-.37,5.91-1.31,11.78-2,17.67l-36.68,0q-3.18-9.71-6.37-19.42c-2.62-8-2.09-16-.94-24.15.22-1.59.59-2.85,2.35-3.4,5.34-1.7,9.08-5.33,11.83-10.09,2.16,0,4.33,0,6.49,0,5.5-.16,7.5-2.15,7.54-7.54,0-3.49,0-7-.07-10.49,5.89-4.2,10.45-9.47,13-16.36,1,2.82-2.06,7.12,3.05,8.47.25,2.75,2.2,2.94,4.34,2.94,17.82,0,35.64,0,53.46,0,5.28,0,8.06-3.1,7.9-8.19-.17-4.92-2.79-7.67-7.9-7.69-17.82-.08-35.64,0-53.46,0-2.13,0-4.09.19-4.34,2.94l-3.1,1.24c0-1.77.1-3.53.16-5.3C141.39,53,127.68,41.7,115.12,43c-4.32-.17-8.17,1.48-12,3.1-7.5,0-15-.11-22.49,0-5.22.05-7.54,2.15-7.56,7.13-.05,15,.07,30,.12,45-2.89,7-4.69,14.4-10.42,20-2.53,2.46-2.45,6.25-1.23,9.4a39.49,39.49,0,0,1,2.06,8.62c.59,3.77,1.91,7.09,5.69,8.69,1.42.6,1.86,1.33,1.1,2.59-3.14,5.19-3.51,11.51-6.78,16.63-6,.08-6.36-4.44-6.49-8.55-.26-8.09,0-16.2-.11-24.3,0-1.74.67-3.67-.91-5.16,1.51-3.26.91-6.63.5-10A79.59,79.59,0,0,0,51,138.08c1.48,2.32,0,4.51-.48,6.65-1.7,7.38-4.65,14.71-3.41,22.35,1.49,9.19.12,18.47,1.71,27.64.51,2.9,1.68,3,3.4,2,4.5-2.69,8.55-1,12.69.75,1.36.57,2.77,1,4.16,1.55,0,1.08.06,2.19-.79,3.05A7.74,7.74,0,0,1,64,201c-5.7-3.52-10.82-.88-15.93,1.51-3.57,1.66-1.69,4.93-2,7.51a1.45,1.45,0,0,0,1.85,1.71c2.84-.88,5.52.46,8.33.34,4.54-.21,6.35,2,4.34,6-1.37,2.67-1.46,5.37-2.1,8-1.67,7-1.58,7,5.64,6.85L67,233l24.15,0L95,233h80l10.86-.05h19c1.81.47,5.18-.88,5.17,1.38,0,3-3.41,1.61-5.28,1.61q-84.67.12-169.37.07a2.09,2.09,0,0,1-.5,0c-1.76-.4-4.86,1-4.91-1.6,0-2.19,3-1.33,4.66-1.33,2.15,0,2.8-.51,2.52-2.83-.48-3.93-.76-7.79-2.54-11.49-2.16-4.51-.56-6.67,4.51-6.75l2.49,0c3,0,3.7-1.89,3.31-4.36-.42-2.71-2.33-3-4.51-2.22-2.67.91-5.29,2-7.94,2.93-1.38.5-3.24,1.49-4-.23-1-2.29,1.54-2.57,2.88-3.17a51.82,51.82,0,0,1,8.81-3.39c4-1,4.16-3.56,3.64-6.83-1-6.49-1.9-13-2.41-19.58,2.83,7.47,3.26,15.39,4,23.35,2.47-.71,1.5-2.52,1.57-3.77.58-11-1-21.84-2.11-32.72-.36-3.71-2.77-7.08-2.86-11-.31-11.09-5.92-20.83-8.09-31.48a61.21,61.21,0,0,1,3.8,7.93c2.59,5.68,3.13,12.09,6.3,17.55,2.22,2.06-.11,5.2,1.84,7.57,2.83-1.92-1.35-4.75.94-6.54.33-.36.9-.68,1-1.08,2-13.13,4.9-26,9.73-38.45A11,11,0,0,0,57,96.88l.18-62c1.66,0,3.33.14,5,.14ZM174.52,60c8.31,0,16.63,0,24.95,0,5.75,0,7.56-1.81,7.57-7.32S205.76,46,199.63,46q-25.2,0-50.4,0c-6,0-8.31,2-8.22,6.81.1,5.18,2.39,7.12,8.56,7.14C157.88,60,166.2,60,174.52,60Z" transform="translate(-5.09 -17.04)"/><path class="cls-3" d="M57.26,31.78C56.74,15.25,58,17.1,71.39,17.1H210.22c8.55,0,9,.44,9,9.08,0,2-.07,4-.11,6q-78.69,0-157.38,0C60.23,32.18,58.75,31.92,57.26,31.78Z" transform="translate(-5.09 -17.04)"/><path class="cls-4" d="M142.8,165.05c.7-5.89,1.64-11.76,2-17.67.25-3.91,2.17-4.59,5.5-4.37,4.75.3,9.43,1.87,14.26.81,2.16,2.12,4.82,1.07,7.31,1.15q-1.62,9.6-3.23,19.2c-3.15-.08-6.39.26-9.42-.38a44.22,44.22,0,0,0-9.37-.7c-1.07,0-2.17.44-2.26,1.53-.12,1.42,1.21,1.21,2.16,1.32l18.17,2c.26,2.83,2.52,3.33,4.63,3.65,10.46,1.59,20.93,3.07,31.39,4.58,0,.89.17,1.65,1.2,1.86-.07.49,0,1.26-.24,1.43-6.66,4.15-5,10.4-4.08,16.38.54,3.4,1.55,6.73,2.35,10.1.41,1.35.82,2.7,1.24,4.05.56,4.72,2.68,9.13,2.77,13.95l-2.26.46-9.27-15.31-2.53-4.22-5.73-10.79a25.67,25.67,0,0,0-1,11.81l0,3.2-.68,15.82h-2.65l-4-15.93c-.17-1-.33-2-.49-3-1.37-8.15-2.79-16.29-4.07-24.45-.38-2.44-1.14-3.48-4-3.69-6.24-.47-12.43-1.6-18.69-2.19C142.09,174.77,142.11,174.55,142.8,165.05Zm9.78,3a19.16,19.16,0,0,0-1.92,0c-1.21.16-3.07-.58-3.26,1.27-.21,2,1.76,1.3,2.89,1.65,4,1.22,8.18.66,12.24,1.31,1,.16,2,.54,2.26-.9s-.46-2.15-1.87-2.29C159.33,168.75,155.74,168.37,152.58,168.05Zm2-10c-2.14,0-3.46,0-4.78,0-.9,0-1.59.48-1.5,1.53a1.26,1.26,0,0,0,1.33,1.18c4.45.06,8.76,1.7,13.26,1.1.87-.11,1.7-.35,1.76-1.34s-.7-1.38-1.59-1.48ZM153.24,153a6.82,6.82,0,0,1-1.87-.3c-1.53-.51-2.8-.29-3,1.4-.26,2,1.46,1.78,2.74,1.86s2.33,0,3.48.12c2.43.25,6.36,2.57,6.74-.54C161.63,153,157,153.17,153.24,153Zm1.51-2,2,.13c1.14.1,2.82,1.46,3.06-.87s-1.62-2-3.11-2.13a32.73,32.73,0,0,1-4.43-.43c-1.35-.28-2.77-.91-3.06,1.12-.25,1.81,1.08,2.18,2.56,2.18Z" transform="translate(-5.09 -17.04)"/><path class="cls-5" d="M41,104C36.29,91.07,31.71,78.1,29.19,64.61,26.72,51.41,34.45,42.78,44.25,35c1.53,2.81,0,5.22-.38,7.39-3,17,0,34,.08,51,0,1.91.75,4-.92,5.69a6.85,6.85,0,0,1-1-2.17C41,82.44,35.62,68.63,35.42,54c-.37,5.76-.58,11.44.7,17.2A237.65,237.65,0,0,1,41,104Z" transform="translate(-5.09 -17.04)"/><path class="cls-5" d="M44,145c-3.17-5.46-3.71-11.87-6.3-17.55a61.21,61.21,0,0,0-3.8-7.93C36.08,130.17,41.69,139.91,42,151c-4.17-6.63-5.74-14.4-9.32-21.33a39,39,0,0,0-10.8-12.8A48.59,48.59,0,0,1,5.72,94.53c-.44-1.25-1.15-2.44,0-4.31C20.52,99.9,36.61,108.07,42,127.06l0-.06.14,2.9c0,1.14-.34,2.35.91,3.1.07,1,.13,1.94.19,2.92,0,1.74-.8,3.6.8,5.08ZM26,110l-1-1-.42-.23L25,109l1,1,1,1,1,1,1,1,1,1,1,1a1.94,1.94,0,0,0,1,2,1.25,1.25,0,0,0,.16.35c.05.06.17.05.26.08L32,117a2,2,0,0,0-1-2l-1-1c-.33-.33-.67-.66-1-1s-.67-.66-1-1l-1-1Z" transform="translate(-5.09 -17.04)"/><path class="cls-5" d="M57.26,31.78c1.49.14,3,.4,4.46.4q78.69,0,157.38,0c0,.94-.07,1.88-.1,2.83H62.13c-1.66,0-3.33-.09-5-.14Z" transform="translate(-5.09 -17.04)"/><path class="cls-5" d="M57,96.88a11,11,0,0,1,.52,9.62c-4.83,12.44-7.73,25.32-9.73,38.45-.06.4-.63.72-1,1.08.51-10.75.34-21.59,2.36-32.18C50.33,107.7,52.6,101.73,57,96.88Z" transform="translate(-5.09 -17.04)"/><path class="cls-2" d="M43,133c-1.25-.75-1-2-.91-3.09,1.24-1,1.12-2-.14-2.91l0,.06c0-7.72.43-15.44-1-23.1a237.65,237.65,0,0,0-4.88-32.74c-1.28-5.76-1.07-11.44-.7-17.2.2,14.61,5.53,28.42,6.64,42.87a6.85,6.85,0,0,0,1,2.17A119.85,119.85,0,0,1,43,133Z" transform="translate(-5.09 -17.04)"/><path class="cls-2" d="M204.42,210c-.42-1.35-.83-2.7-1.24-4.05,7.1,0,14.21,0,21.32.07,1.23,0,3.08-.42,3.15,1.43s-1.8,1.49-3,1.55C217.89,209.31,211.08,208.25,204.42,210Z" transform="translate(-5.09 -17.04)"/><path class="cls-6" d="M204.93,224.41l2.26-.46c3.49,6.07,3.49,6.07-2.36,9h-5.64c-.16-1.6,1.12-1.67,2.15-2.19C203.87,229.46,205.57,227.56,204.93,224.41Z" transform="translate(-5.09 -17.04)"/><path class="cls-6" d="M205.15,178c-1-.21-1.21-1-1.2-1.86,1.92-1.35-.21-2.62-.07-3.94l1-2.34c0-.27.09-.54.15-.8l2.7-.16c.18.82.31,1.67,1.2,2.07-.25,1-.51,1.94-.77,2.9s-.3,2-.46,2.92Z" transform="translate(-5.09 -17.04)"/><path class="cls-2" d="M44,141c-1.6-1.48-.84-3.34-.8-5.08C45.94,137.22,45.42,139,44,141Z" transform="translate(-5.09 -17.04)"/><path class="cls-2" d="M39.53,165.72c.14.29.36.55.35.8s-.27.47-.41.71c-.12-.25-.35-.51-.34-.76S39.38,166,39.53,165.72Z" transform="translate(-5.09 -17.04)"/><path class="cls-2" d="M40.42,171.39l-.16-.56.37-.11Z" transform="translate(-5.09 -17.04)"/><path class="cls-1" d="M179.05,209l4,15.93c-.22,2.86-1.81,4.43-4.53,5.18-1.52.42-3.36.74-3.55,2.91H95c-2.21-2.64-3.63-5.54-3.14-9.1l4.5-31.84c3.68-2.53,5.19-6.71,7.66-10.16,1.87-2.64,3-3.68,5.08,0,3.51,6.39,7.35,12.61,11.33,18.72,6.63,10.18,4,11.16,15.34,2.9,6.3-4.57,6.34-4.77,11.92.71,3.52,3.46,7.33,5.2,12.42,4.87C166.38,208.7,172.72,209,179.05,209Z" transform="translate(-5.09 -17.04)"/><path class="cls-4" d="M140,67.9c-.06,1.77-.11,3.53-.16,5.29l0,.38c-2.51,6.89-7.07,12.16-13,16.36-4.89,1.06-8,4-9.69,8.7-1.17,3.2-2.83,6.23-4.27,9.34-2.75,4.76-6.49,8.39-11.83,10.09-1.76.55-2.13,1.81-2.35,3.4-1.15,8.11-1.68,16.18.94,24.15q3.21,9.7,6.37,19.42c.31,6.34-5,3.93-8,5.11,0-5.81,0-11.63-1.18-17.36.12-4.59-2.15-8.61-3-13-.36-1.77-1.4-3.66-.16-5.27,3.69-4.79,1.11-8.66-1.62-12.51-.69-1-1-3.07-2.6-2.38s-4.61,1.31-4.31,3.53c1.33,9.85-1.43,18.83-5.11,27.7-3.42,2.33-2,5.51-1.46,8.51,1.6,8.29.37,10.21-7.52,11.59-7.82-.84-8.31-1.3-7.55-6.93,3.27-5.12,3.64-11.44,6.78-16.63.76-1.26.32-2-1.1-2.59-3.78-1.6-5.1-4.92-5.69-8.69a39.49,39.49,0,0,0-2.06-8.62c-1.22-3.15-1.3-6.94,1.23-9.4,5.73-5.58,7.53-13,10.42-20a6.05,6.05,0,0,0,.94-.3c9.68-5.32,12-4.31,14.93,6.42.47,1.76.7,3.8,3.19,3.67,2.22-.11,3.37-1.32,4-3.63,1.41-5.42,3.2-10.75,4.84-16.11,1.65-.27,2.35-1,1.55-2.75-1.15-2.45-3.09-3.11-5.6-2.59-4.8-3.87-6.24-9.06-5.88-15h9.81c.33,1.11.73,2.2,1,3.32,1.62,6.79,6.61,10.09,12.88,10.49,5.62.35,10.64-2.06,13.07-7.89C129.38,72.12,129,70,129,68Zm-38.36,37.5c-.14.92-.9,2.07.68,2.38a5,5,0,0,0,4.94-1.73c2.78-3.68,5.26-7.59,7.81-11.45,1-1.51.58-2.2-1.32-2.61-9.36-2-9.33-2.09-10.9,7.61C102.56,101.55,102.07,103.47,101.66,105.4Zm-22,9.19c1.34-.63,2.65-1.37,4-1.88,2.76-1,3.84-2.86,3.44-5.76-.29-2.11.1-4.62-2.24-5.67-2.61-1.18-4.54.61-6.75,1.9-4.1,2.39-5.23,4.4-.74,7.54C78.44,111.47,78.84,113.2,79.61,114.59Z" transform="translate(-5.09 -17.04)"/><path class="cls-1" d="M98.14,170.14c3-1.18,8.29,1.23,8-5.11l36.68,0c-.69,9.5-.71,9.72,9,10.64,6.26.59,12.45,1.72,18.69,2.19,2.84.21,3.6,1.25,4,3.69,1.28,8.16,2.7,16.3,4.06,24.45-5,0-10-.38-14.93.08-5.33.5-9.42-1.23-13.51-4.51-9.21-7.39-9.38-7.28-18.37.19-2.94,2.45-4.9,2.5-7-1.16-4.44-7.75-9.16-15.34-13.92-22.9-4.06-6.42-4.42-6.31-8.82.17-1.26,1.86-1.89,4.33-4.41,5.13Z" transform="translate(-5.09 -17.04)"/><path class="cls-3" d="M98.14,170.14,97.6,183l-1.26,9-4.5,31.84-2.48-.25-1.5-16.58a10.2,10.2,0,0,0-.52-5.13c.1-8.33-1.31-16.53-2.38-24.86a131.64,131.64,0,0,1-8,24.86A7.9,7.9,0,0,0,75.07,206c-3.37,5.47-5.22,11.74-9,17l-1.93-1.06q2.09-9.93,4.16-19.86c.85-.86.77-2,.79-3.05,3.83-9.12,3.2-18.56,2-28,7.89-1.38,9.12-3.3,7.52-11.59-.58-3-2-6.18,1.46-8.51,5.42,2.37,11.09,2.55,16.85,1.89C98.14,158.51,98.15,164.33,98.14,170.14Z" transform="translate(-5.09 -17.04)"/><path class="cls-5" d="M101,88.2c-1.64,5.36-3.43,10.69-4.84,16.11-.6,2.31-1.75,3.52-4,3.63-2.49.13-2.72-1.91-3.19-3.67-2.89-10.73-5.25-11.74-14.93-6.42a6.05,6.05,0,0,1-.94.3c0-15-.17-30-.12-45,0-5,2.34-7.08,7.56-7.13,7.5-.07,15,0,22.49,0-7.36,5.43-12.72,12-12,21.83C90.74,73.8,92.18,79,97,82.86,96.47,86.05,98.53,87.29,101,88.2Z" transform="translate(-5.09 -17.04)"/><path class="cls-1" d="M71.13,171c1.17,9.48,1.8,18.92-2,28-1.39-.52-2.8-1-4.16-1.55-4.14-1.76-8.19-3.44-12.69-.75-1.72,1-2.89.89-3.4-2-1.59-9.17-.22-18.45-1.71-27.64-1.24-7.64,1.71-15,3.41-22.35.5-2.14,2-4.33.48-6.65,2.75-3.56,3.11-8.13,5-12,1.58,1.49.9,3.42.91,5.16.07,8.1-.15,16.21.11,24.3.13,4.11.5,8.63,6.49,8.55C62.82,169.69,63.31,170.15,71.13,171Z" transform="translate(-5.09 -17.04)"/><path class="cls-5" d="M174.52,60c-8.32,0-16.64,0-25,0-6.17,0-8.46-2-8.56-7.14-.09-4.78,2.26-6.79,8.22-6.81q25.2,0,50.4,0c6.13,0,7.41,1.22,7.41,6.63S205.22,60,199.47,60C191.15,60,182.83,60,174.52,60Z" transform="translate(-5.09 -17.04)"/><path class="cls-1" d="M87.86,207.06l1.5,16.58c-2.83,3.76.81,6.28,1.78,9.31L67,233c-2.35-3.14-1.55-6.57-.91-10,3.77-5.25,5.62-11.52,9-17,2.27.8,4.59,1.51,6.82,2.43S86.26,209.25,87.86,207.06Z" transform="translate(-5.09 -17.04)"/><path class="cls-3" d="M207.73,168.94l-2.7.16c-.07-1-.15-1.93-.23-2.89,0-1.15,0-2.29,0-3.44l-.16-3.41.1-3.63c-.8-12.44-.83-12.49-9.45-12.77-1.42-7.42-4.6-14.41-5.42-22l.47-2.43c4.33-1.46,7.09.23,9.41,4,5,8.2,10.38,16.2,11,26.22a6.81,6.81,0,0,0-.49,4.29c-.12,1.31-.24,2.62-.35,3.93-1.23,1.13-.82,2.62-.88,4-.28.93-.57,1.86-.85,2.79-.05,1.08-.09,2.16-.13,3.24C207.94,167.68,207.84,168.31,207.73,168.94Z" transform="translate(-5.09 -17.04)"/><path class="cls-1" d="M204.93,224.41c.64,3.15-1.06,5.05-3.59,6.34-1,.52-2.31.59-2.15,2.19H185.85c0-2.68-.09-5.35-.13-8q.34-7.9.68-15.82h9.25Q200.3,216.75,204.93,224.41Z" transform="translate(-5.09 -17.04)"/><path class="cls-1" d="M140,67.9,129,68c-.24-1.69.7-3.64-1.08-5-1.26-7.05-7.32-8-12.62-10L115.12,43C127.68,41.7,141.39,53,140,67.9Z" transform="translate(-5.09 -17.04)"/><path class="cls-1" d="M68.31,202.08q-2.09,9.93-4.16,19.86c-3,3.67-2.24,7.33,0,11-7.22.14-7.31.12-5.64-6.85.64-2.67.73-5.37,2.1-8,2-3.94.2-6.19-4.34-6-2.81.12-5.49-1.22-8.33-.34A1.45,1.45,0,0,1,46.09,210c.31-2.58-1.57-5.85,2-7.51,5.11-2.39,10.23-5,15.93-1.51A7.74,7.74,0,0,0,68.31,202.08Z" transform="translate(-5.09 -17.04)"/><path class="cls-3" d="M115.12,43,115.3,53c-8.54,1.34-13.39,6.25-14.39,14.88H91.1c-.73-9.88,4.63-16.4,12-21.83C107,44.46,110.8,42.81,115.12,43Z" transform="translate(-5.09 -17.04)"/><path class="cls-5" d="M143,72c.25-2.75,2.21-2.94,4.34-2.94,17.82,0,35.64,0,53.46,0,5.11,0,7.73,2.77,7.9,7.69.16,5.09-2.62,8.16-7.9,8.19-17.82.09-35.64,0-53.46,0-2.14,0-4.09-.19-4.34-2.94L143,82a25.16,25.16,0,0,0,4.84,1q26.2.11,52.4,0c4,0,5.92-1.88,5.87-6.21-.06-5-3-5.73-6.87-5.73-16.8,0-33.6,0-50.4,0A28.37,28.37,0,0,0,143,72Z" transform="translate(-5.09 -17.04)"/><path class="cls-3" d="M171.88,145c-2.49-.08-5.15,1-7.31-1.15,2.24-7.89,6.79-14.55,11.25-21.27,1.89-2.83,4.5-2.94,7.4-2.5a2.94,2.94,0,0,0,0,.89c-2.1,6.38-1.33,12.85-.61,19.31a25,25,0,0,1-4.43-.22C174,139.09,171.92,140.67,171.88,145Z" transform="translate(-5.09 -17.04)"/><path class="cls-5" d="M143,96c.62-2.82,2.92-2.89,5.06-2.89,17.59,0,35.19-.08,52.78,0,5.13,0,8,3,8.13,8.11.16,4.34-3.06,7.55-7.9,7.78-2,.1-4,0-6,0,0-.64-.09-1.28-.14-1.91,1.83,0,3.66-.14,5.49-.06,4,.15,5.74-1.72,5.69-5.72-.07-4.84-1.34-6.24-6.77-6.26-16.81-.06-33.62,0-50.43-.06-2.06,0-3.9.68-5.85,1Z" transform="translate(-5.09 -17.04)"/><path class="cls-5" d="M113,108c1.44-3.11,3.1-6.14,4.27-9.34,1.73-4.7,4.8-7.64,9.69-8.7,0,3.5.09,7,.07,10.49,0,5.39-2,7.38-7.54,7.54C117.32,108,115.15,108,113,108Z" transform="translate(-5.09 -17.04)"/><path class="cls-6" d="M183.25,120.94a2.94,2.94,0,0,1,0-.89c.24-.59.79-1.62.67-1.71-3.34-2.41-3.16-6.64-5.13-9.72.24-1.47,1.19-2.12,2.53-2.69,3.41-1.45,6,1.39,9.11,1.79,2.22.28-.59,3.11-1.05,4.79a5.78,5.78,0,0,0-.21,3.36,3.09,3.09,0,0,0,1.19,2.69c-.16.81-.32,1.62-.47,2.43A5.29,5.29,0,0,1,183.25,120.94Z" transform="translate(-5.09 -17.04)"/><path class="cls-3" d="M189.14,115.87a5.78,5.78,0,0,1,.21-3.36c.46-1.68,3.27-4.51,1.05-4.79-3.09-.4-5.7-3.24-9.11-1.79-1.34.57-2.29,1.22-2.53,2.69l-.35.08c-.16-.57-.31-1.14-.47-1.71-.08-1.7-2.66-.38-2.67-2.21,1-1.28,2.48-.51,3.64-1,1.65.07,3.29.2,4.94.21,5.81,0,5.81,0,3-5.08,6-.57,5.8,5,8,8.16,0,.63.09,1.27.14,1.91C192.62,110.89,194.09,116.13,189.14,115.87Z" transform="translate(-5.09 -17.04)"/><path class="cls-5" d="M177.94,107c.16.57.31,1.14.47,1.71-10.62.09-21.25.23-31.87.24-3.4,0-6-1.84-6.27-5.19-.21-2.71-2.15-6.6,2.69-7.79L143,96c-2.47,8.68-.8,11,8,11Z" transform="translate(-5.09 -17.04)"/><path class="cls-5" d="M210.26,153.09a6.81,6.81,0,0,1,.49-4.29c3.75.42,7.5.85,11.25,1.25,1.94.2,3.13,1.13,2.88,3.19s-2.12,1.86-3.48,1.68C217.67,154.42,214,153.71,210.26,153.09Z" transform="translate(-5.09 -17.04)"/><path class="cls-5" d="M208.16,173.91c.26-1,.52-1.93.77-2.9,6.16-1.17,11.83,1.72,17.79,2.19a1.13,1.13,0,0,1,1,1.45c-.51,1.86-2.11,1.43-3.3,1.2A83.22,83.22,0,0,0,208.16,173.91Z" transform="translate(-5.09 -17.04)"/><path class="cls-6" d="M185.72,224.92c0,2.68.09,5.35.13,8L175,233c.19-2.17,2-2.49,3.55-2.91,2.72-.75,4.31-2.32,4.53-5.18Z" transform="translate(-5.09 -17.04)"/><path class="cls-5" d="M56.07,126.05c-1.93,3.9-2.29,8.47-5,12A79.59,79.59,0,0,1,56.57,116C57,119.42,57.58,122.79,56.07,126.05Z" transform="translate(-5.09 -17.04)"/><path class="cls-5" d="M217.13,158.91A37.44,37.44,0,0,1,227.35,160c1.06.31,2.54,0,2.34,1.75-.16,1.28-1.4,1.4-2.31,1.22-3.46-.69-7.12-.33-10.39-2C217,160.27,217.08,159.59,217.13,158.91Z" transform="translate(-5.09 -17.04)"/><path class="cls-4" d="M208.05,167.05c0-1.08.08-2.16.13-3.24,4,.34,8.11.45,11.92,2.12l-.12,2C215.93,168.69,212.09,166.57,208.05,167.05Z" transform="translate(-5.09 -17.04)"/><path class="cls-6" d="M64.15,232.94c-2.24-3.67-3-7.33,0-11L66.08,223c-.64,3.42-1.44,6.85.91,10Z" transform="translate(-5.09 -17.04)"/><path class="cls-6" d="M91.14,233c-1-3-4.61-5.55-1.78-9.31l2.48.25c-.49,3.56.93,6.46,3.14,9.1Z" transform="translate(-5.09 -17.04)"/><path class="cls-5" d="M220,168l.12-2c2.28.09,4.58,0,6.84.32a2,2,0,0,1,1.8,2.45,1.42,1.42,0,0,1-2.3.89C224.41,168.42,221.75,169.92,220,168Z" transform="translate(-5.09 -17.04)"/><path class="cls-4" d="M217.13,158.91c0,.68-.09,1.36-.14,2l-8,.07c.06-1.38-.35-2.87.88-4C212.35,157.53,214.9,157.61,217.13,158.91Z" transform="translate(-5.09 -17.04)"/><path class="cls-5" d="M139.91,73.57l0-.38L143,72,143,72A12.79,12.79,0,0,0,143,82L143,82C137.85,80.69,140.92,76.39,139.91,73.57Z" transform="translate(-5.09 -17.04)"/><path class="cls-2" d="M171.88,145c0-4.3,2.12-5.88,6.33-4.94a25,25,0,0,0,4.43.22L195.28,143c8.62.28,8.65.33,9.45,12.77-1.39.73-4.21-.52-4.07,2.08.11,2.06,2.66.87,4,1.55.05,1.14.11,2.28.16,3.41-1.48.67-4.35-1-4.42,1.46-.06,2.15,2.82,1.47,4.43,2,.08,1,.16,1.93.23,2.89a7,7,0,0,0-.14.8l-1-.13c-1.64-.21-4.16-2.05-4.61.46-.51,2.77,2.62,1.39,4.1,2a1.54,1.54,0,0,0,.49.05c-.14,1.32,2,2.59.07,3.94-10.46-1.51-20.93-3-31.39-4.58-2.11-.32-4.37-.82-4.63-3.65l.72-3.78Q170.27,154.57,171.88,145ZM178,157c-1.73,3.66-2.42,7.4-1.15,11.32A19.75,19.75,0,0,0,178.9,157c1.41-4.07,2.52-8.16,1.15-12.43A26.33,26.33,0,0,0,178,157Zm8,1c-1.23,3.75-2.46,7.51-1.25,12.71,2.45-4.65,2.11-8.69,3-12.43-.21-4.21,2.35-8.36.3-12.63A32.27,32.27,0,0,0,186,158Zm-4.09-1.17c-1.13,3.89-2.52,7.76-1.25,12.82,2.91-4.5,1.66-8.78,3.18-12.44-.52-3.87,2.25-7.7,0-13C182.56,149.2,181.77,152.92,181.88,156.8Zm13.89,1.42c.51-3.52,2.33-7-.44-10.69L194,158c-1.14,4.13-2.33,8.26-.94,12.56A31.11,31.11,0,0,0,195.77,158.22Zm-21.67-5.08c-1.54,4.71-2.53,9.46-1.91,14.31l1.46.16,2.23-13.52c-.65-3.48,2.55-7-.25-11.41C174.9,146.74,173.62,149.79,174.1,153.14ZM189,162c.11,2.55-2.09,5.1,0,8.38A14.34,14.34,0,0,0,191,162c.82-5.1,2.85-10.14,1.67-15.34l-1.27-.11Q190.21,154.3,189,162Z" transform="translate(-5.09 -17.04)"/><path class="cls-2" d="M96.34,192.05l1.26-9c2.52-.8,3.15-3.27,4.41-5.13,4.4-6.48,4.76-6.59,8.82-.17,4.76,7.56,9.48,15.15,13.92,22.9,2.09,3.66,4.05,3.61,7,1.16,9-7.47,9.16-7.58,18.37-.19,4.09,3.28,8.18,5,13.51,4.51,4.94-.46,9.95-.09,14.93-.08.17,1,.33,2,.5,3-6.33,0-12.67-.28-19,.13-5.09.33-8.9-1.41-12.42-4.87-5.58-5.48-5.62-5.28-11.92-.71-11.39,8.26-8.71,7.28-15.34-2.9-4-6.11-7.82-12.33-11.33-18.72-2-3.7-3.21-2.66-5.08,0C101.53,185.34,100,189.52,96.34,192.05Z" transform="translate(-5.09 -17.04)"/><path class="cls-3" d="M168.65,164.17l-.72,3.78-18.17-2c-.95-.11-2.28.1-2.16-1.32.09-1.09,1.19-1.52,2.26-1.53a44.22,44.22,0,0,1,9.37.7C162.26,164.43,165.5,164.09,168.65,164.17Z" transform="translate(-5.09 -17.04)"/><path class="cls-3" d="M152.58,168.05c3.16.32,6.75.7,10.34,1,1.41.14,2.12.88,1.87,2.29s-1.24,1.06-2.26.9c-4.06-.65-8.23-.09-12.24-1.31-1.13-.35-3.1.38-2.89-1.65.19-1.85,2-1.11,3.26-1.27A19.16,19.16,0,0,1,152.58,168.05Z" transform="translate(-5.09 -17.04)"/><path class="cls-3" d="M154.62,158.1l8.48,1c.89.1,1.66.47,1.59,1.48s-.89,1.23-1.76,1.34c-4.5.6-8.81-1-13.26-1.1a1.26,1.26,0,0,1-1.33-1.18c-.09-1.05.6-1.49,1.5-1.53C151.16,158.05,152.48,158.1,154.62,158.1Z" transform="translate(-5.09 -17.04)"/><path class="cls-1" d="M186.42,205.9a25.67,25.67,0,0,1,1-11.81l5.73,10.79C191.15,206.9,188.68,205.69,186.42,205.9Z" transform="translate(-5.09 -17.04)"/><path class="cls-3" d="M153.24,153c3.8.19,8.39,0,8.07,2.54-.38,3.11-4.31.79-6.74.54-1.15-.12-2.32-.06-3.48-.12s-3,.19-2.74-1.86c.22-1.69,1.49-1.91,3-1.4A6.82,6.82,0,0,0,153.24,153Z" transform="translate(-5.09 -17.04)"/><path class="cls-3" d="M154.75,150.93h-3c-1.48,0-2.81-.37-2.56-2.18.29-2,1.71-1.4,3.06-1.12a32.73,32.73,0,0,0,4.43.43c1.49.1,3.35-.12,3.11,2.13s-1.92,1-3.06.87Z" transform="translate(-5.09 -17.04)"/><path class="cls-2" d="M186.42,205.9c2.26-.21,4.73,1,6.71-1l2.53,4.22H186.4C186.41,208,186.42,207,186.42,205.9Z" transform="translate(-5.09 -17.04)"/><path class="cls-1" d="M42,127c1.26.91,1.38,1.87.14,2.91C42,128.94,42,128,42,127Z" transform="translate(-5.09 -17.04)"/><path class="cls-2" d="M32,117a1.94,1.94,0,0,1-1-2,2,2,0,0,1,1,2Z" transform="translate(-5.09 -17.04)"/><path class="cls-2" d="M25,109l-.44-.21L25,109Z" transform="translate(-5.09 -17.04)"/><path class="cls-2" d="M29,113l1,1h0c-.33-.33-.66-.67-1-1Z" transform="translate(-5.09 -17.04)"/><path class="cls-2" d="M28,112c.33.34.66.67,1,1h0c-.33-.34-.66-.67-1-1Z" transform="translate(-5.09 -17.04)"/><path class="cls-2" d="M32,117l.42.43c-.09,0-.21,0-.26-.08A1.25,1.25,0,0,1,32,117Z" transform="translate(-5.09 -17.04)"/><path class="cls-2" d="M30,114l1,1-1-1Z" transform="translate(-5.09 -17.04)"/><path class="cls-2" d="M28,112l-1-1v0l1,1Z" transform="translate(-5.09 -17.04)"/><path class="cls-2" d="M27,111c-.34-.33-.67-.66-1-1l0,0,1,1Z" transform="translate(-5.09 -17.04)"/><path class="cls-2" d="M25,109l1,1,0,0-1-1Z" transform="translate(-5.09 -17.04)"/><path class="cls-4" d="M203.88,172.24a1.54,1.54,0,0,1-.49-.05c-1.48-.57-4.61.81-4.1-2,.45-2.51,3-.67,4.61-.46l1,.13C204.55,170.68,204.21,171.46,203.88,172.24Z" transform="translate(-5.09 -17.04)"/><path class="cls-5" d="M100.91,67.92c1-8.63,5.85-13.54,14.39-14.88,5.3,1.93,11.36,2.9,12.62,10a14.79,14.79,0,0,0-.06,10.85c-2.43,5.83-7.45,8.24-13.07,7.89-6.27-.4-11.26-3.7-12.88-10.49C101.64,70.12,101.24,69,100.91,67.92Z" transform="translate(-5.09 -17.04)"/><path class="cls-1" d="M97,152.78c-5.76.66-11.43.48-16.85-1.89,3.68-8.87,6.44-17.85,5.11-27.7-.3-2.22,2.61-2.82,4.31-3.53s1.91,1.42,2.6,2.38c2.73,3.85,5.31,7.72,1.62,12.51-1.24,1.61-.2,3.5.16,5.27C94.81,144.17,97.08,148.19,97,152.78Z" transform="translate(-5.09 -17.04)"/><path class="cls-5" d="M101.66,105.4c.41-1.93.9-3.85,1.21-5.8,1.57-9.7,1.54-9.64,10.9-7.61,1.9.41,2.31,1.1,1.32,2.61-2.55,3.86-5,7.77-7.81,11.45a5,5,0,0,1-4.94,1.73C100.76,107.47,101.52,106.32,101.66,105.4Z" transform="translate(-5.09 -17.04)"/><path class="cls-6" d="M79.61,114.59c-.77-1.39-1.17-3.12-2.25-3.87-4.49-3.14-3.36-5.15.74-7.54,2.21-1.29,4.14-3.08,6.75-1.9,2.34,1,2,3.56,2.24,5.67.4,2.9-.68,4.76-3.44,5.76C82.26,113.22,81,114,79.61,114.59Z" transform="translate(-5.09 -17.04)"/><path class="cls-6" d="M101,88.2c-2.5-.91-4.56-2.15-4-5.34,2.51-.52,4.45.14,5.6,2.59C103.38,87.15,102.68,87.93,101,88.2Z" transform="translate(-5.09 -17.04)"/><path class="cls-2" d="M127.86,73.84A14.79,14.79,0,0,1,127.92,63c1.78,1.36.84,3.31,1.08,5C129,70,129.38,72.12,127.86,73.84Z" transform="translate(-5.09 -17.04)"/><path class="cls-1" d="M76.94,201.93a131.64,131.64,0,0,0,8-24.86c1.07,8.33,2.48,16.53,2.38,24.86C83.87,207,80.41,203.82,76.94,201.93Z" transform="translate(-5.09 -17.04)"/><path class="cls-2" d="M76.94,201.93c3.47,1.89,6.93,5,10.4,0a10.2,10.2,0,0,1,.52,5.13c-1.6,2.19-3.59,2.35-6,1.38s-4.55-1.63-6.82-2.43A7.9,7.9,0,0,1,76.94,201.93Z" transform="translate(-5.09 -17.04)"/><path class="cls-1" d="M195.28,143l-12.64-2.71c-.72-6.46-1.49-12.93.61-19.31a5.29,5.29,0,0,0,6.61,0C190.68,128.55,193.86,135.54,195.28,143Z" transform="translate(-5.09 -17.04)"/><path class="cls-4" d="M204.63,159.36c-1.31-.68-3.86.51-4-1.55-.14-2.6,2.68-1.35,4.07-2.08C204.7,156.94,204.66,158.15,204.63,159.36Z" transform="translate(-5.09 -17.04)"/><path class="cls-4" d="M204.8,166.21c-1.61-.51-4.49.17-4.43-2,.07-2.45,2.94-.79,4.42-1.46C204.79,163.92,204.8,165.06,204.8,166.21Z" transform="translate(-5.09 -17.04)"/><path class="cls-2" d="M143,82A12.79,12.79,0,0,1,143,72,28.37,28.37,0,0,1,148.87,71c16.8.07,33.6,0,50.4,0,3.84,0,6.81.75,6.87,5.73.05,4.33-1.87,6.2-5.87,6.21q-26.21.08-52.4,0A25.16,25.16,0,0,1,143,82Z" transform="translate(-5.09 -17.04)"/><path class="cls-2" d="M177.94,107H151.05c-8.82,0-10.49-2.29-8-11,1.95-.37,3.79-1.06,5.85-1,16.81.07,33.62,0,50.43.06,5.43,0,6.7,1.42,6.77,6.26,0,4-1.68,5.87-5.69,5.72-1.83-.08-3.66,0-5.49.06-2.21-3.18-2-8.73-8-8.16-3.18-1.25-6.79.94-8,4.87-1.16.48-2.67-.29-3.64,1C175.28,106.61,177.86,105.29,177.94,107Z" transform="translate(-5.09 -17.04)"/><path class="cls-5" d="M178.91,103.79c1.19-3.93,4.8-6.12,8-4.87,2.77,5.08,2.77,5.1-3,5.08C182.2,104,180.56,103.86,178.91,103.79Z" transform="translate(-5.09 -17.04)"/><path class="cls-5" d="M189,162q1.18-7.72,2.35-15.46l1.27.11c1.18,5.2-.85,10.24-1.67,15.34Z" transform="translate(-5.09 -17.04)"/><path class="cls-4" d="M175.88,154.09l-2.23,13.52-1.46-.16c-.62-4.85.37-9.6,1.91-14.31Z" transform="translate(-5.09 -17.04)"/><path class="cls-4" d="M195.77,158.22a31.11,31.11,0,0,1-2.69,12.38c-1.39-4.3-.2-8.43.94-12.56Z" transform="translate(-5.09 -17.04)"/><path class="cls-4" d="M183.81,157.18c-1.52,3.66-.27,7.94-3.18,12.44-1.27-5.06.12-8.93,1.25-12.82Z" transform="translate(-5.09 -17.04)"/><path class="cls-4" d="M187.71,158.25c-.88,3.74-.54,7.78-3,12.43-1.21-5.2,0-9,1.25-12.71Z" transform="translate(-5.09 -17.04)"/><path class="cls-5" d="M187.71,158.25,186,158a32.27,32.27,0,0,1,2-12.35C190.06,149.89,187.5,154,187.71,158.25Z" transform="translate(-5.09 -17.04)"/><path class="cls-4" d="M178.9,157a19.75,19.75,0,0,1-2.09,11.24c-1.27-3.92-.58-7.66,1.15-11.32A2.71,2.71,0,0,0,178.9,157Z" transform="translate(-5.09 -17.04)"/><path class="cls-5" d="M178.9,157A2.71,2.71,0,0,1,178,157a26.33,26.33,0,0,1,2.09-12.35C181.42,148.88,180.31,153,178.9,157Z" transform="translate(-5.09 -17.04)"/><path class="cls-5" d="M183.81,157.18l-1.93-.38c-.11-3.88.68-7.6,2-12.61C186.06,149.48,183.29,153.31,183.81,157.18Z" transform="translate(-5.09 -17.04)"/><path class="cls-5" d="M195.77,158.22,194,158c.44-3.5.87-7,1.31-10.51C198.1,151.19,196.28,154.7,195.77,158.22Z" transform="translate(-5.09 -17.04)"/><path class="cls-5" d="M175.88,154.09l-1.78-1c-.48-3.35.8-6.4,1.53-10.46C178.43,147.07,175.23,150.61,175.88,154.09Z" transform="translate(-5.09 -17.04)"/><path class="cls-4" d="M189,162H191a14.34,14.34,0,0,1-1.91,8.39C186.94,167.13,189.14,164.58,189,162Z" transform="translate(-5.09 -17.04)"/></svg>