<svg id="Capa_1" data-name="Capa 1" xmlns="http://www.w3.org/2000/svg" viewBox="0 0 283 223"><defs><style>.cls-1{fill:#fdfdfe;}.cls-2{fill:#f3f4f5;}.cls-3{fill:#0b5aec;}.cls-4{fill:#7ee6d2;}.cls-5{fill:#55d0bc;}.cls-6{fill:#5292f2;}.cls-7{fill:#ea8532;}.cls-8{fill:#04ac9f;}.cls-9{fill:#e7edfc;}.cls-10{fill:#0d8179;}.cls-11{fill:#4684df;}.cls-12{fill:#c8dafa;}.cls-13{fill:#4f54c8;}.cls-14{fill:#18324c;}.cls-15{fill:#fcfdfe;}.cls-16{fill:#f6b59f;}</style></defs><title>Img-choose</title><path class="cls-1" d="M230.73,176.17c.05-1,.09-2,.14-3,2.85-2.15,5.6-4.48,8.6-6.41,3.53-2.29,7.35-4.16,10.47-7,1.51-1.39,3-3,1.72-5.27a4.26,4.26,0,0,0-5.31-1.91c-4,1.27-7.9,2.79-10.78,6.09-.2-1.22-.51-2.61.36-3.55,3.82-4.09,2.08-9.37,3.17-14,3.35-.39,6.47.83,9.68,1.38,3.48.59,6.58-.11,8.89-2.88s.55-5.28-.68-7.8a.75.75,0,0,0,.38-.46,21,21,0,0,0,3.51-2.24C266,124.2,267.42,118,266,111.47c-.87-4-4.89-5.71-8.76-6.66a14.61,14.61,0,0,0-7.39.3,37.78,37.78,0,0,0-12.14,5.8c.06-1.09.45-2.29.12-3.24-1.7-4.83.5-6.61,5-7a10.06,10.06,0,0,0,4-1.16c1.7-1,4.24-2.29,2.89-4.54-2.64-4.39-.2-7.4,2-10.55,1.89-2.67,4.22-5,6-7.75,2-3,2-5.89-1.89-7.64.13-2,.34-4,3-4.18,1.74.16,3.73.41,4.11-1.89s-1.38-2.84-3.23-3.06c-.22-6.77-5.48-12.52-13.13-13.24-13.19-1.24-26.44-.42-39.66-.57-2,0-3,.65-2.23,2.84.46,1.31.37,3.95-.72,3.34-3.44-1.94-5.47,1.46-8.24,1.34s-4.8-3.27-8-2.55l-1.45-.29a13.05,13.05,0,0,0-2.55-9.23,13.58,13.58,0,0,1-2.55-6c-.4-4.15-2.38-3.89-5.35-2.77a38.16,38.16,0,0,1-13.18,2.85c-6.84,0-11.44,3.4-14.34,9.44-.5,1-.29,2.78-2,2.89-4.16.28-6.61,3.07-9.08,5.89-4.59-6.36-10.81-8.5-18.39-7.1-3.42-5.72-7.76-6-12-.8-2.73,3.34-2.84,7.78-5,11.33-1.76-3-3.69-6.07-6.56-7.86-4.78-3-8.75-9.55-15.94-4.77-.15.1-.58-.08-.81-.24-3.4-2.3-4.51,1-6.16,2.64A23.93,23.93,0,0,0,70,50.76C63.55,52.9,57,54.65,50.86,57.52c-1.82-1.42-2.46,2.41-4.55.89-2.51-1.84-5.05-1-7.33.82l-.9,2c-.82.59-.82,1.58-1.22,2.36-2.42,4.76,1.62,8.36,2.14,12.58-1.62-.34-3.17.56-4.89.07s-.6,1.18-.94,1.79l-.82,1.11a2.2,2.2,0,0,0-.22.67c-2.72,3.24-2.21,6.72-.47,10.09a22.35,22.35,0,0,1,2.48,12.24,44.15,44.15,0,0,0,.93,13.51c-11-5.48-18.93-1.5-19.52,9.85-.51,9.7,7.59,17.81,18.16,18.22,3.58.14,7.19-.38,10.74.5,0,2.59-1.77,4.35-3,6.37-.46-.4-.93-.8-1.38-1.21-2.78-2.53-6-4-9.23-1.4s-2.36,5.8-.74,8.94c.57,1.11,1.18,2.2,1.68,3.35,2.05,4.73,5.46,8.78,7,13.76-1.1,1.3-1.95-.06-2.82-.37-2.34-.83-4.61-1.87-6.93-2.79s-4.36-.74-6,1.15-.81,3.81-.17,5.77c1.55,4.7,5,6.31,9.71,6.55,6.51.33,13.19-.17,19.31,2.89,2,2.68,5,2.84,8,2.83l40.17-.11a57.64,57.64,0,0,1-1,14.06l-6.41.05c.35-2.29.69-4.59,1-6.88.11-.75.6-1.86-.2-2.13-4.06-1.33-5.64,4.73-9.91,3.48-.59-.17-.76,1.6-.35,2.41a5.16,5.16,0,0,1,.6,3.13c-.92.14-2.11.25-2,1.41.07,1.44,1.46,1.25,2.5,1.44,9.71,1.79,19.51,1,29.25.62,2.87-.11,6.45.35,9.37-2.09l-6.77-2.62c.64-4.3.35-8.71,1.68-12.92,6.23,1,12.5.47,18.74.41,19.7-.19,39.4-.59,59.11-.91,1.55,4.57,2.29,9.51,5.93,13.14-.61,1.28-3.45-.13-3,2.46a20.12,20.12,0,0,0-2.33,0c-.75.09-1.69-.35-2.76,1.2h42.25c-4.53-2.77-8.2-1.89-11.7-2.18-1.94-.15-4.09.8-5.74-1,.9-1.17,5,0,2.63-3.57-1.64-3.47-4.91-6-5.56-10.06l3.8-.2c2.53,2.3,5.59.88,8.39,1.11,3.62.3,5.47-1.5,5.37-5.24a26.23,26.23,0,0,1,.35-3.63c4.67-.34,9.3,1.65,14,.25,3-.91,5.05-2.91,4.69-6.12s-2.85-4.63-6.09-4.54c-5,.15-9.34,2.18-13.46,4.83ZM115.56,21.42c1.85,1.26,1.28,4,3.86,3.87,4.16-.15,6.22-3.12,8.62-6.51C123.56,19,119.94,20.22,115.56,21.42ZM41.9,51.94c2.19-1.51,4.11-2.79,6-4.15.9-.64,1.86-1.44,1.06-2.69a2.22,2.22,0,0,0-3-.59C43.14,45.88,41.28,48,41.9,51.94Zm161-6.85c1-2,1-3.81-.44-5.51-1.13-1.3-2.64-2.75-4.27-1.35s-.34,3.06,1,4.2C200.34,43.41,201.21,44.79,202.94,45.09ZM88.58,36.67c2.53-.65,4.52-1.78,5.12-4.46a1.42,1.42,0,0,0-1.51-1.83c-2.86.44-3,3.07-3.76,5.16C88.35,35.75,88.49,36.05,88.58,36.67ZM26.63,106.22c1.45-.16,2-1.18,1.91-2.58a2.12,2.12,0,0,0-2.44-2.2c-1.43,0-2.4.76-2.32,2.29S24.82,106.25,26.63,106.22Zm0,45.56a2.18,2.18,0,0,0-2.25-2.39c-1.4,0-2.43.5-2.52,2.05a2.29,2.29,0,0,0,2.46,2.67C25.86,154.15,26.54,153.2,26.67,151.78ZM78,31c.9,0,1.47-.48,1.22-1.07-.95-2.26-3.15-2.78-5.25-3.21a1.07,1.07,0,0,0-1.25,1.44C73.62,30.67,76.56,29.54,78,31Zm-5.6,3.75c-1,.16-2,.16-1.87,1.22.41,2.46,2.84,2.53,4.52,3.43.81.43,1.69-.07,1.47-1C76,36.1,73.93,35.58,72.39,34.73ZM190.92,45.86c.66-2.91-.12-5-2.63-6.28-.4-.2-1.52.11-1.62.41-.9,2.73,1.74,3.58,2.94,5.2C189.77,45.4,190.14,45.47,190.92,45.86ZM33.56,72.68c.26.11.58.37.76.29s.24-.47.36-.73c-.26-.12-.58-.38-.76-.3S33.67,72.42,33.56,72.68Z"/><path class="cls-2" d="M195.81,53.63c2.77.12,4.8-3.28,8.24-1.34,1.09.61,1.18-2,.72-3.34-.76-2.19.24-2.87,2.23-2.84,13.22.15,26.47-.67,39.66.57,7.65.72,12.91,6.47,13.13,13.24q-3.17,2-.88,5c-2.7.17-2.91,2.14-3,4.18C243.82,70.5,242,72.28,241.24,83.46c-.14,2.13-.51,3.12-3,2.31s-5.2.16-7.47,1.7c0-1.85,0-3.71,0-5.56a.88.88,0,0,0,.84-1l0,0c1.3,0,1.63-.91,1.89-1.91l0,0c.48-.59,1.49-1.17,0-1.8-.11-2.06.39-4.47-2.73-4.82a5.31,5.31,0,0,0-4.54-4,12.2,12.2,0,0,0-2.34-6c-1.59-1.93-3.57-3-6.15-2.45-1.49.31-2.86,1.12-2.75,2.7.18,2.5,2.24,3.54,4.32,4.39v1.36l-34.45.28-2.22-3.42a4.14,4.14,0,0,0,1.32-4.6c-1.29-3.79,0-7,2.45-9.85l1.45.29c-1.31,1-2.26,2.3-1.22,3.88.93,1.42,2.52,1.54,4.08,1C192.5,55.43,194.39,55,195.81,53.63Zm40.48,19.74c-.66.15-1.49.08-1.43,1.12a.42.42,0,0,0,.29.29c1,0,1-.75,1.12-1.43l.22-.35Zm3.41-16.2a5.2,5.2,0,0,0-1.56-5.94c-.93-.8-2.15-1.61-3.34-.49s-.58,2.32.37,3.28C236.45,55.32,237.55,56.94,239.7,57.17Zm-8.38.3c-4.91-3.16-9-3.19-13.26-2.63Z"/><path class="cls-3" d="M51.92,187.2c-6.12-3.06-12.8-2.56-19.31-2.89-4.7-.24-8.16-1.85-9.71-6.55-.64-2-1.41-4,.17-5.77s3.78-2,6-1.15,4.59,2,6.93,2.79c.87.31,1.72,1.67,2.82.37l0-.05c-.59,1.13.44,1.15,1,1.48,3.54,2.17,7.38,3.9,10.09,7.26.8,1,2,2.14,1.92-.57q0-17.67,0-35.34c0-3.5,0-7,0-10.49q0-22.42.07-44.85,0-6.28.07-12.55c.5-3.75-1.38-8.25,3.35-10.66,8,.94,16,.41,24.07.26l13.13,0,2.69,0,6.86-.19,8.29.14,9.52,0,18.73-.07,8.57.23q-1.46,4.18-2.9,8.37l-62.06.18c-8.29-.06-16.58.07-24.86-.25-3.61-.14-4.4,1-4.38,4.47.16,28.48.09,57,.14,85.45,0,6.72.21,13.45.31,20.17Z"/><path class="cls-4" d="M147.08,68.7l-8.57-.23c-1.4-4.78-1.12-9.69-1.11-14.57,2.47-2.82,4.92-5.61,9.08-5.89,1.66-.11,1.45-1.85,2-2.89,2.9-6,7.5-9.4,14.34-9.44A38.16,38.16,0,0,0,176,32.83c3-1.12,5-1.38,5.35,2.77a13.58,13.58,0,0,0,2.55,6,13.05,13.05,0,0,1,2.55,9.23c-2.44,2.88-3.74,6.06-2.45,9.85a4.14,4.14,0,0,1-1.32,4.6A25.69,25.69,0,0,0,172,59.4l.84-2.67c3.21-.19,3.65-2.61,3.39-4.9-.14-1.17.51-3.53-1.91-3.6-4.2-.11-8.63-1.77-12.38,1.6-1.81,0-2.52,1.15-2.87,2.69-1.92-.52-1.92-.52-1.14,3.11a4.45,4.45,0,0,0,1.49-2.74l1.76-.2,1.58,3.84.25,2.66c-3.54.93-7.24,1.44-10.25,3.78a2.16,2.16,0,0,0-1-1.9c-.07-1,.1-2.13-1-2.79l-.93-1-.44-1.25c-.12.09-.36.25-.35.26.22.37.46.73.7,1.08l.93.94c0,1-.13,2.13.93,2.83l.07,2.6Zm0-14.24-.52-.35.35.52.55.36Zm16.89-8.31c.24-.36.48-.72.69-1.09a3.22,3.22,0,0,0-.34-.27c-.16.42-.31.83-.46,1.25l-.38.49ZM175.55,41c-2.72-1.24-5.66-.14-8-1.64-.74-.48-1.16.06-1.43.58a2.55,2.55,0,0,0,0,2.65c.46.7,1.19.39,1.61,0C169.93,40.57,172.82,42,175.55,41ZM156.8,49.27c.1-.06.27-.1.3-.19s0-.26,0-.4l-.48.27Z"/><path class="cls-5" d="M51.73,136.29c0,3.5,0,7,0,10.49-2.42-.93-4.63-2.43-7.32-2.59-3.55-.88-7.16-.36-10.74-.5-10.57-.41-18.67-8.52-18.16-18.22.59-11.35,8.47-15.33,19.52-9.85a100.91,100.91,0,0,0,13,18.09C49,134.83,50,136.22,51.73,136.29Z"/><path class="cls-4" d="M51.73,136.29c-1.78-.07-2.69-1.46-3.68-2.58a100.91,100.91,0,0,1-13-18.09,44.15,44.15,0,0,1-.93-13.51,22.35,22.35,0,0,0-2.48-12.24c-1.74-3.37-2.25-6.85.47-10.09.4,1.45-.31,3.3,1.82,4.47a7.82,7.82,0,0,0-1.6-5.14L33.17,78l6.66.07-.06,0,.67.77c3.86,3.64,4.36,8.35,4.19,13.27l-.83,4.85c-.07.9-.22,1.8-.2,2.7,0,1.23.22,2.62,1.81,2.61s1.76-1.38,1.88-2.61c.05-.6,0-1.2,0-1.81,1.06-2.08.87-4.71,2.83-6.4l1.64,0Q51.77,113.87,51.73,136.29ZM41.52,101.57a2.7,2.7,0,0,0,0-.9c-.15-.44-.48-.44-.64,0a1.39,1.39,0,0,0,0,.9C41,102,41.3,102,41.52,101.57Zm3.69,10.31c-.08-.1-.13-.26-.23-.3s-.2.1-.31.16l.38.5ZM43,107.55c.11-.06.28-.1.32-.2s0-.26-.05-.4l-.49.27Zm-.94-2.81c.11-.06.28-.1.32-.2s0-.27,0-.4l-.49.26Zm-6.47-17-.16.24.25,0Zm-1-1.41.16-.27-.25,0Z"/><path class="cls-6" d="M237.71,110.91a37.78,37.78,0,0,1,12.14-5.8,14.61,14.61,0,0,1,7.39-.3c3.87,1,7.89,2.68,8.76,6.66,1.42,6.49-.05,12.73-5.12,17.58a21,21,0,0,1-3.51,2.24c-1.17-2.82-3.71-3.93-6.32-4.14-3.84-.3-7.7-.54-11.59.37-1.79.42-4.58,2.23-5.69-.14-1.2-2.57,2.4-2.59,3.55-4,.13-.16,0-.52,0-1.15-3.32,1.58-4.21.11-3.91-3a45.49,45.49,0,0,0,0-4.67C234.27,112.68,236.25,112.11,237.71,110.91Zm15.42,7.5-2,.52c.09.12.15.32.27.35a1.63,1.63,0,0,0,1.92-.72l.33-.48Zm-4,1.43a7.31,7.31,0,0,0-6.55,1.13C245,121.82,246.69,120.83,249.12,119.84Zm-8.77,2.06c0-.11,0-.26-.08-.31a.92.92,0,0,0-.38-.08l.1.53Z"/><path class="cls-5" d="M237.71,110.91c-1.46,1.2-3.44,1.77-4.3,3.66l-2.74,1.14.06-28.24c2.27-1.54,4.81-2.55,7.47-1.7s2.9-.18,3-2.31c.74-11.18,2.58-13,14.63-14.41,3.87,1.75,3.86,4.63,1.89,7.64-1.79,2.73-4.12,5.08-6,7.75-2.24,3.15-4.68,6.16-2,10.55,1.35,2.25-1.19,3.58-2.89,4.54a10.06,10.06,0,0,1-4,1.16c-4.5.37-6.7,2.15-5,7C238.16,108.62,237.77,109.82,237.71,110.91Z"/><path class="cls-7" d="M215.41,189.35c.65,4,3.92,6.59,5.56,10.06l-4.25,1c-5.43-5-9.24-10.85-10.6-18.19-.25-1.38.33-3.6-2-3.55s-1.68,2.29-1.92,3.65c-1.25,7.12.66,13.82,3.06,20.42l-3.67-.18c-3.64-3.63-4.38-8.57-5.93-13.14l-.21-1.51c-.08-3.07-.17-6.13-.25-9.2l2.69-13.33c5.88-.25,11.8-.19,17.36-2.57.45,2.36-.08,4.64-.5,7-.56,3-2.8,5.69-2,9-.35,3.34.86,6.32,2.08,9.31Z"/><path class="cls-6" d="M102,68.37l-6.86.2A3.12,3.12,0,0,0,93,67.06a29.07,29.07,0,0,0-10.6-5.23C76.68,59.89,73.16,55.5,70,50.76a23.93,23.93,0,0,1,2.56-3.66c1.65-1.65,2.76-4.94,6.16-2.64.23.16.66.34.81.24,7.19-4.78,11.16,1.79,15.94,4.77,2.87,1.79,4.8,4.88,6.56,7.86Q102,62.85,102,68.37ZM88.75,52.58l-.52-.33.35.5.52.35Zm-7.14-2.76.75-.4c-.24-.15-.48-.41-.72-.42s-.51.23-.77.36Z"/><path class="cls-8" d="M137.4,53.9c0,4.88-.29,9.79,1.11,14.57l-18.73.08c-2.22-2.49-4-5.4-6.67-7.44a20.82,20.82,0,0,0-.2-2.75c-1.17-5.83.55-9.14,6.1-11.56C126.59,45.4,132.81,47.54,137.4,53.9Z"/><path class="cls-6" d="M43.8,96.91c.28-1.62.55-3.24.83-4.85,1.57-2.77,1-5.87.58-8.63-.53-3.06-1.45-6.54-5.51-7.23a4.14,4.14,0,0,0-.7-.06c-.52-4.22-4.56-7.82-2.14-12.58.4-.78.4-1.77,1.22-2.36,1.16.72,1.41,3.57,3.27,2.19,1.64-1.21-1.13-2.25-1.18-3.66,0-.18-.78-.33-1.19-.5,2.28-1.8,4.82-2.66,7.33-.82,2.09,1.52,2.73-2.31,4.55-.89q2.19,5.35,4.36,10.71c-4.73,2.41-2.85,6.91-3.35,10.66-1.54-1.86-.18-4.84-3-6.89,1.78,6.75,1.1,13.09,1.31,19.4-2,1.69-1.77,4.32-2.83,6.4Zm4.33-28.15.51,1.2c.12-.1.34-.25.33-.28-.19-.37-.42-.73-.63-1.09l-.5-1.24c-.11.1-.35.25-.33.28C47.69,68,47.92,68.39,48.13,68.76Z"/><path class="cls-8" d="M51.81,182.12c.12,2.71-1.12,1.55-1.92.57-2.71-3.36-6.55-5.09-10.09-7.26.67-1.18.07-1.49-1-1.48l0,.05c-1.58-5-5-9-7-13.76-.5-1.15-1.11-2.24-1.68-3.35-1.62-3.14-2.36-6.49.74-8.94s6.45-1.13,9.23,1.4c.45.41.92.81,1.38,1.21A25.57,25.57,0,0,1,46,165,28.61,28.61,0,0,0,51.81,182.12Zm-13-24.92q.78,5.31,1.55,10.61l1.39-.23C40.08,164.24,41.5,160.43,38.79,157.2Z"/><path class="cls-9" d="M55.22,68.23Q53,62.87,50.86,57.52C57,54.65,63.55,52.9,70,50.76c3.21,4.74,6.73,9.13,12.42,11.07q-1.55,3.33-3.08,6.66C71.26,68.64,63.24,69.17,55.22,68.23ZM57,62.41a19,19,0,0,0,6.79,3.16c1.42.35,3.14.27,3.56-1.29.48-1.79-1.24-2.16-2.61-2.53C62.28,61.1,59.88,61.56,57,62.41Z"/><path class="cls-5" d="M257,131.75c1.23,2.52,3,5.07.68,7.8s-5.41,3.47-8.89,2.88c-3.21-.55-6.33-1.77-9.68-1.38a8.49,8.49,0,0,0-5.55-.57l-2.77-.25c-.14-2.56-1.29-5.1-.18-7.68a2.7,2.7,0,0,0,.35-.7c2-.48,3.91-.9,5.84-1.45C243.69,128.43,250.49,127.86,257,131.75Z"/><path class="cls-8" d="M99.07,204a57.64,57.64,0,0,0,1-14.06,1.86,1.86,0,0,0,.41-2.06q.51-7.38,1-14.76l.5-4.7q.58-2.43,1.19-4.86L113,164.6l-2.78,10.89c-2.19,3.88-3.09,8.15-3.75,12.49a3.33,3.33,0,0,0-.83,3.43c-2,3-2.3,6.52-2.75,9.85C102.54,204.13,101.38,204.54,99.07,204Z"/><path class="cls-5" d="M119,46.8c-5.55,2.42-7.27,5.73-6.1,11.56a20.82,20.82,0,0,1,.2,2.75l-2.85,7.41L102,68.38q0-5.53,0-11c2.18-3.55,2.29-8,5-11.33C111.25,40.83,115.59,41.08,119,46.8Z"/><path class="cls-9" d="M99.07,204c2.31.56,3.47.15,3.85-2.72.45-3.33.7-6.89,2.75-9.85a12.64,12.64,0,0,1,5.79-.56c1.53,3,1.38,6.28,1.39,9.49,0,2.5.77,3.54,3.29,2.46l6.77,2.62c-2.92,2.44-6.5,2-9.37,2.09-9.74.36-19.54,1.17-29.25-.62-1-.19-2.43,0-2.5-1.44-.06-1.16,1.13-1.27,2-1.41a8.59,8.59,0,0,0,8.82,0Z"/><path class="cls-10" d="M116.14,202.8c-2.52,1.08-3.27,0-3.29-2.46,0-3.21.14-6.48-1.39-9.49,1.22-.78.58-1.89.53-2.9-.28-4.2.83-8.58-1.74-12.46Q111.63,170,113,164.6l5.92-1c.07,1.56.13,3.11.2,4.67s-.13,3.2-.19,4.81l-1,14.89-.09,1.92C116.49,194.09,116.78,198.5,116.14,202.8Z"/><path class="cls-2" d="M51.81,182.12A28.61,28.61,0,0,1,46,165a25.57,25.57,0,0,0-4.58-14.47c1.22-2,3-3.78,3-6.37,2.69.16,4.9,1.66,7.32,2.59Q51.79,164.45,51.81,182.12Z"/><path class="cls-5" d="M235.57,158.63c2.88-3.3,6.8-4.82,10.78-6.09a4.26,4.26,0,0,1,5.31,1.91c1.3,2.29-.21,3.88-1.72,5.27-3.12,2.88-6.94,4.75-10.47,7-3,1.93-5.75,4.26-8.6,6.41q0-4.41-.07-8.8c1.21-1.48,2.43-3,3.64-4.42Z"/><path class="cls-6" d="M117.82,189.88l.09-1.92,77.55-.09.21,1.51c-19.71.32-39.41.72-59.11.91C130.32,190.35,124.05,190.87,117.82,189.88Z"/><path class="cls-8" d="M232.45,175.81c4.12-2.65,8.45-4.68,13.46-4.83,3.24-.09,5.71,1.23,6.09,4.54s-1.65,5.21-4.69,6.12c-4.69,1.4-9.32-.59-14-.25V181c.14-2.74,2.26-2.76,4.23-3.41,4.19-1.37,8.66-.37,13.78-1.48-3.08-1.66-5.3-.89-7.57-.81C240,175.49,236.3,177.9,232.45,175.81Z"/><path class="cls-11" d="M257,131.75c-6.5-3.89-13.3-3.32-20.2-1.35-1.93.55-3.89,1-5.84,1.45q-.15-8.07-.28-16.14l2.74-1.14a45.49,45.49,0,0,1,0,4.67c-.3,3.06.59,4.53,3.91,3,0,.63.11,1,0,1.15-1.15,1.45-4.75,1.47-3.55,4,1.11,2.37,3.9.56,5.69.14,3.89-.91,7.75-.67,11.59-.37,2.61.21,5.15,1.32,6.32,4.14A.75.75,0,0,1,257,131.75Z"/><path class="cls-12" d="M218.34,203c1.65,1.82,3.8.87,5.74,1,3.5.29,7.17-.59,11.7,2.18H193.53c1.07-1.55,2-1.11,2.76-1.2a20.12,20.12,0,0,1,2.33,0c2.62-.55,5.51,1.1,7.94-1,2.71-.15,5.51.55,8.07-.89Z"/><path class="cls-6" d="M100.5,187.86a1.86,1.86,0,0,1-.41,2.06L59.92,190c-3,0-6-.15-8-2.83l1.41-.11a12.35,12.35,0,0,0,4.51,1c8.11-.1,16.22-.11,24.32-.16Z"/><path class="cls-3" d="M92.66,204a8.59,8.59,0,0,1-8.82,0,5.16,5.16,0,0,0-.6-3.13c-.41-.81-.24-2.58.35-2.41,4.27,1.25,5.85-4.81,9.91-3.48.8.27.31,1.38.2,2.13C93.35,199.44,93,201.74,92.66,204Z"/><path class="cls-2" d="M235.57,158.63,234.44,160c-2.09-6.41-.52-13-.89-19.47a8.49,8.49,0,0,1,5.55.57c-1.09,4.66.65,9.94-3.17,14C235.06,156,235.37,157.41,235.57,158.63Z"/><path class="cls-6" d="M233.32,181.39A26.23,26.23,0,0,0,233,185c.1,3.74-1.75,5.54-5.37,5.24-2.8-.23-5.86,1.19-8.39-1.11,2.76-1.13,6.07.94,8.59-1.51,2-1.61.35-4.39,1.92-6.15l.88-.38,2.73-.07Z"/><path class="cls-11" d="M115.56,21.42c4.38-1.2,8-2.47,12.48-2.64-2.4,3.39-4.46,6.36-8.62,6.51C116.84,25.38,117.41,22.68,115.56,21.42Z"/><path class="cls-10" d="M233.33,181l-2.73.07c0-1.65.09-3.29.13-4.94l1.72-.36c3.85,2.09,7.55-.32,11.32-.47,2.27-.08,4.49-.85,7.57.81-5.12,1.11-9.59.11-13.78,1.48C235.59,178.28,233.47,178.3,233.33,181Z"/><path class="cls-13" d="M195.81,53.63c-1.42,1.4-3.31,1.8-5.1,2.37-1.56.5-3.15.38-4.08-1-1-1.58-.09-2.86,1.22-3.88C191,50.36,193,53.43,195.81,53.63Z"/><path class="cls-13" d="M41.9,51.94c-.62-4,1.24-6.06,4.08-7.43a2.22,2.22,0,0,1,3,.59c.8,1.25-.16,2-1.06,2.69C46,49.15,44.09,50.43,41.9,51.94Z"/><path class="cls-13" d="M202.94,45.09c-1.73-.3-2.6-1.68-3.73-2.66-1.32-1.14-2.75-2.67-1-4.2s3.14.05,4.27,1.35C204,41.28,203.94,43.14,202.94,45.09Z"/><path class="cls-13" d="M88.58,36.67c-.09-.62-.23-.92-.15-1.13.76-2.09.9-4.72,3.76-5.16a1.42,1.42,0,0,1,1.51,1.83C93.1,34.89,91.11,36,88.58,36.67Z"/><path class="cls-6" d="M258.91,64.87q-2.28-3,.88-5c1.85.22,3.61.81,3.23,3.06S260.65,65,258.91,64.87Z"/><path class="cls-6" d="M26.63,106.22c-1.81,0-2.77-.84-2.85-2.49s.89-2.26,2.32-2.29a2.12,2.12,0,0,1,2.44,2.2C28.59,105,28.08,106.06,26.63,106.22Z"/><path class="cls-6" d="M26.67,151.78c-.13,1.42-.81,2.37-2.31,2.33a2.29,2.29,0,0,1-2.46-2.67c.09-1.55,1.12-2.1,2.52-2.05A2.18,2.18,0,0,1,26.67,151.78Z"/><path class="cls-13" d="M78,31c-1.43-1.44-4.37-.31-5.28-2.84A1.07,1.07,0,0,1,74,26.7c2.1.43,4.3.95,5.25,3.21C79.46,30.5,78.89,31,78,31Z"/><path class="cls-13" d="M72.39,34.73c1.54.85,3.6,1.37,4.12,3.61.22,1-.66,1.47-1.47,1-1.68-.9-4.11-1-4.52-3.43C70.34,34.89,71.37,34.89,72.39,34.73Z"/><path class="cls-14" d="M218.34,203l-3.71.15,2.09-2.76,4.25-1C223.33,203,219.24,201.81,218.34,203Z"/><path class="cls-13" d="M190.92,45.86c-.78-.39-1.15-.46-1.31-.67-1.2-1.62-3.84-2.47-2.94-5.2.1-.3,1.22-.61,1.62-.41C190.8,40.84,191.58,43,190.92,45.86Z"/><path class="cls-14" d="M206.56,204c-2.43,2.06-5.32.41-7.94,1-.47-2.59,2.37-1.18,3-2.46l3.67.18Z"/><path class="cls-3" d="M230.73,176.17c0,1.65-.09,3.29-.13,4.94l-.88.38a130.49,130.49,0,0,1-.17-17h1.14l.11-.11q0,4.4.07,8.8C230.82,174.17,230.78,175.17,230.73,176.17Z"/><path class="cls-9" d="M39,76.14a4.14,4.14,0,0,1,.7.06c0,.62.08,1.25.13,1.87L33.17,78c.34-.61-.63-2.23.94-1.79S37.38,75.8,39,76.14Z"/><path class="cls-3" d="M227.8,187.64c-2.52,2.45-5.83.38-8.59,1.51l-3.8.2-.6-1.29C219.14,187.82,223.5,188.5,227.8,187.64Z"/><path class="cls-11" d="M39,59.23c.41.17,1.18.32,1.19.5,0,1.41,2.82,2.45,1.18,3.66-1.86,1.38-2.11-1.47-3.27-2.19Z"/><path class="cls-11" d="M32.35,79.11A7.82,7.82,0,0,1,34,84.25c-2.13-1.17-1.42-3-1.82-4.47A2.2,2.2,0,0,1,32.35,79.11Z"/><path class="cls-9" d="M33.56,72.68c.11-.26.17-.67.36-.74s.5.18.76.3c-.12.26-.17.66-.36.73S33.82,72.79,33.56,72.68Z"/><path class="cls-3" d="M230.67,115.71q.14,8.07.28,16.14a2.7,2.7,0,0,1-.35.7l-1.06.06-.21-16.91a1.26,1.26,0,0,0,0-1.94V111a89.1,89.1,0,0,0-.09-21.65,87.37,87.37,0,0,1-.11-8.86c.25-2.94-.78-3.69-3.63-3.65-12.62.18-25.23.14-37.85.18l-2.79-8.33,34.45-.28,4.64.18,2.29-.17a5.31,5.31,0,0,1,4.54,4A30.52,30.52,0,0,0,230.6,81l.17.91c0,1.85,0,3.71,0,5.56Z"/><path class="cls-7" d="M184.85,68.66,187.64,77c.08,3.09.15,6.19.23,9.29l-3.21-.61c-.48-3-.69-6-2.16-8.71-2.41-5.94-5.52-8.15-11.61-8.19-3.6,0-7.2,0-10.79,0-6.16.09-8.36,1.91-10.07,8.23a25.17,25.17,0,0,0-2,7.63c-.15.9-.3,1.81-.44,2.71l-2.23-.06-1-3.63c-.08-2.2-.16-4.39-.23-6.59q1.44-4.18,2.9-8.37l4.59-4.91,1-.82c3-2.34,6.71-2.85,10.25-3.78,1.31,1.08.76,2.54.8,3.88a1.67,1.67,0,0,0,1.69,1.8c.79,0,1.86,0,1.91-.87.16-3,3.1-3,4.59-4.6a25.69,25.69,0,0,1,10.68,5.84Z"/><path class="cls-13" d="M226.23,68.39l-2.29.17c-1.33-1.16-3.09-1-4.63-1.54-2.08-.85-4.14-1.89-4.32-4.39-.11-1.58,1.26-2.39,2.75-2.7,2.58-.55,4.56.52,6.15,2.45A12.2,12.2,0,0,1,226.23,68.39Z"/><path class="cls-13" d="M239.7,57.17c-2.15-.23-3.25-1.85-4.53-3.15-.95-1-1.55-2.15-.37-3.28s2.41-.31,3.34.49A5.2,5.2,0,0,1,239.7,57.17Z"/><path class="cls-4" d="M231.32,57.47l-13.26-2.63C222.29,54.28,226.41,54.31,231.32,57.47Z"/><path class="cls-12" d="M230.6,81a30.52,30.52,0,0,1,.17-8.59c3.12.35,2.62,2.76,2.73,4.82,0,.6,0,1.2,0,1.8l0,0c-1.3,0-1.77.76-1.89,1.91l0,0Z"/><path class="cls-12" d="M219.31,67c1.54.52,3.3.38,4.63,1.54l-4.64-.18C219.3,67.93,219.31,67.47,219.31,67Z"/><path class="cls-12" d="M236.27,73.35c-.13.68-.09,1.48-1.12,1.43a.42.42,0,0,1-.29-.29c-.06-1,.77-1,1.43-1.12Z"/><path class="cls-6" d="M231.59,80.92c.12-1.15.59-1.94,1.89-1.91C233.22,80,232.89,80.94,231.59,80.92Z"/><path class="cls-6" d="M233.46,79c0-.6,0-1.2,0-1.8C235,77.86,233.94,78.44,233.46,79Z"/><path class="cls-12" d="M236.29,73.37l.2-.37-.22.35Z"/><path class="cls-6" d="M230.6,81l1-.1a.88.88,0,0,1-.84,1C230.72,81.61,230.66,81.31,230.6,81Z"/><path class="cls-15" d="M144.18,77.07c.07,2.2.15,4.39.23,6.59q-22,0-44,.07c-2.14,0-4.65.21-4.63,2.71,0,2.66,2.73,1.93,4.45,1.94,15,0,30,0,44.95,0,.32,1.43.6,2.88,1.88,3.85-.15,5.33-1.9,10.35-3,15.49-1,4.6,0,6.05,4.57,7.06,11.35,2.48,22.68,5,34,7.57l.76,1.76q.18,3.3.37,6.6c-8.58,0-17.15,0-25.72,0-1.82,0-4.27-.39-4.29,2.29s2.4,2.35,4.23,2.36q13.8,0,27.59,0c2.21,3.2,4.7,6.11,8.31,7.8,1.58.73,2.5,1.74,2.14,3.57-12.21,0-24.41.06-36.62-.08-4.14,0-6,1.43-5.93,5.75.18,7,.2,14.08,0,21.12-.11,3.84,1.2,5.28,5.13,5.22,12.21-.19,24.41-.08,36.62-.09.08,3.07.17,6.13.25,9.2l-77.55.09,1-14.89c8.57,0,17.15,0,25.72-.07,1.9,0,4.7.69,4.8-2.23s-2.7-2.38-4.61-2.4c-8.58-.08-17.15-.08-25.72-.11-.07-1.56-.13-3.11-.2-4.66.2,0,.4-.06.6-.08,8.61,0,17.23.11,25.84.11,1.61,0,4,.48,3.88-2.07-.09-2.07-2.27-1.71-3.77-1.72-8,0-16,0-24,0l2.87-4.68c7,0,14,0,21,0,1.84,0,4.19.26,4.14-2.43,0-2.33-2.18-2.24-3.9-2.23q-10.26,0-20.51.13c-.28-1-.55-1.94-.83-2.91,2.77-1.28,5.48-2.61,4.24-6.5,1.76-.39,3.78.56,5.3-1.05,2.17-1,1.86-3,1.86-4.84q0-17.26,0-34.53c0-1.85.31-3.83-1.86-4.85-.9-1.94-2.63-1.87-4.37-1.87-9.31,0-18.62,0-27.94,0-1.21,0-2.52-.24-3.43.92-2.33,0-4.67,0-7,0-5.66,0-6.11.43-6.13,6.09,0,11.37.09,22.73,0,34.1,0,4.07,1.29,6.29,5.64,5.9,1.69,2.5,3.58,5.09,7,4.66,3.92-.51,5.08,1.38,5.22,4.72l-12.1,0c-1.77,0-3.71.12-3.59,2.51.11,2,1.9,2.14,3.51,2.15l13,.07-.86,4.62c-4.34,0-8.68,0-13,0-1.33,0-2.57.5-2.63,2-.07,1.85,1.45,1.72,2.65,1.72,4.34,0,8.68,0,13,0a2.1,2.1,0,0,0,.5-.09q-.6,2.43-1.19,4.86l-11.66,0c-1.67,0-3.35.29-3.37,2.32S88.65,173,90.32,173l11.19.07q-.51,7.38-1,14.76l-18.34,0q0-55.32,0-110.64ZM93.36,86.66c-.21-2.57-1.43-4.49-3.93-4.59a4.06,4.06,0,0,0-4.28,4.09,3.69,3.69,0,0,0,3.64,4.1A4,4,0,0,0,93.36,86.66Z"/><path class="cls-12" d="M82.12,77.25q0,55.32,0,110.64c-8.1.05-16.21.06-24.32.16a12.35,12.35,0,0,1-4.51-1c-.1-6.72-.29-13.45-.31-20.17-.05-28.49,0-57-.14-85.45,0-3.45.77-4.61,4.38-4.47C65.54,77.32,73.83,77.19,82.12,77.25Zm-15,27.17c12.89-.16,11.12,1.71,11.23-11.11.1-12.15.87-11.48-11.32-11.48-11.95,0-11.36-.62-11.22,11.1C55.92,106.15,53.94,104.26,67.08,104.42Zm1,73.33c-3.12,0-6.23,0-9.35,0-1,0-1.92.32-1.78,1.58.1.94.92,1.19,1.73,1.19q9.1,0,18.22,0c1,0,2-.17,2-1.37s-1-1.42-2-1.43C74.05,177.73,71.09,177.74,68.13,177.75Zm8.6-66.16c-5-2.22-16.05-1.88-18.78,0Zm-18.44-5v.94H76.75l0-.94Z"/><path class="cls-15" d="M79.29,68.49q1.53-3.33,3.08-6.66A29.07,29.07,0,0,1,93,67.06c-.19.49-.37,1-.55,1.46Z"/><path class="cls-2" d="M110.26,68.52l2.85-7.41c2.71,2,4.45,5,6.67,7.44Z"/><path class="cls-11" d="M50.16,91.4c-.21-6.31.47-12.65-1.31-19.4,2.84,2,1.48,5,3,6.89q0,6.27-.07,12.55Z"/><path class="cls-9" d="M92.42,68.52c.18-.48.36-1,.55-1.46a3.12,3.12,0,0,1,2.14,1.51Z"/><path class="cls-1" d="M38.79,174c1.08,0,1.68.3,1,1.48C39.23,175.1,38.2,175.08,38.79,174Z"/><path class="cls-14" d="M161.89,49.83c3.75-3.37,8.18-1.71,12.38-1.6,2.42.07,1.77,2.43,1.91,3.6.26,2.29-.18,4.71-3.39,4.9-4.77-3.64-7.26-3.69-10.08-.2-.52-1.28-1.05-2.56-1.58-3.84Z"/><path class="cls-16" d="M162.71,56.53c2.82-3.49,5.31-3.44,10.08.2L172,59.4c-1.49,1.56-4.43,1.6-4.59,4.6-.05.83-1.12.92-1.91.87a1.67,1.67,0,0,1-1.69-1.8c0-1.34.51-2.8-.8-3.88C162.88,58.31,162.8,57.42,162.71,56.53Z"/><path class="cls-5" d="M175.55,41c-2.73,1-5.62-.44-7.83,1.59-.42.39-1.15.7-1.61,0a2.55,2.55,0,0,1,0-2.65c.27-.52.69-1.06,1.43-.58C169.89,40.87,172.83,39.77,175.55,41Z"/><path class="cls-5" d="M159.37,52.9a4.46,4.46,0,0,1-1.49,2.73C157.1,52,157.1,52,159,52.52A4.26,4.26,0,0,1,159.37,52.9Z"/><path class="cls-5" d="M161.89,49.83l-.76,2.86-1.76.2c-.11-.13-.23-.25-.35-.37C159.37,51,160.08,49.82,161.89,49.83Z"/><path class="cls-5" d="M152.71,63l-1,.82c0-.87,0-1.74-.07-2.6l.14-.12A2.16,2.16,0,0,1,152.71,63Z"/><path class="cls-5" d="M151.6,61.19c-1.06-.7-.92-1.79-.93-2.83l.09-.08c1.08.66.91,1.77,1,2.79Z"/><path class="cls-5" d="M163.82,46l.46-1.25a3.22,3.22,0,0,1,.34.27c-.21.37-.45.73-.69,1.09Z"/><path class="cls-5" d="M156.8,49.27l-.22-.32.48-.27c0,.14.09.29,0,.4S156.9,49.21,156.8,49.27Z"/><path class="cls-5" d="M149.74,57.42c-.24-.35-.48-.71-.7-1.08,0,0,.23-.17.35-.26l.44,1.25Z"/><path class="cls-5" d="M163.93,46.15l-.49.38c.12-.17.25-.33.38-.49Z"/><path class="cls-5" d="M149.83,57.33l.93,1-.09.08-.93-.94Z"/><path class="cls-5" d="M147,54.46l.38.53-.55-.36Z"/><path class="cls-5" d="M146.87,54.63l-.35-.52.52.35Z"/><path class="cls-11" d="M39.83,78.07c0-.62-.09-1.25-.13-1.87,4.06.69,5,4.17,5.51,7.23.47,2.76,1,5.86-.58,8.63.17-4.92-.33-9.63-4.19-13.27L39.77,78Z"/><path class="cls-11" d="M43.8,96.91l3.53.89c0,.61,0,1.21,0,1.81-.12,1.23-.31,2.61-1.88,2.61s-1.78-1.38-1.81-2.61C43.58,98.71,43.73,97.81,43.8,96.91Z"/><path class="cls-5" d="M41.52,101.57c-.22.41-.49.43-.65,0a1.39,1.39,0,0,1,0-.9c.16-.43.49-.43.64,0A2.7,2.7,0,0,1,41.52,101.57Z"/><path class="cls-5" d="M45.21,111.88l-.16.36-.38-.5c.11-.06.24-.19.31-.16S45.13,111.78,45.21,111.88Z"/><path class="cls-5" d="M43,107.55l-.22-.33.49-.27c0,.14.09.29.05.4S43.13,107.49,43,107.55Z"/><path class="cls-5" d="M42.08,104.74l-.22-.34.49-.26c0,.13.09.29,0,.4S42.19,104.68,42.08,104.74Z"/><polygon class="cls-11" points="35.61 87.7 35.7 87.98 35.45 87.94 35.61 87.7"/><polygon class="cls-11" points="34.58 86.29 34.49 85.99 34.74 86.02 34.58 86.29"/><path class="cls-9" d="M39.77,78l.67.77Z"/><path class="cls-11" d="M249.12,119.84c-2.43,1-4.17,2-6.55,1.13A7.31,7.31,0,0,1,249.12,119.84Z"/><path class="cls-11" d="M253.29,118.56a1.63,1.63,0,0,1-1.92.72c-.12,0-.18-.23-.27-.35l2-.52Z"/><path class="cls-11" d="M240.35,121.9,240,122l-.1-.53a.92.92,0,0,1,.38.08C240.33,121.64,240.32,121.79,240.35,121.9Z"/><path class="cls-11" d="M253.13,118.41l.49-.33-.33.48Z"/><path class="cls-1" d="M187.87,86.28c-.08-3.1-.15-6.2-.23-9.29,12.62,0,25.23,0,37.85-.18,2.85,0,3.88.71,3.63,3.65a87.37,87.37,0,0,0,.11,8.86,116,116,0,0,0,.09,21.65v2.79a1.74,1.74,0,0,0,0,1.94l.21,16.91c-1.16,2.48-.63,5-.23,7.54-.67,8.12-.12,16.22.24,24.33a130.49,130.49,0,0,0,.17,17c-1.57,1.76.13,4.54-1.92,6.15-4.3.86-8.66.18-13,.42-1.22-3-2.43-6-2.08-9.31,6.2-.26,6.61-.67,6.62-6.9s0-12.53,0-18.79c0-5.71-.63-6.27-6.63-6.34a26.06,26.06,0,0,0-5.79-7.45c.06-.34.11-.69.17-1a11.74,11.74,0,0,0,7.82-2.74c1.73-.22,4.14.23,4.2-2.32.08-2.95-2.49-2.35-4.36-2.49-.81-3.57-5.85-2.06-6.69-5.58,1.79-8.32,3.48-16.66,5.4-24.95,1.56-6.72,1.3-7.33-5.31-8.93Z"/><path class="cls-12" d="M195.21,178.67c-12.21,0-24.41-.1-36.62.09-3.93.06-5.24-1.38-5.13-5.22.22-7,.2-14.09,0-21.12-.11-4.32,1.79-5.8,5.93-5.75,12.21.14,24.41.07,36.62.08,1.3,3.79.41,7.72.8,11.55.24,2.36-1.15,5,1.07,7Z"/><path class="cls-3" d="M197.9,165.34c-2.22-2.05-.83-4.68-1.07-7-.39-3.83.5-7.76-.8-11.55.36-1.83-.56-2.84-2.14-3.57-3.61-1.69-6.1-4.6-8.31-7.8l-1.81-4.68q-.2-3.3-.37-6.6l2.08-1.07,1.08.15c.82,5.5,3.09,10.1,8.14,12.95a6.31,6.31,0,0,0,5.28.76l0,.13a.85.85,0,0,0,.94.93l3.21.22,2.83,1.1a26.06,26.06,0,0,1,5.79,7.45c1.29,5.28,3.68,10.38,2.55,16.05C209.7,165.15,203.78,165.09,197.9,165.34Z"/><path class="cls-2" d="M206.56,204l-1.29-1.32c-2.4-6.6-4.31-13.3-3.06-20.42.24-1.36-.36-3.61,1.92-3.65s1.74,2.17,2,3.55c1.36,7.34,5.17,13.23,10.6,18.19l-2.09,2.76C212.07,204.57,209.27,203.87,206.56,204Z"/><path class="cls-12" d="M215.26,162.77c1.13-5.67-1.26-10.77-2.55-16.05,6,.07,6.61.63,6.63,6.34,0,6.26,0,12.53,0,18.79s-.42,6.64-6.62,6.9c-.77-3.33,1.47-6,2-9C215.18,167.41,215.71,165.13,215.26,162.77Z"/><path class="cls-11" d="M81.61,49.82l-.74-.46c.26-.13.52-.37.77-.36s.48.27.72.42Z"/><path class="cls-11" d="M88.75,52.58l.35.52-.52-.35Z"/><path class="cls-11" d="M88.58,52.75l-.35-.5.52.33Z"/><path class="cls-11" d="M48.13,68.77c-.21-.38-.44-.75-.62-1.14,0,0,.22-.18.33-.28l.5,1.24Z"/><path class="cls-11" d="M48.34,68.59c.21.36.44.72.63,1.09,0,0-.21.18-.33.28l-.51-1.2Z"/><path class="cls-10" d="M38.79,157.2c2.71,3.23,1.29,7,2.94,10.38l-1.39.23Q39.56,162.5,38.79,157.2Z"/><path class="cls-13" d="M57,62.41c2.85-.85,5.25-1.31,7.74-.66,1.37.37,3.09.74,2.61,2.53-.42,1.56-2.14,1.64-3.56,1.29A19,19,0,0,1,57,62.41Z"/><path class="cls-12" d="M233.55,140.48c.37,6.48-1.2,13.06.89,19.47-1.21,1.47-2.43,2.94-3.64,4.42l-.11.11q0-12.16,0-24.33l.11.08Z"/><path class="cls-6" d="M229.31,140.15c-.4-2.53-.93-5.06.23-7.54l1.06-.06c-1.11,2.58,0,5.12.18,7.68l-.11-.08Z"/><path class="cls-3" d="M119.55,163.52c-.2,0-.4,0-.6.08l-5.92,1-9.83-1.06a2.1,2.1,0,0,1-.5.09c0-1.27,0-2.53,0-3.8l.86-4.62a7,7,0,0,0-.84-4.77c-.14-3.34-1.3-5.23-5.22-4.72-3.37.43-5.26-2.16-7-4.66-.81-4.83-1.92-9.68,1-14.25,3.61,2,1.36,5.37,1.71,8.07.74,5.67,2.76,7.13,8.09,5.34,2.36-.78,4.81-1.3,7.22-1.94a18.69,18.69,0,0,1,9.06,2c-1.82,3.24-.55,5.5,2.31,7.24,1.49,4.46-.64,8.91-.07,13.37Z"/><path class="cls-12" d="M101.51,173.1,90.32,173c-1.67,0-3.36-.3-3.34-2.34s1.7-2.33,3.37-2.32l11.66,0C101.84,170,101.67,171.54,101.51,173.1Z"/><path class="cls-2" d="M110.25,175.49c2.57,3.88,1.46,8.26,1.74,12.46l-5.49,0C107.16,183.64,108.06,179.37,110.25,175.49Z"/><path class="cls-6" d="M106.5,188l5.49,0c.05,1,.69,2.12-.53,2.9a12.64,12.64,0,0,0-5.79.56A3.33,3.33,0,0,1,106.5,188Z"/><path class="cls-12" d="M119.15,168.26c8.57,0,17.14,0,25.72.11,1.91,0,4.71-.59,4.61,2.4s-2.9,2.21-4.8,2.23c-8.57.07-17.15.05-25.72.07C119,171.46,119.08,169.86,119.15,168.26Z"/><path class="cls-11" d="M229.31,140.15h1.36q0,12.16,0,24.33h-1.14C229.19,156.37,228.64,148.27,229.31,140.15Z"/><path class="cls-6" d="M229.32,111a116,116,0,0,1-.09-21.65A89.1,89.1,0,0,1,229.32,111Z"/><path class="cls-6" d="M229.33,115.7a1.74,1.74,0,0,1,0-1.94A1.26,1.26,0,0,1,229.33,115.7Z"/><path class="cls-12" d="M186.56,123.18l-1.08-.15c-.4-2.44-1.73-1.11-2.84-.69-11.33-2.53-22.66-5.09-34-7.57-4.6-1-5.55-2.46-4.57-7.06,1.09-5.14,2.84-10.16,3-15.49,2.8-1.32,2.16-3,.58-4.87.14-.9.29-1.81.44-2.71.42-.18,1.17-.31,1.21-.55,1-5.9,4.6-5.33,9.05-4.22,8.72,2.16,17.55,3.89,26.33,5.8l3.21.61,20.28,4.94c6.61,1.6,6.87,2.21,5.31,8.93-1.92,8.29-3.61,16.63-5.4,24.95-1.34,0-1.42,1.32-2.16,1.94l-8.25-1-1.83-.24C193.38,122.63,189.46,124.71,186.56,123.18Z"/><path class="cls-3" d="M150,77c1.71-6.32,3.91-8.14,10.07-8.23,3.59,0,7.19,0,10.79,0,6.09,0,9.2,2.25,11.61,8.19Z"/><path class="cls-12" d="M145.17,88.37c-15,0-30,0-44.95,0-1.72,0-4.43.72-4.45-1.94,0-2.5,2.49-2.71,4.63-2.71q22,0,44-.07l1,3.63C145.32,87.65,145.25,88,145.17,88.37Z"/><path class="cls-15" d="M150,77,182.5,77c1.47,2.72,1.68,5.74,2.16,8.71-8.78-1.91-17.61-3.64-26.33-5.8-4.45-1.11-8.08-1.68-9.05,4.22,0,.24-.79.37-1.21.55A25.17,25.17,0,0,1,150,77Z"/><path class="cls-16" d="M145.17,88.37c.08-.36.15-.72.23-1.08l2.23.06c1.58,1.83,2.22,3.55-.58,4.87C145.77,91.25,145.49,89.8,145.17,88.37Z"/><path class="cls-12" d="M91.52,126.81c-2.91,4.57-1.8,9.42-1,14.25-4.35.39-5.69-1.83-5.64-5.9.13-11.37,0-22.73,0-34.1C85,95.4,85.4,95,91.06,95c2.34,0,4.68,0,7,0,0,.32,0,.64,0,1Q98,107.27,98,118.61c-3-2-6.31-.74-9.47-.94A1.46,1.46,0,0,0,86.87,119a1.31,1.31,0,0,0,1.46,1.43c3.93-.39,3,2.5,3.24,4.63Z"/><path class="cls-7" d="M119.92,147.49c-2.87-1.74-4.14-4-2.32-7.24,3.15-3.71-3.51-3.79-2.48-6.71l-2.61,3.35c-2.8-1.58-1.63-7.19-6.56-6.44a3,3,0,0,1,1.19-4.37,5.35,5.35,0,0,1,6.15.29c1.82,1.31,3,4.16,4.9,4.58,5.33,1.19,7.15,5.72,10.16,9.15l.16,1.08c1.24,3.89-1.47,5.22-4.24,6.5Z"/><path class="cls-12" d="M183.77,130.7l1.81,4.68q-13.79,0-27.59,0c-1.83,0-4.26.32-4.23-2.36s2.47-2.29,4.29-2.29C166.62,130.7,175.19,130.71,183.77,130.7Z"/><path class="cls-12" d="M125.1,150.59q10.26-.08,20.51-.13c1.72,0,3.86-.1,3.9,2.23.05,2.69-2.3,2.43-4.14,2.43-7,0-14,0-21,0C124.63,153.63,124.86,152.11,125.1,150.59Z"/><path class="cls-12" d="M119.55,163.52c.09-.89.19-1.77.29-2.66l1.68-1c8,0,16,0,24,0,1.5,0,3.68-.35,3.77,1.72.12,2.55-2.27,2.07-3.88,2.07C136.78,163.63,128.16,163.56,119.55,163.52Z"/><path class="cls-9" d="M133.81,95.91c2.17,1,1.86,3,1.86,4.85q0,17.26,0,34.53c0,1.85.31,3.82-1.86,4.84l0,0q0-22.08,0-44.15Z"/><path class="cls-12" d="M102.7,150.44a7,7,0,0,1,.84,4.77l-13-.07c-1.61,0-3.4-.1-3.51-2.15-.12-2.39,1.82-2.5,3.59-2.51Z"/><path class="cls-9" d="M98.08,95.93V95c.91-1.16,2.22-.92,3.43-.92,9.32,0,18.63,0,27.94,0,1.74,0,3.47-.07,4.37,1.87l0,0Z"/><path class="cls-12" d="M102.68,159.83c0,1.27,0,2.53,0,3.8-4.34,0-8.68,0-13,0-1.2,0-2.72.13-2.65-1.72.06-1.54,1.3-2,2.63-2C94,159.83,98.34,159.84,102.68,159.83Z"/><path class="cls-12" d="M93.36,86.66a4,4,0,0,1-4.57,3.6,3.69,3.69,0,0,1-3.64-4.1,4.06,4.06,0,0,1,4.28-4.09C91.93,82.17,93.15,84.09,93.36,86.66Z"/><path class="cls-13" d="M121.52,159.84l-1.68,1c-.57-4.46,1.56-8.91.07-13.37l4.36.19c.28,1,.55,1.94.83,2.91-.24,1.52-.47,3-.71,4.57Z"/><path class="cls-9" d="M128.51,141.18l-.16-1.08h5.43l0,0C132.29,141.74,130.27,140.79,128.51,141.18Z"/><path class="cls-9" d="M182.64,122.34c1.11-.42,2.44-1.75,2.84.69l-2.08,1.07C183.15,123.51,182.9,122.93,182.64,122.34Z"/><path class="cls-1" d="M67.08,104.42c-13.14-.16-11.16,1.73-11.31-11.49C55.63,81.21,55,81.83,67,81.83c12.19,0,11.42-.67,11.32,11.48C78.2,106.13,80,104.26,67.08,104.42Z"/><path class="cls-15" d="M68.13,177.75c3,0,5.92,0,8.88,0,1,0,2,.22,2,1.43s-1.09,1.37-2,1.37q-9.11,0-18.22,0c-.81,0-1.63-.25-1.73-1.19-.14-1.26.8-1.57,1.78-1.58C61.9,177.73,65,177.75,68.13,177.75Z"/><path class="cls-2" d="M76.73,111.59H58C60.68,109.71,71.78,109.37,76.73,111.59Z"/><path class="cls-2" d="M58.29,106.58H76.72l0,.94H58.3Z"/><path class="cls-13" d="M205.9,127c.74-.62.82-2,2.16-1.94.84,3.52,5.88,2,6.69,5.58.05,1.6.11,3.2.16,4.81a11.74,11.74,0,0,1-7.82,2.74c-1.31-1.25-1.05-2.55-.55-4.16.55-1.79,1.09-3.85-.6-5.51C205.93,128.06,205.92,127.55,205.9,127Z"/><path class="cls-16" d="M205.94,128.55c1.69,1.67,1.15,3.73.6,5.52-.5,1.61-.76,2.91.55,4.16-.06.35-.11.7-.17,1l-2.83-1.1c.34-1.64-1.12-2.46-1.69-3.69l.21-3.68C203.73,130.07,204.46,128.76,205.94,128.55Z"/><path class="cls-12" d="M214.91,135.49c0-1.61-.11-3.21-.16-4.81,1.87.14,4.44-.46,4.36,2.49C219.05,135.72,216.64,135.27,214.91,135.49Z"/><path class="cls-9" d="M186.56,123.18c2.9,1.53,6.82-.55,9.26,2.61-2.22,3.25-1,6.86-1.12,10.34C189.65,133.28,187.38,128.68,186.56,123.18Z"/><path class="cls-13" d="M194.7,136.13c.08-3.48-1.1-7.09,1.12-10.34l1.83.24.87,4.75c0,1.32-.08,2.67,1,3.72l.5,2.39A6.31,6.31,0,0,1,194.7,136.13Z"/><path class="cls-9" d="M200,136.89c-.17-.79-.33-1.59-.5-2.39l2.92,0c.57,1.23,2,2.05,1.69,3.69l-3.21-.22-.94-.93Z"/><path class="cls-13" d="M199.94,137l.94.93A.85.85,0,0,1,199.94,137Z"/><path class="cls-1" d="M133.78,140.1h-5.43c-3-3.43-4.83-8-10.16-9.15-1.87-.42-3.08-3.27-4.9-4.58a5.35,5.35,0,0,0-6.15-.29,3,3,0,0,0-1.19,4.37c-1.51,3.4.68,5.57,2.59,7.83-2.41.64-4.86,1.16-7.22,1.94-5.33,1.79-7.35.33-8.09-5.34-.35-2.7,1.9-6-1.71-8.07,0-.59,0-1.17,0-1.76,1.72-2.41,3.44-4.82,6.33-6,.07,0,0-.28.07-.43q.06-11.34.11-22.68l35.69,0Q133.79,118,133.78,140.1Z"/><path class="cls-16" d="M108.54,138.28c-1.91-2.26-4.1-4.43-2.59-7.83,4.93-.75,3.76,4.86,6.56,6.44l2.61-3.35c-1,2.92,5.63,3,2.48,6.71A18.69,18.69,0,0,0,108.54,138.28Z"/><path class="cls-15" d="M198.52,130.78l-.87-4.75,8.25,1c0,.51,0,1,0,1.52-1.48.2-2.21,1.51-3.34,2.24Z"/><path class="cls-11" d="M98,118.61c0,.15,0,.4-.07.43-2.89,1.19-4.61,3.6-6.33,6-.24-2.13.69-5-3.24-4.63A1.31,1.31,0,0,1,86.87,119a1.46,1.46,0,0,1,1.63-1.32C91.66,117.87,95,116.65,98,118.61Z"/><path class="cls-12" d="M198.52,130.78l4.08,0c-.06,1.22-.13,2.45-.2,3.68l-2.92,0C198.44,133.45,198.54,132.1,198.52,130.78Z"/></svg>