<svg id="Capa_1" data-name="Capa 1" xmlns="http://www.w3.org/2000/svg" viewBox="0 0 185.73 118.13"><defs><style>.cls-1{fill:#fefefe;}.cls-2{fill:#009a9f;}.cls-3{fill:#feb101;}.cls-4{fill:#001386;}.cls-5{fill:#0b102d;}.cls-6{fill:#fe01a3;}.cls-7{fill:#0f1430;}.cls-8{fill:#027c7f;}.cls-9{fill:#f47a48;}.cls-10{fill:#fbf9fb;}.cls-11{fill:#fdb206;}.cls-12{fill:#c1c2c9;}.cls-13{fill:#1b1f3a;}.cls-14{fill:#fcfbfb;}.cls-15{fill:#fdfafa;}.cls-16{fill:#a2a4ae;}.cls-17{fill:#059ca1;}.cls-18{fill:#f57e4a;}.cls-19{fill:#069ca1;}.cls-20{fill:#0b9ea3;}.cls-21{fill:#0e9fa4;}.cls-22{fill:#878997;}.cls-23{fill:#ee0859;}.cls-24{fill:#0b9ca0;}.cls-25{fill:#8a8d9a;}.cls-26{fill:#ed0d58;}.cls-27{fill:#b15d67;}.cls-28{fill:#8f919e;}.cls-29{fill:#7e8190;}.cls-30{fill:#f909a4;}.cls-31{fill:#8f7c58;}.cls-32{fill:#222743;}.cls-33{fill:#a2a4af;}.cls-34{fill:#cb9c9a;}.cls-35{fill:#fc58bf;}.cls-36{fill:#92939f;}.cls-37{fill:#7d496b;}.cls-38{fill:#90929e;}.cls-39{fill:#ac605d;}.cls-40{fill:#acacac;}.cls-41{fill:#119ea3;}.cls-42{fill:#848795;}.cls-43{fill:#8d8f9c;}.cls-44{fill:#cd7f88;}.cls-45{fill:#fd14a9;}.cls-46{fill:#9a9a9a;}.cls-47{fill:#8c6d6d;}.cls-48{fill:#f27b4d;}.cls-49{fill:#9496a3;}.cls-50{fill:#8d6d6d;}.cls-51{fill:#0a9b9f;}.cls-52{fill:#625f74;}.cls-53{fill:#907d58;}.cls-54{fill:#6a3260;}.cls-55{fill:#9d9d9d;}.cls-56{fill:#583355;}.cls-57{fill:#6d7081;}.cls-58{fill:#9694a1;}.cls-59{fill:#636363;}.cls-60{fill:#196c6f;}.cls-61{fill:#818181;}.cls-62{fill:#124546;}.cls-63{fill:#f7966f;}.cls-64{fill:#963531;}.cls-65{fill:#f8f8f8;}.cls-66{fill:#6f7283;}.cls-67{fill:#feb203;}.cls-68{fill:#c8d3f1;}.cls-69{fill:#c7d2f1;}.cls-70{fill:#c9d3f1;}.cls-71{fill:#7b7e8d;}.cls-72{fill:#616161;}.cls-73{fill:#fcfcfb;}.cls-74{fill:#fdfdfb;}.cls-75{fill:#f7f8fc;}.cls-76{fill:#fe2065;}.cls-77{fill:#65c2c5;}.cls-78{fill:#74c0b2;}.cls-79{fill:#33aeb2;}.cls-80{fill:#58bdc0;}.cls-81{fill:#68c3c6;}.cls-82{fill:#fed77b;}.cls-83{fill:#fecb54;}.cls-84{fill:#6ec5c8;}.cls-85{fill:#6cc5c8;}.cls-86{fill:#fed577;}.cls-87{fill:#84ced1;}.cls-88{fill:#fecb57;}.cls-89{fill:#57bcc0;}.cls-90{fill:#fed67a;}.cls-91{fill:#fed67d;}.cls-92{fill:#095764;}.cls-93{fill:#045969;}.cls-94{fill:#986d12;}.cls-95{fill:#f89b1b;}.cls-96{fill:#926914;}.cls-97{fill:#0c102d;}.cls-98{fill:#32314b;}.cls-99{fill:#080e35;}.cls-100{fill:#061048;}.cls-101{fill:#a95355;}.cls-102{fill:#a05357;}.cls-103{fill:#b24e5c;}.cls-104{fill:#985055;}.cls-105{fill:#613645;}.cls-106{fill:#c60387;}.cls-107{fill:#c10385;}.cls-108{fill:#c04e63;}.cls-109{fill:#d791c0;}.cls-110{fill:#90076d;}.cls-111{fill:#fcb002;}.cls-112{fill:#eb77c4;}.cls-113{fill:#f00f5a;}.cls-114{fill:#b95e60;}.cls-115{fill:#a76161;}.cls-116{fill:#291436;}.cls-117{fill:#006b6f;}.cls-118{fill:#007a7e;}.cls-119{fill:#00878b;}.cls-120{fill:#005659;}.cls-121{fill:#006e72;}.cls-122{fill:#3f2343;}.cls-123{fill:#88444c;}</style></defs><title>Img-admin</title><path class="cls-1" d="M57.75,55.34l0-.74c-.61-1-.34-2.07-.34-3.11q0-18.58,0-37.17c0-1-.26-2.13.33-3.11v-.72c1.23-1,2.71-.7,4.1-.71h54.72c1.41,0,2.87-.18,4.13.71,1.45-.68.94.44,1,1.06,1,8.76.42,17.54.32,26.31a3.25,3.25,0,0,1-.76,1.94c-1.8,1.26-3.87.85-5.83.81-4.34-.09-8.7.46-13-.37-1.2-.88-2.27-1.75-4-1.73-9.89.09-19.78,0-29.66.07q8.72,0,17.43,0a5.55,5.55,0,0,1,3.39.76A1.34,1.34,0,0,1,89.77,41c-.66,1.21-1.15,2.55-2.37,3.37a4.49,4.49,0,0,1-1.12.38c-5.84.4-11.69,0-17.86.25,5.22-.05,10.12-.05,15,0,1.39,0,2.86,0,3.91,1.18a3.46,3.46,0,0,1,.39,1c1.2,8.07.33,9-7.76,9.1-6.73.06-13.47-.27-20.19.22C58.9,56.48,57.89,56.66,57.75,55.34Z" transform="translate(-8.71 -9.04)"/><path class="cls-1" d="M87.66,43.83a4.94,4.94,0,0,1,1.17-2.73c3.11-1.74,6.51-1.12,9.76-1,12.17.52,24.35,0,36.53.25,1.5,0,3.1-.35,4.46.7h.73a7.19,7.19,0,0,1,2.94,3.87c.55,10.18.25,20.36.17,30.54,0,2.34-.72,4.47-3.22,5.44-6.7.58-13.41.19-20.11.25-8.24.08-16.48,0-24.72,0a16.63,16.63,0,0,1-6.56-1.06L88.41,79c-1.38-1-1.08-2.48-1.12-3.88-.13-5.77.29-11.54-.22-17.31a3,3,0,0,1-.08-2c.6-3.2.29-6.44.2-9.66A3.18,3.18,0,0,1,87.66,43.83Z" transform="translate(-8.71 -9.04)"/><path class="cls-2" d="M159.45,96.45c-.18-2.58-.53-5.17-.52-7.75,0-6.91,4.06-9.69,10.57-7.2,5.51,2.1,8.19,6.56,9.14,12.13a44.5,44.5,0,0,1,.24,5.67c-1.86,3.24-4.9,5.51-7.1,8.48-.4.54-1.06.29-1.42-.33-.24-3.68-.52-7.35-.66-11,.38,4.7.46,9.42.64,14.14a3.3,3.3,0,0,1-.65,1.62c-2.91.74-5.1-1.33-7.65-2A32.77,32.77,0,0,1,159.45,96.45Z" transform="translate(-8.71 -9.04)"/><path class="cls-3" d="M169.37,112.35l.11-1.27c.47-1,.24-2.31,1.38-3,2.28-3.3,4.47-6.66,8-8.79,2.27-.62,4.48-1.56,6.9-1.43,3.32.18,6.42.89,7.86,4.35a8.7,8.7,0,0,1-1.78,9.85,24.18,24.18,0,0,1-7.65,5,25.34,25.34,0,0,0-9.12,7.13c-1.67.33-2.57-.67-3.31-1.93a3.1,3.1,0,0,1,.56-2.6.45.45,0,0,0,.15-.52c-.1.17-.1.4-.27.56-.44.5-.57,1.6-1.66.85a3.39,3.39,0,0,1-.56-1.44C170.15,116.86,168,114.76,169.37,112.35Z" transform="translate(-8.71 -9.04)"/><path class="cls-4" d="M58.73,90.6c3.81.28,7.68.28,11.05,2.5a11.79,11.79,0,0,1,2.1,7.7l3.23,16.79c-.58,2.69-2.61,1.75-4.28,1.7-2.7-1.22-3-4.1-4.37-6.28-1.26-2.88-2.75-5.69-3.12-8.88-.18-1,.28-2.07-.62-2.88-1.15-.26-2,.5-2.9.91a8.71,8.71,0,0,1-2,.78c-2.47.18-5,.89-7.29-.67-3.11-1.34-4.89-3.55-4.6-7.09C49.27,91,53.86,90.4,58.73,90.6Z" transform="translate(-8.71 -9.04)"/><path class="cls-5" d="M87.54,56.07v1.3c-.17.29-.21.68-.62.79H62.06c2.74,6.8,1.81,11.55-2.83,15-.83.26-1.66.53-2.32-.35-.17-.94.5-1.51.92-2.2a4.21,4.21,0,0,0,.75-3.4c-.21-.73-.29-1.55-1.24-1.74a4.2,4.2,0,0,0-3.55,1c-1.24.69-2.65,1.25-1.25,3.09a2.84,2.84,0,0,1,.48,3,2.94,2.94,0,0,1-1.74,1.2A3.67,3.67,0,0,1,48,73.21c-3.07-1.93-5.27-6.86-4.29-10.68.88-3.41,3.68-4.84,7-5.75a27.39,27.39,0,0,1,7-1.44c.21.79.8.7,1.39.6A234,234,0,0,1,87.54,56.07Z" transform="translate(-8.71 -9.04)"/><path class="cls-6" d="M48,73.21l3.35,0a9.87,9.87,0,0,0,4.49,0,2,2,0,0,1,1.71.73,6.88,6.88,0,0,1,1.65,3.35,11.76,11.76,0,0,1,.37,4c-.31,1.37,0,2.88-1,4.11a2.45,2.45,0,0,1-1.53.55,10,10,0,0,1-2.19-.07,11.66,11.66,0,0,0-4.55-1c-.56,0-1.12-.06-1.26,0a6.94,6.94,0,0,0,.93.06,9.15,9.15,0,0,1,4.63,1c1,.57,2.16-.14,3.21.22a1.56,1.56,0,0,1,.73.61c0,1.32.07,2.63.11,3.94-4.36,1.25-9.05,1.57-12.77,4.58-2.95-.69-.88-2.29-.48-3.35.67-1.76,1.7-3.26-1.54-3.22-2.06,0-2.7-1.53-2.56-3.42C41.77,80.17,44.72,76.59,48,73.21Z" transform="translate(-8.71 -9.04)"/><path class="cls-7" d="M140.24,80.15c1.85-1.17,2.06-3,2.06-5,0-10.4,0-20.8,0-31.21a1.11,1.11,0,0,1,.1-1.42c2.12.7,2.82,2.29,2.82,4.37q0,15.6,0,31.19c0,3.23-1.61,4.77-4.79,4.77H94.72a4.55,4.55,0,0,1-3.54-1.29c.51-2,2.14-1,3.18-1,14-.08,28.06,0,42.09-.07C137.71,80.53,139,80.91,140.24,80.15Z" transform="translate(-8.71 -9.04)"/><path class="cls-8" d="M159.45,96.45c1.82,4.38,1.77,9.15,2.88,13.67a20.13,20.13,0,0,1-5.59,6.48c-2.3-3.81-4.83-7.51-6.81-11.48-1.24-2.49-1.94-5.46.34-7.94,2.11-2.29,4.81-2.09,7.53-1.31C158.36,96,158.9,96.25,159.45,96.45Z" transform="translate(-8.71 -9.04)"/><path class="cls-9" d="M156.74,116.6c1.3-2.64,2.89-5,5.59-6.48,2.83-.76,4.87.93,7,2.23.2,2.36,1.76,4.44,1.43,6.92a1.54,1.54,0,0,0,.63,2.36,2.19,2.19,0,0,1,.68.53l3,2.08c.17.68.35,1.36.52,2-2,1-4.14.25-6.2.48-.35,0-.71,0-1.06,0-2-1.1-3.68-2.39-3.76-5-.05-1.38-.45-2.94-2.15-3.33s-2.53.84-3.48,1.93-1.48,3.26-3.39,1c-.43-1.22.39-2,1-2.87Z" transform="translate(-8.71 -9.04)"/><path class="cls-10" d="M61.28,80.91c1.52.59,2.6.32,2.9-1.48a4,4,0,0,1,4.69-2.81c2.41.32,4.95-.62,7.28.67.77,3.64-1.52,8.57-4.29,9.25-1.18-.75-2.35,0-3.52,0A59,59,0,0,1,62,86.45a2,2,0,0,1-.82-.62,2.3,2.3,0,0,1,.14-1.46C61.92,83.22,60.4,82.06,61.28,80.91Z" transform="translate(-8.71 -9.04)"/><path class="cls-11" d="M22.46,125.94c-.87-1.63-.66-3.43-.87-5.18-.39-3.18.76-4.64,4-4.32,1-.79,2-1.67,3.35-.73,2.78,2.07,3.26,5.3,1.51,10.24-.33.76-1,.82-1.7.81H24.18C23.47,126.77,22.81,126.69,22.46,125.94Z" transform="translate(-8.71 -9.04)"/><path class="cls-12" d="M120.72,10.49H57.77c.22-1.76,1.59-1.42,2.71-1.42l57.35,0C119.06,9.05,120.21,9.1,120.72,10.49Z" transform="translate(-8.71 -9.04)"/><path class="cls-13" d="M121,39.58c0-8.12.06-16.24.15-24.36,0-1.22-.55-2.6.58-3.67,2,.47,2.27,1.83,2.26,3.68,0,8.11,0,16.23.1,24.34C123,41.21,122,41.24,121,39.58Z" transform="translate(-8.71 -9.04)"/><path class="cls-14" d="M51.4,126.11l0-2c.12-2.67-.43-5.36.31-8a1.62,1.62,0,0,1,.81-.86,11.73,11.73,0,0,1,7.27.21,3.11,3.11,0,0,1,1,2.17,12.33,12.33,0,0,1-.69,5.14c-.27.89-.62,1.75-.82,2.67a2,2,0,0,1-1,1.31c-2.06.14-4.14,0-6.21.06A.56.56,0,0,1,51.4,126.11Z" transform="translate(-8.71 -9.04)"/><path class="cls-15" d="M52.11,111.31c0-.22,0-.44,0-.65.72-1.93-1-4.19.83-6a11.24,11.24,0,0,1,8.38.1c1.68,3.6.9,6.86-1.39,9.92-2.63.42-5.26.69-7.86-.21A3.4,3.4,0,0,1,52.11,111.31Z" transform="translate(-8.71 -9.04)"/><path class="cls-16" d="M121,39.58c1,1.15,2.06,1.17,3.09,0,4.18,0,8.36,0,12.54.1,1.13,0,2.73-.62,3,1.4l-50.74,0,.76-.9c4-2.66,8.17-2,12.38-.68Z" transform="translate(-8.71 -9.04)"/><path class="cls-17" d="M23.62,107.92c-3.72-.48-11-6.82-12-10.45-.15-.55-.45-1.23.25-1.54a3.84,3.84,0,0,1,3.42.17,22.46,22.46,0,0,1,6.92,5.65c.66,1.53.58,3.29,1.46,4.76v1.39Z" transform="translate(-8.71 -9.04)"/><path class="cls-18" d="M141.75,125.69c.45-3.7,1.68-4.32,5.64-2.82,1.25.84,1.67.18,1.78-1a7.15,7.15,0,0,1,.28-2.76c2.22-3.17,3.16-3.28,5.87-.72a2.29,2.29,0,0,1,.22,2c-.95,3.9-4.39,4.65-7.45,5.89C146,126.22,143.75,127,141.75,125.69Z" transform="translate(-8.71 -9.04)"/><path class="cls-19" d="M26,94.59c-.67,1.32.74,4.25-1.69,4.47-2.14.21-2.86-2.47-3.44-4.36a10.53,10.53,0,0,1-.13-5.6c.23-1,.22-2.34,1.51-2.5s1.63,1.15,2.22,2A10.11,10.11,0,0,1,26,94.59Z" transform="translate(-8.71 -9.04)"/><path class="cls-20" d="M20.31,112.94c-3.43,2.27-6.78,1-10.08-.31a2.22,2.22,0,0,1-1.52-1.83c0-1.06,1-1.17,1.74-1.45,3.69-1.47,6.89-.64,9.67,2.11-.52.59-1.17.36-1.79.29,0,.47,0-.12.35,0C19.33,112.07,20,112.23,20.31,112.94Z" transform="translate(-8.71 -9.04)"/><path class="cls-21" d="M32.24,103.3l-.79,2.49a.69.69,0,0,1-1-.12c-.79-1.2-.16-2.42-.08-3.63a8.14,8.14,0,0,0,.31-3.13c.14,2.7-1.27,5.27-.42,8a1.69,1.69,0,0,1-.26,1c-.92.7-1.24.44-1.55-.67-1.54-5.5-.35-10.55,2.23-15.77.85,1,1.6,1.63,1.53,2.75A32.31,32.31,0,0,1,32.24,103.3Z" transform="translate(-8.71 -9.04)"/><path class="cls-22" d="M140.24,80.15c-1.12,1.31-2.64.76-4,.77-13.82,0-27.63,0-41.45,0-1.2,0-2.6-.62-3.62.65-.82-.44-1.84-.57-2.37-1.48Z" transform="translate(-8.71 -9.04)"/><path class="cls-23" d="M61.34,105.53a39.87,39.87,0,0,0-8.46-.13,1.75,1.75,0,0,1-1.59,0c-1-.16-2.21,0-2.44-1.33s1.07-1.25,1.72-1.79l7.88-.06a3.91,3.91,0,0,1,4.35.57A2,2,0,0,1,61.34,105.53Z" transform="translate(-8.71 -9.04)"/><path class="cls-24" d="M33.4,109.36a9.11,9.11,0,0,1,5.71-4.42c.75-.25,1.66-.77,2.26.12s.09,1.61-.37,2.32c-1.76,2.7-3.91,4.73-7.48,4.21C33,110.87,33.54,110.1,33.4,109.36Z" transform="translate(-8.71 -9.04)"/><path class="cls-25" d="M57.77,11.21q0,21.69,0,43.39c-1.07-.4-.78-1.34-.78-2.1q0-19.59,0-39.17C57,12.56,56.72,11.63,57.77,11.21Z" transform="translate(-8.71 -9.04)"/><path class="cls-26" d="M76.9,122.25c2,1.24,4.95.93,6.3,3.45-1.55,1.34-3.47.35-5.15.84a2.3,2.3,0,0,1-1,.1c-1.79-.31-3.48-.81-4.58-2.43a1.46,1.46,0,0,1,.77-1.82C74.41,121.72,75.67,122.35,76.9,122.25Z" transform="translate(-8.71 -9.04)"/><path class="cls-27" d="M76.9,122.25c-1.08,1.1-2.39.39-3.6.44A4.32,4.32,0,0,1,70.93,119c1.37-.53,3.2.34,4.18-1.38C75.81,119.1,75.18,121.13,76.9,122.25Z" transform="translate(-8.71 -9.04)"/><path class="cls-28" d="M29.38,126.47l1.07-.52a148,148,0,0,0,21,.16l0,.33c.23.13.32.26.24.39s-.15.21-.23.21H29.31c-.23-.15-.29-.29-.2-.41A.38.38,0,0,1,29.38,126.47Z" transform="translate(-8.71 -9.04)"/><path class="cls-29" d="M86.93,58.16l.62-.79q.09,8.57.16,17.14a9.4,9.4,0,0,0,.7,4.45c-1.91-.57-1.46-2.18-1.47-3.51C86.9,69.68,86.93,63.92,86.93,58.16Z" transform="translate(-8.71 -9.04)"/><path class="cls-30" d="M61.28,80.91c-.53,1.4,2.94,1.75.93,3.54-3.46.78-3.66.53-3-3.55-1-1.24-.08-2.46.05-3.68Z" transform="translate(-8.71 -9.04)"/><path class="cls-31" d="M168,126.26l.72.2c.22.14.29.27.2.39s-.16.18-.24.18h-19.9c0-.22-.08-.43-.11-.65a8,8,0,0,1,1.12-.68C155.91,125.38,162,124.49,168,126.26Z" transform="translate(-8.71 -9.04)"/><path class="cls-32" d="M71.88,100.8c-.82-2.53-1.93-5-2.1-7.7C73,95,73.44,97.62,71.88,100.8Z" transform="translate(-8.71 -9.04)"/><path class="cls-33" d="M76.15,77.29c-2.09,0-4.19.06-6.28-.09-2.3-.16-4.31.15-5.69,2.23.09-1.89.69-3.34,2.92-3.4a27.44,27.44,0,0,0,8.39,0C76.35,76.11,76.23,76.71,76.15,77.29Z" transform="translate(-8.71 -9.04)"/><path class="cls-34" d="M52,115.7c-.33,2.78.77,5.66-.61,8.37a9.85,9.85,0,0,1,.08-8.34l.25-.24Z" transform="translate(-8.71 -9.04)"/><path class="cls-35" d="M61.46,85.79l7.66.15a.57.57,0,0,1-.23.92c-2.24.28-4.53-.25-6.76.3a4.9,4.9,0,0,1-3.5-.5h-.31a.84.84,0,0,1,.31-1A2.51,2.51,0,0,1,61.46,85.79Z" transform="translate(-8.71 -9.04)"/><path class="cls-36" d="M22.46,125.94l1.11.53c.26.1.35.22.29.36s-.14.22-.21.22H12.35C15.65,125.76,19.16,126.94,22.46,125.94Z" transform="translate(-8.71 -9.04)"/><path class="cls-37" d="M63.41,127.07l-4.16,0a.58.58,0,0,1-.06-.93A6.84,6.84,0,0,1,61.72,125a17.52,17.52,0,0,1,6.73,0,1.85,1.85,0,0,1,.87.69.77.77,0,0,1-.42.92C67.08,127,65.2,126.36,63.41,127.07Z" transform="translate(-8.71 -9.04)"/><path class="cls-38" d="M141.72,127H131.61l0-.83h10l.35.36Z" transform="translate(-8.71 -9.04)"/><path class="cls-39" d="M51.29,105.39h1.59c-.38,1.73.22,3.61-.77,5.26C51.19,109,51.37,107.18,51.29,105.39Z" transform="translate(-8.71 -9.04)"/><path class="cls-40" d="M28.94,115.71c-1.18,0-2.1,1.09-3.35.73,0-.44.05-.87.08-1.3.6-.55,0-1.43.55-2l.37-.22C27.81,113.49,29,114,28.94,115.71Z" transform="translate(-8.71 -9.04)"/><path class="cls-41" d="M32.24,103.3V94.14A14.64,14.64,0,0,1,32.24,103.3Z" transform="translate(-8.71 -9.04)"/><path class="cls-42" d="M75.49,76a13,13,0,0,1-8.39,0Z" transform="translate(-8.71 -9.04)"/><path class="cls-43" d="M59.18,126.63c0,.15,0,.31.07.46l-7.88,0c0-.2,0-.4,0-.6l7.07,0C58.76,126.18,59,126.24,59.18,126.63Z" transform="translate(-8.71 -9.04)"/><path class="cls-44" d="M69.09,86.51c0-.19,0-.38,0-.57,1.07-.51,2.39-2.16,2.74.6a4.33,4.33,0,0,1-2.55.82C68.83,87.18,68.76,86.9,69.09,86.51Z" transform="translate(-8.71 -9.04)"/><path class="cls-45" d="M69.09,86.51c.07.28.14.57.22.85l-7.18-.2C64.36,86,66.78,86.87,69.09,86.51Z" transform="translate(-8.71 -9.04)"/><path class="cls-46" d="M25.13,107l.19-3.29c1.68,1.32,1,2.85,1.09,4.21a.59.59,0,0,1-.72.18A3.27,3.27,0,0,1,25.13,107Z" transform="translate(-8.71 -9.04)"/><path class="cls-47" d="M168.71,127c0-.19,0-.38,0-.57l6.86-.18.26.11c.22.17.28.32.19.45a.38.38,0,0,1-.27.17Z" transform="translate(-8.71 -9.04)"/><path class="cls-48" d="M141.75,125.69h7l.24.23-.2.27,0,.29a17,17,0,0,1-7-.07l-.26-.21A1.1,1.1,0,0,1,141.75,125.69Z" transform="translate(-8.71 -9.04)"/><path class="cls-49" d="M83.53,126.4h2.64l0,.63H79.78a.6.6,0,0,1,.35-.91C81.26,126.16,82.44,125.76,83.53,126.4Z" transform="translate(-8.71 -9.04)"/><path class="cls-50" d="M141.82,126.42l7,.07a4.89,4.89,0,0,1,0,.54h-7.09A1.65,1.65,0,0,1,141.82,126.42Z" transform="translate(-8.71 -9.04)"/><path class="cls-51" d="M23.66,106.51c-1.6-1.25-1.47-3-1.46-4.76A6.37,6.37,0,0,1,23.66,106.51Z" transform="translate(-8.71 -9.04)"/><path class="cls-52" d="M79.89,126.48c0,.19-.08.37-.11.55H73.46a.59.59,0,0,1,.19-.92,6.05,6.05,0,0,1,3.24.19l.84,0A1.82,1.82,0,0,1,79.89,126.48Z" transform="translate(-8.71 -9.04)"/><path class="cls-48" d="M149.45,119.12a17.25,17.25,0,0,1,0,3.37c-.29,1.56-1,2.07-2.06.38C149.67,122.5,148.11,120,149.45,119.12Z" transform="translate(-8.71 -9.04)"/><path class="cls-53" d="M23.65,127.05c0-.19,0-.39-.08-.58h5.81c0,.2,0,.39-.07.58Z" transform="translate(-8.71 -9.04)"/><path class="cls-54" d="M57.59,73.87l-2.05-.35a.89.89,0,0,1-.77-.76c.66-1.13,1.46-1.12,2.37-.31.52.76,1.42.43,2.09.74C58.88,73.89,58.13,73.61,57.59,73.87Z" transform="translate(-8.71 -9.04)"/><path class="cls-55" d="M23.66,107.9l1.34.89c.89.69.74,1.65.64,2.59a1.71,1.71,0,0,1-.64.9,7.41,7.41,0,0,1-1.38-4.36Z" transform="translate(-8.71 -9.04)"/><path class="cls-56" d="M79.89,126.48l-2.16-.14c1.7-1.23,3.66-.29,5.47-.64l.33.7Z" transform="translate(-8.71 -9.04)"/><path class="cls-57" d="M63.41,127.07c1.77-1.23,3.78-.34,5.65-.66.2.13.28.26.23.41s-.1.23-.17.23Z" transform="translate(-8.71 -9.04)"/><path class="cls-58" d="M69.12,127.05a1.74,1.74,0,0,0-.06-.64,3.82,3.82,0,0,1,.19-.6c1.13-.62,2.25-.2,3.36,0a1.54,1.54,0,0,1,.71.67,4.67,4.67,0,0,1,.14.5Z" transform="translate(-8.71 -9.04)"/><path class="cls-59" d="M25.83,108a2.81,2.81,0,0,1,.58,0l.18,5a.21.21,0,0,0-.29-.19c-1.39.12-.66-1-.88-1.54C25.59,110.12,25,109,25.83,108Z" transform="translate(-8.71 -9.04)"/><path class="cls-60" d="M33.4,109.36c1.56.66.39,1.47.12,2.23-.41-.11-1.11-.13-1.16-.33C32.13,110.39,32.77,109.85,33.4,109.36Z" transform="translate(-8.71 -9.04)"/><path class="cls-61" d="M25.69,111.36c.21.46.41.92.61,1.39.13.88.43,1.81-.63,2.39-.22-1-.45-1.91-.67-2.86,0-.31.05-.62.08-.92A.37.37,0,0,1,25.69,111.36Z" transform="translate(-8.71 -9.04)"/><path class="cls-62" d="M20.31,112.94l-2.09-1c.59-.82,1.3-.35,1.9-.47C20.65,111.89,21.16,112.33,20.31,112.94Z" transform="translate(-8.71 -9.04)"/><path class="cls-63" d="M155.17,120.85l.15-2.45,1.22,0-.66,2.9C155.33,121.62,155.16,121.37,155.17,120.85Z" transform="translate(-8.71 -9.04)"/><path class="cls-64" d="M52,115.7l-.27,0-.26.08c-.08-1.51-.87-3.12.61-4.42l.08,2.84a1,1,0,0,1-.19,1.44Z" transform="translate(-8.71 -9.04)"/><path class="cls-65" d="M25.69,111.36l-.3,0-.31,0c0-.86,0-1.72-.08-2.58,0-.58.09-1.16.13-1.75l.7.92C25.78,109.09,25.74,110.22,25.69,111.36Z" transform="translate(-8.71 -9.04)"/><path class="cls-66" d="M142.41,42.57l-.1,1.42c-.67-1-1.34-1.94-2-2.92C141.49,40.89,142,41.66,142.41,42.57Z" transform="translate(-8.71 -9.04)"/><path class="cls-28" d="M175.79,127a2.64,2.64,0,0,1,.08-.62c1.27,0,2.56-.32,4.07.37A7.75,7.75,0,0,1,175.79,127Z" transform="translate(-8.71 -9.04)"/><path class="cls-41" d="M30,107.83l0-.71c-.35-.79-.54-1.48.76-1.33h.69C31.42,106.78,31.25,107.67,30,107.83Z" transform="translate(-8.71 -9.04)"/><path class="cls-67" d="M81.8,32.34c-3.79,0-7.59.06-11.37,0C66.93,32.24,64.7,30.5,65,28c.4-3,2.55-4,5.36-4,7.7,0,15.4,0,23.11,0,2.83,0,5.14,1.12,5.18,4.13s-2.35,4.14-5.14,4.17C89.62,32.37,85.71,32.33,81.8,32.34Z" transform="translate(-8.71 -9.04)"/><path class="cls-68" d="M102,39.52c-4.11.5-8.3-.51-12.38.68C85.09,39,80.5,39.89,76,39.67c-2.83-.13-5.66,0-8.5,0-.81,0-2,.07-2-.94-.08-1.33,1.21-1.17,2.1-1.18,2.95,0,5.9,0,8.85,0,7.67,0,15.35,0,23,0C100.63,37.54,102.65,36.91,102,39.52Z" transform="translate(-8.71 -9.04)"/><path class="cls-69" d="M110.2,31.76c-3.81.25-5-1.5-5-3.79a3.67,3.67,0,0,1,3.73-3.89,3.9,3.9,0,0,1,4.22,3.84A3.46,3.46,0,0,1,110.2,31.76Z" transform="translate(-8.71 -9.04)"/><path class="cls-70" d="M86.81,46.09c-6.24,0-12.48,0-18.72,0-1,0-2.57.33-2.63-1S67,43.93,68,43.93c6.36,0,12.71,0,19.07,0C87.31,44.72,87.53,45.45,86.81,46.09Z" transform="translate(-8.71 -9.04)"/><path class="cls-71" d="M86.81,46.09,87,44c.21,0,.43-.09.64-.15l-.12,12.24-28.4-.13c.88-1.22,2.17-.64,3.26-.65,7.3,0,14.6-.08,21.9,0,1.9,0,2.84-.38,2.66-2.51S86.85,48.33,86.81,46.09Z" transform="translate(-8.71 -9.04)"/><path class="cls-72" d="M117.52,13.81l-1.9,1.36a2.94,2.94,0,0,1-.24-1C115.56,12.78,116.7,13.54,117.52,13.81Z" transform="translate(-8.71 -9.04)"/><path class="cls-73" d="M122.87,64.51c-1.1,1.9-2.24,3.76-4.62,4.28a4.3,4.3,0,0,1-4.07,1.74c-1.57-.37-2.52-1.68-3.8-2.49,0-.22,0-.44,0-.66-.22-.66.18-.94.7-1.15a1.56,1.56,0,0,1,1.44.44c.47.81,1.29.68,2,.73,1.29-.44,2.87-.24,3.71-1.67,1.81-3.11,3.63-6.21,5.4-9.34a8.74,8.74,0,0,1,3.07-3.26c1.35-.78,2.78-.29,4.18-.21.85.5,1.43,1.32,2.26,1.83a2.73,2.73,0,0,1,.51.83c.53,1.49-.39,2.8-.53,4.21L131,63.07c-1.19.68-2.13,2-3.81,1.44-.12,0-.25,0-.37,0C125.53,64.31,124.2,65,122.87,64.51Z" transform="translate(-8.71 -9.04)"/><path class="cls-74" d="M111.11,66.67l-.72.71-1.12-.71c-1.53-.31-3-1.14-4.62-.45a6.51,6.51,0,0,0-3.18.75,23,23,0,0,1-3.1,1c-.87,1-1.76,1.83-2.91.32a5.21,5.21,0,0,1,1.43-2.38c1.39-3.88,4.22-6.47,7.64-8.52,1.46,0,2.94,0,3.77,1.56l1.38,1.2a7,7,0,0,0,1.08,3.29C110.84,64.54,112.08,65.49,111.11,66.67Z" transform="translate(-8.71 -9.04)"/><path class="cls-75" d="M135.06,73.68H93.57v-.35H135.2Z" transform="translate(-8.71 -9.04)"/><path class="cls-76" d="M130.82,53.18c-1.38,1.55-2.72.07-4.08,0C128,51.7,129,49,131,52.5,131.35,52.84,131.29,53.06,130.82,53.18Z" transform="translate(-8.71 -9.04)"/><path class="cls-77" d="M104.66,65.8c1.8-1.11,3.27-.44,4.61.87-1.54.88-3-.63-4.57-.1-.24-.16-.32-.33-.25-.5S104.59,65.8,104.66,65.8Z" transform="translate(-8.71 -9.04)"/><path class="cls-78" d="M133.16,59.79c-.79-1.56.31-3,.3-4.52a1,1,0,0,1,1.07.65A4.17,4.17,0,0,1,133.16,59.79Z" transform="translate(-8.71 -9.04)"/><path class="cls-79" d="M134.53,55.92l-1.07-.65-.25,0c-.49-.76.12-1,.61-1.3.22-.68.76-1.5,1.31-.85C135.88,54,135.08,55.06,134.53,55.92Z" transform="translate(-8.71 -9.04)"/><path class="cls-80" d="M114,70.17a7.66,7.66,0,0,0,4.21-1.38c-.73,2.95-3,2.15-4.93,2C113.24,70.18,113.3,69.77,114,70.17Z" transform="translate(-8.71 -9.04)"/><path class="cls-81" d="M122.87,64.51c1.33-.52,2.66-1.09,4,0C125.52,65.48,124.19,65.74,122.87,64.51Z" transform="translate(-8.71 -9.04)"/><path class="cls-82" d="M111.11,66.67l-.85-3.52a.49.49,0,0,1,.86,0l1.41,3.56Z" transform="translate(-8.71 -9.04)"/><path class="cls-83" d="M108.3,59c-1-1.18-2.84-.25-3.77-1.56C106.44,56.38,107.79,56.68,108.3,59Z" transform="translate(-8.71 -9.04)"/><path class="cls-84" d="M114,70.17l-.72.6A4.54,4.54,0,0,1,110.38,68C112,68.16,112.83,69.45,114,70.17Z" transform="translate(-8.71 -9.04)"/><path class="cls-85" d="M127.23,64.51,131,63.07C130.13,64.49,129.32,66.18,127.23,64.51Z" transform="translate(-8.71 -9.04)"/><path class="cls-86" d="M118.27,65.73c-.43,2.34-2,2-3.71,1.67Z" transform="translate(-8.71 -9.04)"/><path class="cls-87" d="M98.37,68a3.52,3.52,0,0,1,2.84-1.17l-.06.42C100.46,68.41,99.6,68.89,98.37,68Z" transform="translate(-8.71 -9.04)"/><path class="cls-88" d="M133.82,54l-.61,1.3c-1.13-.33-1.69-1.31-2.39-2.12a1.79,1.79,0,0,1,.17-.68C132.05,52.79,132.6,54,133.82,54Z" transform="translate(-8.71 -9.04)"/><path class="cls-89" d="M101.15,67.25a1,1,0,0,0,.06-.42,4.59,4.59,0,0,1,3.45-1c0,.25,0,.51,0,.77Z" transform="translate(-8.71 -9.04)"/><path class="cls-90" d="M96.89,65.94a2.69,2.69,0,0,1-1.43,2.38C94.85,66.87,95.44,66.15,96.89,65.94Z" transform="translate(-8.71 -9.04)"/><path class="cls-91" d="M111.12,63.11l-.86,0a2.33,2.33,0,0,1-.58-3C110.59,60.94,110.66,62.13,111.12,63.11Z" transform="translate(-8.71 -9.04)"/><path class="cls-92" d="M170.86,108.09a6.12,6.12,0,0,1-1.37,3q0-8.1,0-16.18A58.34,58.34,0,0,1,170.86,108.09Z" transform="translate(-8.71 -9.04)"/><path class="cls-93" d="M168.53,88.39l.53,4.37A4,4,0,0,1,168.53,88.39Z" transform="translate(-8.71 -9.04)"/><path class="cls-94" d="M172.12,122.16a3.62,3.62,0,0,0-.46.06c-1.24.08-1.33-.46-.75-1.37l1.14-1.63c.32-.36.62-.34.88.07Z" transform="translate(-8.71 -9.04)"/><path class="cls-95" d="M170.91,120.85l.75,1.37c-1.81,0-1.94-.44-.85-3C170.85,119.79,170.88,120.32,170.91,120.85Z" transform="translate(-8.71 -9.04)"/><path class="cls-96" d="M172.93,119.29l-.88-.07c.31-.64-.09-2.06,1.12-1.69C174,117.79,173.06,118.68,172.93,119.29Z" transform="translate(-8.71 -9.04)"/><path class="cls-97" d="M61.34,105.53l1.3-2.49a.77.77,0,0,1,.71-.33c.4.2.52.63.78,1,.11,3.38,2.33,6.08,3,9.29.54,3-1,4.93-3.53,6.23a3.22,3.22,0,0,1-3.5-1.3L60,115.69c-.11-.48-.64-.94,0-1.44A29.63,29.63,0,0,0,61.34,105.53Z" transform="translate(-8.71 -9.04)"/><path class="cls-14" d="M63.66,118.73c2.06-1.38,2.39-3.79,3.43-5.78,2,1.57,1.94,4.39,3.83,6,1.4.86,1.64,2.46,2.38,3.73l-.49,1.69a1.32,1.32,0,0,1-.26,2l-3.3-.58-.19-.09c-2-1.25-4.78-.86-6.14-3.25C62.53,121.09,62.32,119.75,63.66,118.73Z" transform="translate(-8.71 -9.04)"/><path class="cls-98" d="M63.44,102.9l-.8.14-4.19-.83a1.49,1.49,0,0,1,1.44-.73c1.15-.42,2.29-.87,3.51-.22A1.14,1.14,0,0,1,63.44,102.9Z" transform="translate(-8.71 -9.04)"/><path class="cls-99" d="M63.45,101.52l-3.56,0a4.17,4.17,0,0,1,3.56-1.37A1,1,0,0,1,63.45,101.52Z" transform="translate(-8.71 -9.04)"/><path class="cls-100" d="M63.45,101.52v-1.41c1.16,1,.58,2.35.68,3.55l-.69-.76C63.44,102.44,63.44,102,63.45,101.52Z" transform="translate(-8.71 -9.04)"/><path class="cls-101" d="M57.14,72.45c-.8,0-1.64-.26-2.19.6-1.1.77-1.78.27-2.29-.75-.19-.78-.13-1.86-.63-2.27-3.21-2.72-1.11-3.51,1.41-4.21,1.45.92,3.28-2,4.59.45a3.23,3.23,0,0,1,.26.92,3,3,0,0,1-.12.94c.12.63-1.51,1.32.09,1.89.38.27.59.58.29,1Z" transform="translate(-8.71 -9.04)"/><path class="cls-102" d="M57.75,66.67c-.52,0-.89-1.28-1.24-.62-1.33,2.43-2.1.39-3.07-.23,1-1.84,2.75-1.3,4.33-1.28A1.48,1.48,0,0,1,57.75,66.67Z" transform="translate(-8.71 -9.04)"/><path class="cls-103" d="M52.66,72.3l2.29.75.59.47c-1.55,1.81-2.84.68-4.15-.36C51.82,72.88,52.24,72.59,52.66,72.3Z" transform="translate(-8.71 -9.04)"/><path class="cls-104" d="M58.55,71.05l-.76-.81a1.59,1.59,0,0,1,0-2.08l.11-.91a1.16,1.16,0,0,1,1.43,0C60.08,68.75,59.37,69.91,58.55,71.05Z" transform="translate(-8.71 -9.04)"/><path class="cls-105" d="M59.29,67.29l-1.43,0c0-.19-.07-.38-.11-.58,0-.71,0-1.42,0-2.13C59.64,64.7,59.05,66.22,59.29,67.29Z" transform="translate(-8.71 -9.04)"/><path class="cls-106" d="M49.9,84.51c1.72-.05,3.49-.38,5.05.72.39.51.4,1-.18,1.36a12.59,12.59,0,0,0-4.9-1.53c-.18-.13-.24-.25-.17-.37S49.83,84.51,49.9,84.51Z" transform="translate(-8.71 -9.04)"/><path class="cls-107" d="M59.19,80.9c-.18,2.19,0,4.12,3,3.55l-.82.79c-1,.27-2,.66-2.9-.27C58.74,83.62,57.87,82.07,59.19,80.9Z" transform="translate(-8.71 -9.04)"/><path class="cls-108" d="M54.77,86.59,55,85.23l2.25-.07c.21.56,1.12.14,1.22.86a1.75,1.75,0,0,1-.1.64C57.14,86.28,55.94,87.34,54.77,86.59Z" transform="translate(-8.71 -9.04)"/><path class="cls-109" d="M58.42,86c-.5-.15-1.07-.21-1.22-.86L58.49,85l2.9.26a2,2,0,0,0,.07.55Z" transform="translate(-8.71 -9.04)"/><path class="cls-110" d="M49.9,84.51a2.51,2.51,0,0,1,0,.55c-1,0-2.14.42-3.25-.33C47.84,83.4,48.88,84.79,49.9,84.51Z" transform="translate(-8.71 -9.04)"/><path class="cls-111" d="M155.17,120.85l.71.5c1.55,1,1.68-.47,2.16-1.27,1.07-1.79,2.31-3.33,4.71-2.84a3.34,3.34,0,0,1,2.61,4c-.51,2.66,2.35,3.07,2.67,5l-19.22-.06a1.67,1.67,0,0,0,0-.5c.26-.38.51-1.07.78-1.08C152.24,124.53,153.3,122.09,155.17,120.85Z" transform="translate(-8.71 -9.04)"/><path class="cls-112" d="M71.7,81.93c-1.26,0-2.43-.31-3.6.22C69.68,80.75,69.68,80.75,71.7,81.93Z" transform="translate(-8.71 -9.04)"/><path class="cls-113" d="M63.39,122.66c1.77,1.24,4.42.85,5.67,3.06l-7.8.19c-.94-.17-2,0-2.58-1.12a2.68,2.68,0,0,1,.64-2C60.66,122,62,122.43,63.39,122.66Z" transform="translate(-8.71 -9.04)"/><path class="cls-114" d="M63.39,122.66c-1.34.79-2.71.29-4.07.1.25-1.63.49-3.26.74-4.88l3.6.85Z" transform="translate(-8.71 -9.04)"/><path class="cls-115" d="M59.93,114.25c.23.47.61.94,0,1.44l-8-.1.19-1.44Z" transform="translate(-8.71 -9.04)"/><path class="cls-116" d="M58.68,124.79c1,0,1.76.67,2.58,1.12l-2.09.72-.74-.22Z" transform="translate(-8.71 -9.04)"/><path class="cls-117" d="M16.83,100c1.46-.11,2.08.55,2.73,2.49Z" transform="translate(-8.71 -9.04)"/><path class="cls-118" d="M23.91,93.81c.35,1.22,1.29,2.4.67,4.23C23.17,96.51,23.81,95.11,23.91,93.81Z" transform="translate(-8.71 -9.04)"/><path class="cls-119" d="M16.19,111a2.41,2.41,0,0,1-2.77.15c0-.26-.08-.58,0-.66C14.33,109.78,15.15,110,16.19,111Z" transform="translate(-8.71 -9.04)"/><path class="cls-120" d="M30.76,105.79,30,107.12c-1.51-3.52.7-7,.08-10.52,1.9,1.42.87,3.26.72,5Z" transform="translate(-8.71 -9.04)"/><path class="cls-121" d="M30.8,101.58c-.4-1.64.58-3.47-.72-5,.18-.8.72-2.08,1.17-.5A6.49,6.49,0,0,1,30.8,101.58Z" transform="translate(-8.71 -9.04)"/><path class="cls-122" d="M72.55,126.39c.09-.67.17-1.34.26-2l4.08,1.92-3.57.23Z" transform="translate(-8.71 -9.04)"/><path class="cls-123" d="M57.75,68.16c0,.7,0,1.39,0,2.08-.39.6-1.08.79-1.39.21C55.68,69.12,57.34,69,57.75,68.16Z" transform="translate(-8.71 -9.04)"/></svg>